/* XPM */
static char *_e011e83b2394186c23f8e7020e7684f7U4APLbttVZY45t0[] = {
/* columns rows colors chars-per-pixel */
"50 50 222 2 ",
"   c #180200",
".  c #230B00",
"X  c #280800",
"o  c #310A00",
"O  c #2B1302",
"+  c #2F1B0D",
"@  c #341300",
"#  c #341B05",
"$  c #311E0F",
"%  c #381E0B",
"&  c #3B1D05",
"*  c #371F12",
"=  c #3E230B",
"-  c #3F2407",
";  c #392415",
":  c #3C2618",
">  c #3B2616",
",  c #451900",
"<  c #441D0E",
"1  c #4D1904",
"2  c #561901",
"3  c #42240C",
"4  c #4C2D0E",
"5  c #442609",
"6  c #532A03",
"7  c #5F2F02",
"8  c #512A0B",
"9  c #4F310F",
"0  c #57310A",
"q  c #432613",
"w  c #452914",
"e  c #4D2D12",
"r  c #492E18",
"t  c #47281A",
"y  c #532414",
"u  c #572A15",
"i  c #5B2817",
"p  c #4D331C",
"a  c #45301D",
"s  c #533414",
"d  c #53331B",
"f  c #56391C",
"g  c #5D3D1C",
"h  c #59371B",
"j  c #66381B",
"k  c #4D3628",
"l  c #543321",
"z  c #543A24",
"x  c #5B3C23",
"c  c #593E29",
"v  c #543E30",
"b  c #643820",
"n  c #733826",
"m  c #67441C",
"M  c #5C422D",
"N  c #5D4022",
"B  c #594232",
"V  c #634224",
"C  c #6D4C25",
"Z  c #61452C",
"A  c #654B2D",
"S  c #6A4B2A",
"D  c #7B4E29",
"F  c #724D2A",
"G  c #6E502E",
"H  c #72512B",
"J  c #7E562E",
"K  c #7E5C2F",
"L  c #7C5625",
"P  c #604732",
"I  c #654A32",
"U  c #6B4A33",
"Y  c #604B3B",
"T  c #744933",
"R  c #6C5133",
"E  c #6E533D",
"W  c #725333",
"Q  c #74553B",
"!  c #7D5639",
"~  c #7D5A39",
"^  c #7A5A35",
"/  c #7D613E",
"(  c #6B4E40",
")  c #6C5543",
"_  c #6E5A4B",
"`  c #765C44",
"'  c #7A5D44",
"]  c #755B49",
"[  c #7C5C48",
"{  c #7C6143",
"}  c #7C614A",
"|  c #73604F",
" . c #7D6554",
".. c #7D6A5C",
"X. c #8A5324",
"o. c #83562D",
"O. c #8B5D2E",
"+. c #8B562A",
"@. c #8C5D34",
"#. c #835C3B",
"$. c #895935",
"%. c #905F37",
"&. c #975F3C",
"*. c #8A6136",
"=. c #86633C",
"-. c #8A623B",
";. c #8C693A",
":. c #876A3E",
">. c #9D6A34",
",. c #93673D",
"<. c #9A653B",
"1. c #9F6D3E",
"2. c #926E3A",
"3. c #A16C3C",
"4. c #A76C39",
"5. c #A4733C",
"6. c #AC733D",
"7. c #AA7B3F",
"8. c #A2783C",
"9. c #845E42",
"0. c #875E48",
"q. c #935D41",
"w. c #836245",
"e. c #8C6943",
"r. c #82644A",
"t. c #88674A",
"y. c #8A694B",
"u. c #856846",
"i. c #926F42",
"p. c #9B6B43",
"a. c #976D4D",
"s. c #9C6D4A",
"d. c #94654B",
"f. c #95734D",
"g. c #9C7349",
"h. c #9F7749",
"j. c #856B53",
"k. c #8B6C56",
"l. c #826B5A",
"z. c #876955",
"x. c #8B7156",
"c. c #8E745D",
"v. c #937354",
"b. c #9B7353",
"n. c #967C5E",
"m. c #9A7B5B",
"M. c #997758",
"N. c #A16F4A",
"B. c #A57344",
"V. c #AB7444",
"C. c #A27942",
"Z. c #AC7A44",
"A. c #A4744C",
"S. c #AC764A",
"D. c #A47B4A",
"F. c #AC7B4B",
"G. c #B37342",
"H. c #B27B46",
"J. c #B57C4D",
"K. c #BC794E",
"L. c #A07552",
"P. c #A47A55",
"I. c #AA7D53",
"U. c #A47B5B",
"Y. c #AC7E5D",
"T. c #AC7556",
"R. c #B67B54",
"E. c #816F61",
"W. c #8A7465",
"Q. c #947B65",
"!. c #9A7D69",
"~. c #947C69",
"^. c #947E70",
"/. c #AE814C",
"(. c #B9814E",
"). c #AC8455",
"_. c #AC835A",
"`. c #A3855F",
"'. c #B2845B",
"]. c #B48A5E",
"[. c #BD8650",
"{. c #9E846E",
"}. c #9E8572",
"|. c #9E8875",
" X c #9E8A7B",
".X c #938071",
"XX c #AC8464",
"oX c #AE8B64",
"OX c #A1866E",
"+X c #A4896E",
"@X c #AA8D6D",
"#X c #A9856D",
"$X c #B28D6A",
"%X c #B58A63",
"&X c #BD9267",
"*X c #A18672",
"=X c #A48974",
"-X c #A88D76",
";X c #A38678",
":X c #A58B7A",
">X c #A98E7A",
",X c #AB9174",
"<X c #AB917A",
"1X c #AC927B",
"2X c #AD927D",
"3X c #AB917B",
"4X c #A3907F",
"5X c #B1957C",
"6X c #B49A7E",
"7X c #B09174",
"8X c #C08750",
"9X c #C0956A",
"0X c #C49B7B",
"qX c #A28E80",
"wX c #A98E81",
"eX c #A79080",
"rX c #AC9483",
"tX c #AF9A8C",
"yX c #AD9787",
"uX c #B19682",
"iX c #B39982",
"pX c #BCA183",
/* pixels */
":X:X:X:X=X=X=X=X>X=X=X=X=X=X=X=X=X=X=X-X>X-X=X=X-X-X=X=X=X=X=X-X=X=X;X;XwXwX:X=X=X=X=X=X=X=X;X=X=X=X",
":X:X:X:X=X=X=X=X=X=X=X=X>X1X>X=X=X=X=X=X=X=X-X-X=X-X=X=X-X=X-X-X<X-X:XwX:X}.=X:X=X=X=X=X=X=X;X=X=X=X",
":X:X=X=X=X=X=X=X=X>X>X=X{.=X=X=X=X>X>X=X=X=X-X=X=X=X=X=X=X-X=X-X=X=X}.}.:XwX>X=X=X=X=X=X=X=X;X=X=X=X",
":X:X=X=X=X=X=X=X=X:X-X=X=X=X>X1X=X=X-X>X-X:X=X=X=X=X=X=X=X=X-X-X:X3XeX:X;X;X;X:X=X=X=X=X=X=X;X=X=X=X",
"=X=X=X=X=X=X=X=X>X=X{.-X1X>X=X=X=X*X*X:X>X:X:X>X:X=X:X=X:X=X:X:X>X=X}.>XwX}.}.-X=X=X=X=X=X=X;X=X=X=X",
"=X=X=X=X=X=X=X:X>X=X=X=X=X{.=X-X1X=X=X:X:X=X:X>X:X:X:X:X:X:X:X:X=X=X=X=X:X>X:X=X=X=X=X=X=X=X;X=X=X=X",
"=X=X=X=X=X=X=X=X=X>X<X-X=X>X1X<X=X>X1X>X=X-X>X=X=X=X:X:X:X:X:X:X-X5XuX:X}.=X:X>X=X=X=X=X=X=X;X=X=X=X",
"=X=X=X=X=X:X=X=X=X-X=X{.-X1Xc.I j.OX2X-X=X1X<X=X=X=X=X=X=X=X:X=X5X' U c.uX>X|.>X=X=X=X=X=X=X=X=X=X=X",
"=X=X=X=X=X=X=X=X=X>X>X=X>XQ.= Z 3 f x.6X1X+X=X=XOXOX=X=X=X1X>Xc.e f I - !.1X}.>X=X=X=X=X=X=X=X=X=X=X",
"=X=X=X=X=X=X=X=X=X=X=X-X<X} p j.@XR 5 A n.,XpX,X,XpX5X-X5XQ.A 4 y.M.v.e ' uX:X{.=X=X=X=X=X=X=X=X}.}.",
"=X=X=X=X=X=X=X=X>X=X=X-X<XM z x.u.`.`.C s W H V V 4 g / G 9 G @Xv.f.w.x c >X:X-X=X=X=X=X=X=X=X=X}.}.",
"=X=X=X=X=X=X=X=X-X-X-X=X1Xd I { ~ f.b.oXf.m F =.e.e.=.F C f.oXf.f.~ W Q l =X=X>X=X=X=X=X=X=X=X=X*X}.",
"=X=X=X=X=X=X=X=X=X>X-X{.2Xz E { -.@.g.g._.9X_.%XI.&X&X].%X_.A.I.-.=.~ W r 1X;X}.=X=X=X=X=X=X=X=X=X=X",
"=X=X=X=X=X=X=X=X=X-X-X=X1Xz Z y.L <.1.F.S.1.F.S.S.B.3.B.S.V.3.p.J #.~ x p 1X-X|.=X=X=X=X=X=X=X=X=X=X",
"=X=X=X=X=X=X=X-X-X-X-X=X<XM p t.@.X.3.V.S.J.Z.V.Z.3.6.H.V.H.(.B.*.=.#.h U >X=X-X=X=X=X=X=X=X=X=X*X}.",
"=X=X=X=X=X=X-X-X=X-X-X=X5X' p w.@.+.<.J.V.6.H.5.X.B.H.6.G.G.V.p.J =.w.e ' >X}.=X=X=X=X=X=X=X=X=X*X}.",
"=X=X=X=X=X-X-X-X=X=X>X>X{.=X% r.%.&.$.V.6.6.7.8.2.).Z.4.G.K.T.d.9.! t.5 Q.=X=X-X=X=X=X=X=X=X=X=X*X}.",
"=X=X=X=X=X=X-X-X=X1X}.=X-X=Xp Z #.D %.O.V.5.F.D.h.i.I.F.G.R.q.9.! v.V e iX2XQ.=X=X=X=X=X=X=X=X=X*X}.",
"=X=X=X=X=X=X=X=X=XuX{.{.<X2X} d g.o.,.$.o.s.Y.U.XXY.b._.N.<.%.-.! t.d ' -X{.<X-X=X=X=X=X=X=X=X=X*X}.",
"=X=X=X=X=X=X=X=X=X=X-X1X=X3X` - K L *.-.9.0.T b 1 b u T 9.#.O.+.#.w.e Q 5X=X>X|.=X=X=X=X=X=X=X=X=X=X",
"=X=X=X=X=X=X=X=X=X=X-X=X}.}.z R :.;.K F z.l y y n j u 3 w Q O.O.#.r.U f =X>X=X{.=X=X=X=X=X=X=X=X=X=X",
"=X=X=X=X=X=X=X=X>X>X=X{.<XQ.# j./ ^ ^ 9.p X < i 2 2 y q O p ,.@.#.r.} 3 j.=X-X=X|.|.=X=X=X=X=X=X=X=X",
"=X=X=X=X=X=X=X=X{.>X=X>XrXQ.r p ` r.w.' X d 9.s.S.R.a.t.c . F #.9.' x p {.1X{.3X=X=X=X=X=X=X=X=X=X=X",
"=X=X=X=X=X=X=X=X=X=X=X=X}.3X=Xp % ] [ s b _.).F.V.F.I.U.#Xd d k.Q q w =X-X{.<X=X}.=X=X=X=X=X=X=X=X=X",
"=X=X=X=X=X=X=X=X=X=X=X>X{.-X-X] ;  .E 5 P.F.5.7.C./.B.A.Y.U.< ( l.# E iX{.{.<X}.=X=X=X=X=X=X=X=X=X=X",
"=X=X=X=X=X=X=X=X-X=X=X>X=X=X3XQ.k k O ~ '.>.7.7.C.D./.V.3.'.[ * r M c.=X-X>X=X{.=X=X=X=X=X=X=X=X=X=X",
"=X=X=X=X=X=X=X=X>X=X=X>X-X=X<X-X2Xj.- e.B.Z.Z.F.i.;.1.[.4.B.m.#  .3X-X{.-X=X{.<X=X=X=X=X=X=X=X=X=X=X",
"=X=X=X=X=X=X=X=X=X=X=X>X<X=X=X-X,Xn.d $XP.S.B.6 6 0 7 >.8XV.b.z {.rX}.=X-X{.-X=X=X=X=X=X=X=X=X=X}.}.",
"=X=X=X=X=X=X=X=X=X>X=X=X>X=X=X=X,Xr.f v.U.o., D 0X$Xo.7 B.A.g.g } ;X;X:X{.{.2X{.=X=X=X=X=X=X=X=X}.{.",
"=X=X=X=X=X=X=X=X=X<X=X=X=X-X-X=X6X{ N 7Xw.@ o M.Y.P.L., g._.].j r.rX:X|.=X{.-X{.=X=X=X=X=X=X=X=X}.}.",
"=X=X=X=X=X=X=X=X=X-X=X=X=X=X<X=X-Xr.f t.r z @ M.A.A.XX5 R w.p.6 j.;X}.=XuX=X{.{.=X=X=X=X=X=X=X}.}.{.",
"=X=X=X=X=X=X=X=X=X=X=X<X-X}.-X=XuXc.- ' % =XU 8 p.P.m.d z } #.6 !.-X-X=X{.{.-X-X=X=X=X=X=X=X=X}.{.{.",
"=X=X=X=X=X=X=X=X=X=X=X=X=X=X=X-X:X3X3 Z 3 y.XXP.P.L.y.e x } I = =X=X=X=X=X=X=X=X=X=X=X=X=X=X=X=X{.{.",
"=X=X=X=X=X=X=X=X=X=X=X=X=X=X=X=X}.yXP # 5 4 b.b.b.a.V e } l.O a -X=X=X=X=X=X=X=X=X=X=X=X=X=X=X=X{.{.",
"=X=X=X=X=X=X=X=X=X=X=X=X=X=X=X=X|.4X) p ` @ e g x e @ O I  .> Y 3X>X=X=X=X=X=X=X=X=X=X=X=X=X=X=X{.{.",
"=X=X=X=X=X=X=X=X=X=X=X=X=X=X=X=X|.tXl.r j.' Z & x x q P ) W.v | >X-X=X=X=X=X=X=X=X=X=X=X=X=X=X{.{.OX",
"=X=X=X=X=X=X=X=X=X=X=X=X=X=X=X=XqX:X.X> B ) M q Q.;X: ) _ _ $ ^.-X=X=X=X=X=X=X=X=X=X=X=X=X{.{.{.=X=X",
"=X=X=X=X=X=X=X=X=X=X=X=X=X=X=X=X^.yXtXv   * O ; rXrX: . : . : rX=X=X=X=X=X=X=X=X=X=X=X=X{.{.{.{.=X=X",
"=X=X=X=X=X=X=X=X=X=X=X=X=X=X=X=XeX:X|.^.; + $ E.qX X..+ > O l.:X=X=X=X=X=X=X=X=X=X=X=X=XOX{.{.{.=X=X",
"=X=X=X=X=X=X=X=X=X=X=X=X=X=X=X=X=X}.>XeXW._ ..qX XqX X_ B ] >X=X=X=X=X=X=X=X=X=X=X=X=X=X=X{.{.{.=X=X",
"=X=X=X=X=X=X=X=X=X=X=X=X=X=X=X=X=X=X=X=X:X:XqX:X:X:X:X:X>X>X=X=X=X=X=X=X=X=X=X{.{.{.=X=X=X=X=X=X=X=X",
"=X=X=X=X=X=X=X=X=X=X=X=X=X=X=X=X=X=X=X=X:X;X;X;X|.|.;X=X=X=X=X=X=X=X=X=X=X=X=X{.{.{.=XOX=X=X=X=X=X=X",
"=X=X=X=X=X=X=X=X=X=X=X=X=X=X=X=X=X=X=X=X=X=X=X=X=X=X=X=X=X=X=X=X=X=X=X=X=X=X=X{.{.{.{.{.{.{.=X=X{.{.",
"=X=X=X=X=X=X=X=X=X=X=X=X=X=X=X=X=X=X=X=X=X=X=X=X=X=X=X=X=X=X=X=X=X=X=X=X=X=X=X{.{.{.{.{.{.{.{.{.{.{.",
"=X=X=X=X=X=X=X=X=X=X=X=X=X=X=X=X=X=X=X=X=X=X=X=X=X=X=X=X=X=X=X=X=X=X=X=X=X=X=XOX{.{.{.{.{.{.{.{.{.{.",
"=X=X=X=X=X=X=X=X=X=X=X=X=X=X=X=X=X=X=X=X=X=X=X=X=X=X=X=X=X}.=X=X=X=X=X=X=X=X=X=X{.{.{.OX{.{.=X{.{.{.",
"=X=X=X=X=X=X=X=X=X=X=X=X=X=X=X=X;X;X=X=X=X=X=X+X+X=X=X=X|.|.|.|.=X=X=X=X=X=X=X=X{.{.=X=X=X=X=X=X{.{.",
"=X=X=X=X=X=X=X=X=X=X=X=X=X=X=X=X-X:X;X=X=X=X=XOX=X=X-X=X|.|.|.|.=X=X=X=X=X=X=X{.{.{.=X=X=X=X=X=X{.{.",
"=X=X=X=X=X=X=X=X=X=X=X=X=X=X=X=X=X=X=X=X=X=X=X=X=X=X=X=X=X=X}.}.=X=X=X=X=X{.{.{.{.{.{.=X=X=X=X=X{.{.",
"=X=X=X=X=X=X=X=X=X=X=X=X=X=X=X=X=X=X=X=X=X=X=X=X=X=X=X=X=X=X{.=X=X=X=X=X=X{.{.{.{.{.{.=X=X=X=X=X{.{."
};
