/* XPM */
static char *_5414256097a41759540a089448f9b7fvArUOUWuYkuwXcdW[] = {
/* columns rows colors chars-per-pixel */
"150 50 25 1 ",
"  c #020200",
". c #030200",
"X c #030301",
"o c #030102",
"O c #020202",
"+ c gray1",
"@ c #040301",
"# c #060201",
"$ c #040203",
"% c #070302",
"& c #040402",
"* c #050402",
"= c #050503",
"- c #060503",
"; c #050304",
": c #070304",
"> c #040404",
", c gray2",
"< c #060405",
"1 c #070604",
"2 c #070506",
"3 c #080403",
"4 c #080405",
"5 c #090506",
"6 c #0A0607",
/* pixels */
">>>>>>>>>>>>>>>>>>>>>>>>>>>>>>>>++++++++++++++++>>>>>>>>;;;;;;;;;;;;;;;;;;;;$$$$-------------++------------------------->>>>>>>>>>>>>>>>>>>>>>>>;;;;>>",
">>>>>>>>>>>>>>>>>>>>>>>>>>>>>>>>++++++++++++++++>>>>>>>>;;;;;;;;;;;;;;;;;;;;$$$$++++++++++----++-------------------------------->>>>>>>>>>>>>>>>;;;;>>",
">>>>>>>>>>>>>>>>>>>>>>>>>>>>>>>>++++++++++++++++>>>>>>>>;;;;;;;;;;;;;;;;;;;;;$$$+++++++++++------------------------------------->>>>>>>>>>>>>>>>;;;;>>",
">>>>>>>>>>>>>>>>>>>>>>>>>>>>>>>>++++++++++++++++>>>>>>>>;;;;;;;;;;;;;;;;;;;;;;;;++++++++++++------------------------------------>>>>>>>>>>>>>>>>;;;;>>",
">>>>>>>>>>>>>>>>>>>>>>>>>>>>>>>>++++++++++++++++>>>>>>>>;;;;;;;;;;;;;;;;;;;;;;;;$$$$$$$$$$$$----$$--------$--------------------->>>>>>>>>>>>>>>>;;;;>>",
">>>>>>>>>>>>>>>>>>>>>>>>>>>>>>>>++++++++++++++++>>>>>>>>;;;;;;;;;;;;;;;;;;;;;>>>--------+$$$$---$$$----------------------------->>>>>>>>>>>>>>>>;;;;>>",
">>>>>>>>>>>>>>>>>>>>>>>>>>>>>>>>++++++++++++++++>>>>>>>>;;;;;;;;;;;;;;;;;;;;>>>>--------+$$$$$--$$$$---------------------------->>>>>>>>>>>>>>>>;;;;>>",
">>>>>>>>>>>>>>>>>>>>>>>>>>>>>>>>>>>>>>>>++++++++>>>>>>>>;;;;;;;;;;;;;;;;;;;;>>>>--------+$$$$$$$$$$$---------------------------->>>>>>>>>>>>>>>>;;;;>>",
">>>>>>>>>>>>>>>>>>>>>>>>>>>>>>>>;;;;;;;;>>;;;;$$>>>>>>>>;;;;;;;;;;;;;;;;;;;;;;;;$---------------++$$$$-------------------------->>>>>>>>>>>>>>>>>>>>>>",
">>>>>>>>>>>>>>>>>>>>>>>>>>>>>>>>;;;;;;;;>>;;;;$$>>>>>>>>;;;;;;;;;;;;;;;;;;;;;;;;$---------------+$$$$$-------------------------->>>>>>>>>>>>>>>>>>>>>>",
">>>>>>>>>>>>>>>>>>>>>>>>>>>>>>>>;;;;;;;;;;;;;;;;>>>>>>>>;;;;;;;;;;;;;;;;;;;;;;;;$%$$$$$3%%$$$$$$$$$$$$-------------------------->>>>>>>>>>>>>>>>>>>>>>",
">>>>>>>>>>>>>>>>>>>>>>>>>>>>>>>>;;;;;;;;;;;;;;;;>>>>>>>>;;;;;;;;;;;;;;;;;;;;;;;;$%%$$$$3%%$%$$$$$$$$$$-------------------------->>>>>>>>>>>>>>>>>>>>>>",
">>>>>>>>>>>>>>>>>>>>>>>>>>>>>>>>;;;;;;;;;;;;;;;;>>>>>>>>$$$$$$$$;;;;;;;;;;;;;;;;$%%$$$$333333333------$$$$$$$$$$+$$$$$$$--------++>>>>>>>>>>>>>>>>>>>>",
">>>>>>>>>>>>>>>>>>>>>>>>>>>>>>>>;;;;;;;;;;;;;;;;>>>>>>>>$$$$$$$$;;;;;;;;;;;;;;;;$%%%$$$333333333------$$$$$$$$$$$$$$$$$$---$-$--+++>>>>>>>>>>>>>>>>>>>",
">>>>>>>>>>>>>>>>>>>>>>>>>>>>>>>>;;;;;;;;$$;;;;>>>>>>>>>>$$$$$$$$;;;;;;;;;;;;;;;;$%%%$$$333333333------$$$$$$$$$$$$$$$$$$---$----++++>>>>>>>>>>>>>>>>>>",
">>>>>>>>>>>>>>>>>>>>>>>>>>>>>>>>;;;;;;;;$$;;;;>>>>>>>>>>$$$$$$$$;;;;;;;;;;;;;;;;$%%%%$$333333333------$$$$$$$$$$$$$$$$$$--------++++>>>>>>>>>>>>>>>>>>",
"$$$$$$$$;;;;;;;;$$$$$$$$;;;;;;;;;;;;;;;;;;;;;;;;----------------$$$$$$$$$$$-----------------------------$$$$$$$$++++++++++++++++$$$$$$$$$$$$$$$$------",
";;;;;;;;;;;;;;;;$$$$$$$$;;;;;;;;;;;;;;;;;;;;;;;;----------------$$$$$$$$$$$-------------------------------------++++++++++++++--;;;;;;;;;;;;;;;;------",
";;;;;;;;;;;;;;;;$$$$$$$$;;;;;;;;;;;;;;;;;;;;;;;;--------$-------$$$$$$$$$$$-------------------------------------+++++++++++++---;;;;;;;;;;;;;;;;------",
";;;;;;;;;;;;;;;;$$$$$$$$;;;;;;;;;;;;;;;;;;;;;;;;---$------------$$$$$$$$$$$$------------------------------------++++++++++++----;;;;;;;;;;;;;;;;------",
";;;;;;;;;;;;;;;;;;;;;;;;;;;;;;;;$$$$$$$$;;;;;;;;-------$--------$$$$$$$$$$$$$---$$$$+$$$$$------------------------------$$++----;;;;;;;;;;;;;;;;------",
";;;;;;;;;;;;;;;;;;;;;;;;;;;;;;;;$$$$$$$$;;;;;;;;$$--------------$--$$$$-$$$$$$$$$$$$+$$$$$$-----------------------------$$+-----;;;;;;;;;;;;;;;;------",
";;;;;;;;;;;;;;;;;;;;;;;;;;;;;;;;$$$$$$$$;;;;;;;;--------$$------$$$$$$$$$$$$$$-$$$$$$$$$$$$$----------------------------$$------;;;;;;;;;;;;;;;;------",
">>>>>>>>;;;;;;;;;;;;;;;;;;;;;;;;$$$$$$$$;;;;;;;;----------------$$$$$$$$$$$$$$$$$$$$$$$$$$$$----$$$$$$$$------------------------>>>>>>>>>>>>>>>>------",
";;;;;;;;;;;;;;;;>>>>>>>>;;;;;;;;$$$$$$$$;;;;;;;;$$$$$$$$$$$$$$$$$$$$$$$$$$$$$$$$++++++++++++++++----------------$---------------;;;;;;;;$;;;;;;>------",
";;;;;;;;;;;;;;;;>>>>>>>>;;;;;;;;;;;;;;;;;;;;;;;;+$$$$$$$$$$$$$$$$$$$$$-$$$$$$$$$++++++++++++++++---------$------$---------------;;;;;;;;$;;;;;;>------",
";;;;;;;;;;;;;;;;>>>>>>>>;;;;;;;;;;;;;;;;;;;;;;;;$$$$$$$$-$$$$--$$$$-$$$$-$$$$$$-++++++++++++++++$$$-------------$%$$%$$3$$$$$$$$;;;;;;;;$;;;;;;>------",
";;;;;;;;;;;;;;;;>>>>>>>>;;;;;;;;;;;;;;;;;;;;;;;;$$$$$$$$$$$$$$$$$$$$$$$$$$$$$$$$+++++++++++++++++$$$----------$$$%$$$$$3$$$$$$$$;;;;;;;;$;;;;;;>------",
";;;;;;;;;;;;;;;;>>>>>>>>;;;;;;;;;;;;;;;;;;;;$$$;$$$$$$$$$$$$$$$$$$$$$$$$$$$--$$$++++++++++++++++++$$------------$$$$%%$3$$$$$$$%;;;;;;;;$;;;;;;>------",
";;;;;;;;;;;;;;;;>>>>>>>>;;;;;;;;;;;;;;;;;;;;$$;;$$$$$$$$$$$$$$$$$$$$$$$-$$$$$$$$+++++++++++++++++$$$$-----------$$$$%%$3$$$$$$%%;;;;;;;;$;;;;;;>------",
";;;;;;;;;;;;;;;;>>>>>>>>;;;;;;;;;;;;;;;;;;;;$$$$$$$$$-$$$$$$$$$$$$$$$$$-$$$$$$$$++++++++++++++++$$$$$$$$--------$%$$%%%3$%%%%%%%;;;;;;;;$;;;;;;>------",
";;;;;;;;;;;;;;;;>>>>>>>>;;;;;;;;>>>>>>>>;;;;$$$$--$$$$$$$$$$$$$$$$$-$$$$$$$$$$$$++++++++++++++++$$$$$$$$--------$%%%%%%3%%%%%%%%;;;;;;;;$;;;;;;>------",
"$$$$$$$$;;;;;;;;--------------------------------$$$$$$$$$$$$$$$$++++++++++++++++$$$$$$$$$$$$$$$$$$$$$$$$+$$$$$$;----------------;;;;;;;;;;;;$$$$------",
";;;;;;;;;;;;;;;;--------------------------------$$$$$$$$$$$$$$$$++++++++++++++++$$$$$$$$$$$$$$$$$$$$$$$$+$$$$$$;----------------;;;;;;;;;;;;$$$$------",
";;;;;;;;;;;;;;;;--------------------------------$$$$$$$$$$$$$$$$++++++++++++++++$$--$$$$$$$$$-$$$$$$$$$$+$$$$$$;-------------$--;;;;;;;;;;;;;$$$------",
";;;;;;;;;;;;;;;;--------------------------------$$$$$$$$$$$$$$$$++++++++++++++++$$$$$$-$--$$$$$$$$$$$$$$+$$$$$$;--------------$-;;;;;;;;;;;;;;;;------",
";;;;;;;;>>>>>>>>--------------------------$----$$$$$$$$$$$$$$$$$++++++++++++++++$$-$$$$$$$$$$$-$$$$$$$$$+$$$$$$;----------------;;;;;;;;;;;;;;;;--$---",
";;;;;;;;>>>>>>>>--------------------------$-----$$$$$$$$$$$$$$$$++++++++++++++++$$$$$$$$$$$$$$$$$$$$$$$$+$$$$$$;----------------;;;;;;;;;;;;;>>>------",
";;;;;;;;>>>>>>>>--------------------------------$$$$$$$$$$$$$$$$++++++++++++++++$$$$$$$$$$$$$$$$$$$$$$$$+$$$$$$;------------$---;;;;;;;;;;;;>>>>------",
">>>>>>>>>>>>>>>>--------------------------------$$$$$$$$$$$$$$$$++++++++++++++++$$$$$$$-$$$$$$$$$$$$$$$$+$$$$$$;$$$$$$$$$-------;;;;;;;;;;;;>>>>------",
";;;;>>>>>>>>>>>>-----------$--------------------$$$$$$$$$$$$$$$$++++++++++++++++$$$$$$$$$$$$$$$$+$$$$$$$$$$$$$$$$$$$$$$$----$---$$$$;;;;$$;;>;;;------",
";;;;>>>>>>>>>>>>--------------------------------$$$$$$$$$$$$$$$$++++++++++++++++$$$$$$---$$$$$$$$$$$$$;;$$$$$$$$$$$$$$$$----$---$$$$;;;;$$;;>>;;------",
";;;;>>>>>>>>>>>>--------------------------$----$$$$$$$$$$$$$$$$$++++++++++++++++$$$$$$$$$$$$$$$-$$$$$;;;$$$$$$$$$$$$$$$$--------$$$;;;;;$;;>>>;;------",
";;;;>>>>>>>>>>>>--------------------$$----------$$$$$$$$$$$$$$$$++++++++++++++++-$$$$$$$$$$$$$$-$$$$;;;;$$$$$$$$$$$$$$$$--------$$;;;;;;$;;>>>>;------",
">>>>;;;;;;;;;;;;----------------$---------------$$$$$$$$$$$$$$$$++++++++++++++++$-$$$$$$$$$$$$$$$$$$;;;;;;;;;;;;----------------;;;;;;>>;;>>>>>>------",
">>>>;;;;;;;;;;;;----------$$----------$---------$$$$$$$$$$$$$$$$++++++++++++++++$$$$$$$$$$$$$$$$$$$;;;;;;;;;;;;;-------------$--;;;;;>>>;;>>>>>>------",
">>>>;;;;;;;;;;;;------------------------$-------$$$$$$$$$$$$$$$$++++++++++++++++$$$$$$-$$$$$$$$$$$;;;;;;;;;;;;;;-----------$----;;;;>>>>;;>>>>>>------",
">>>>;;;;;;;;;;;;------------------------------$$$$$$$$$$$$$$$$$$++++++++++++++++$$$$$$$$$$$$$$$$;;;;;;;>;;;;;;;;----$$----------;;;;>>>>;;>>44>>>>>>>>",
"-------->>>>>>>>;;;;;;;;;;;;;;;;++>>>>>>>>>>++++++++----+++++++>+++++++++++++>>+--------++++-----$$-----+$--------------;;;;>>>>>>>>>>>>:4444444---->>",
"-------->>>>>>>>;;;;;;;;;;;;;;;;++>->>>>>>>>++++++++----+++++++>+++++++++++++>>+--------++++-----$$-----+$--------------;;;;>>>>>>>>>>>>:4444444---->>"
};
