/* XPM */
static char *result[] = {
/* columns rows colors chars-per-pixel */
"50 50 131 2 ",
"   c #D77C1F",
".  c #D87F1E",
"X  c #CD7E2F",
"o  c #D37620",
"O  c #D67B21",
"+  c #D87C22",
"@  c #CC7E33",
"#  c #DB841E",
"$  c #DD8B1C",
"%  c #F49D0F",
"&  c #E08E1C",
"*  c #EF9717",
"=  c #E3931B",
"-  c #E7991A",
";  c #EC9D1A",
":  c #F49E16",
">  c #F29D1B",
",  c #F6A00B",
"<  c #F6A90F",
"1  c #F8A90F",
"2  c #EEA31C",
"3  c #F6A414",
"4  c #FAA911",
"5  c #F5A21B",
"6  c #F9A61B",
"7  c #F5AA1B",
"8  c #FBAB1C",
"9  c #F7BA16",
"0  c #FDBC15",
"q  c #F5B61B",
"w  c #FAB41C",
"e  c #FBBB1B",
"r  c #DA8423",
"t  c #DB8B21",
"y  c #D4832A",
"u  c #D4892E",
"i  c #DD9726",
"p  c #D59429",
"a  c #CC8334",
"s  c #C78238",
"d  c #C9863C",
"f  c #DC9D32",
"g  c #DB9F3B",
"h  c #E38B21",
"j  c #E98E22",
"k  c #EB9422",
"l  c #E59A21",
"z  c #E89E22",
"x  c #E99E2D",
"c  c #E09F34",
"v  c #CFAA3E",
"b  c #DFA235",
"n  c #DDAA39",
"m  c #EAA424",
"M  c #EFA925",
"N  c #E6A32D",
"B  c #EDA52B",
"V  c #F1A726",
"C  c #F5AC22",
"Z  c #FAAD22",
"A  c #E6B72E",
"S  c #F7B323",
"D  c #FAB424",
"F  c #FBBD25",
"G  c #F6B52A",
"H  c #F9B42A",
"J  c #F6B92D",
"K  c #FABB2D",
"L  c #E1A231",
"P  c #E9AD37",
"I  c #EEB030",
"U  c #EFBB35",
"Y  c #E8B83B",
"T  c #F7BD31",
"R  c #FDBE32",
"E  c #FBC11B",
"W  c #F7C325",
"Q  c #FCC223",
"!  c #FACA25",
"~  c #FCC42D",
"^  c #FDCC2A",
"/  c #FED32D",
"(  c #EFC131",
")  c #FEC332",
"_  c #FECB33",
"`  c #F4C73D",
"'  c #F1CB3D",
"]  c #FACE3E",
"[  c #FFD533",
"{  c #FFDA33",
"}  c #FCD33A",
"|  c #FFD939",
" . c #BE8E44",
".. c #BA874E",
"X. c #A58558",
"o. c #B58555",
"O. c #B5885B",
"+. c #BE9457",
"@. c #BF955C",
"#. c #B9995F",
"$. c #9F846F",
"%. c #AD8761",
"&. c #AF8966",
"*. c #A3876F",
"=. c #AB8C6D",
"-. c #B59464",
";. c #BC9B63",
":. c #B39368",
">. c #A18671",
",. c #A48975",
"<. c #A98D72",
"1. c #A58A78",
"2. c #A98E79",
"3. c #AD9070",
"4. c #C88441",
"5. c #C0874B",
"6. c #CC9A4C",
"7. c #D39E41",
"8. c #C1965B",
"9. c #D5AB4E",
"0. c #DDB548",
"q. c #CCA455",
"w. c #CFAC52",
"e. c #C4A25C",
"r. c #E3AE40",
"t. c #E2B344",
"y. c #EBC143",
"u. c #F1CB43",
"i. c #FAD54C",
"p. c #FBD757",
"a. c #FFDD56",
/* pixels */
",.,.,.,.,.>.>.1.2.,.,.,.,.,.,.,.,.<.,.,.,.,.,.2.,.,.,.,.,.,.,.,.2.,.,.2.2.,.1.1.,.>.1.1.>.1.1.1.>.1.",
"1.,.,.,.,.1.1.1.,.,.,.,.,.,.,.,.,.,.,.,.,.,.,.,.,.,.,.,.2.,.,.,.,.,.,.,.1.,.,.1.,.,.>.,.1.1.>.1.1.>.",
",.,.,.>.,.,.1.,.,.,.,.,.,.,.,.,.,.,.,.3.2.,.2.,.2.,.,.,.,.,.,.2.2.,.,.2.1.,.,.1.1.>.1.,.1.>.1.1.>.>.",
",.,.,.,.,.,.,.1.,.,.2.,.,.,.,.2.,.,.1.1.,.2.,.,.,.,.,.2.2.,.,.,.,.2.,.,.1.,.>.,.1.,.1.1.1.1.>.>.1.1.",
",.>.,.,.,.,.,.1.2.,.2.,.,.,.,.,.1.1.1.2.,.2.2.2.,.,.,.,.,.2.,.,.2.,.2.,.,.,.1.,.1.1.1.>.1.,.,.1.>.1.",
",.,.,.,.,.,.,.1.,.2.2.,.,.,.,.,.,.,.1.1.2.2.2.,.,.,.,.,.,.,.,.,.,.,.,.2.,.,.,.,.,.1.,.,.1.,.,.1.1.1.",
">.,.,.>.,.1.,.1.2.,.2.,.2.,.,.,.,.,.,.3.2.2.2.2.,.,.,.*.,.,.2.,.,.2.,.2.,.,.,.,.>.,.,.,.1.>.1.>.1.1.",
">.,.,.,.,.,.,.,.,.,.,.,.,.,.,.,.,.,.2.,.2.,.,.,.,.,.,.,.,.,.,.,.,.,.2.,.,.,.,.,.,.1.>.1.1.,.1.,.1.>.",
",.,.,.,.,.,.,.,.,.2.,.,.,.2.,.,.2.,.,.2.1.2.3.,.,.,.,.,.,.<.1.,.,.,.2.,.,.,.,.,.,.,.1.>.,.1.1.>.1.1.",
",.,.>.,.,.2.,.2.2.,.,.,.,.2.2.,.,.,.,.,.,.1.1.2.,.,.,.,.2.2.,.,.,.2.,.,.,.,.,.$.,.,.1.>.>.>.1.1.>.1.",
",.,.,.,.,.,.2.2.,.,.,.2.2.,.,.2.,.2.,.2.1.2.1.,.,.,.,.,.<.,.1.,.,.,.2.,.,.,.,.,.,.,.,.>.1.1.1.>.1.1.",
",.,.,.,.,.,.,.,.,.,.2.,.,.,.,.,.,.,.,.2.,.2.2.,.,.,.2.,.1.2.,.,.,.2.,.,.,.,.,.,.,.,.,.,.,.,.>.,.>.>.",
">.,.,.,.,.,.,.,.2.2.,.,.,.2.2.,.,.,.,.2.,.3.1.1.,.,.,.,.1.1.,.,.2.,.,.,.1.,.,.,.,.,.,.,.>.,.>.>.1.1.",
",.,.,.,.,.,.,.2.,.2.2.,.,.,.,.,.,.2.2.-.0.' u.y.b i p  .:.,.,.,.,.,.,.2.,.,.,.>.,.>.,.,.,.>.,.,.1.>.",
",.,.,.,.,.,.,.,.2.2.,.,.<.,.,.2.,.,.;.' / ^ / [ | ` K S n -.,.,.,.,.,.,.,.1.,.,.,.>.,.>.>.,.,.,.>.1.",
",.,.,.,.,.2.2.,.,.,.,.,.,.,.,.,.1.e.} ^ E E 9 e ^ a.p.! W U #.,.,.,.,.,.,.1.,.,.,.,.,.,.,.,.>.1.>.1.",
",.,.1.2.,.,.,.2.,.2.,.,.,.,.,.,.3.' ! 9 / { { / E Q i.] F ^ v >.1.,.2.,.,.<.*.,.,.,.,.$.>.,.,.>.,.,.",
",.,.,.2.,.,.,.,.,.1.,.,.,.,.,.,.9.~ 9 / { [ / { ^ 9 W ) G F A X.*.,.,.,.,.1.,.,.,.,.,.,.,.>.,.,.,.,.",
",.2.<.,.2.,.2.,.2.,.,.,.,.,.,.=.y.e ^ { [ ^ ! { { ^ q ) J S H r.-.,.,.,.,.,.,.,.$.,.,.,.,.,.,.,.,.>.",
",.,.,.,.,.2.,.,.,.2.1.1.3.,.,.;.( E { { [ Q E [ { | F F J 7 H P @.,.1.1.,.1.,.,.,.,.,.,.,.,.,.,.,.>.",
",.,.,.,.,.,.,.,.,.,.,.2.,.,.<.w.q / { [ [ [ K [ [ _ Q F J M q L 6.,.,.,.,.,.,.,.,.,.,.*.,.,.,.,.1.,.",
",.,.,.,.,.,.,.,.,.,.,.,.,.,.<.t.9 { { ^ [ ~ C [ ) ~ ~ F J M 2 m 7.,.,.1.,.,.,.,.,.,.,.,.>.,.,.$.$.$.",
",.,.,.,.,.,.,.2.,.,.,.2.,.,.=.t.Q [ / W } e w _ F G ) H T m - m b ,.,.,.,.,.,.,.,.,.$.,.>.$.$.,.>.$.",
",.,.,.,.,.,.,.,.,.,.2.,.,.,.;.Y ^ [ [ ~ _ 7 w T S ~ ) S J m = - z ,.,.,.,.,.,.,.,.,.$.,.,.,.,.,.1.1.",
",.<.,.,.*.,.,.,.,.,.<.1.,.,.q.T ^ [ [ _ w 3 7 Z H ) ) Z Z - $ = h ,.,.,.,.,.,.,.,.,.$.$.>.>.>.,.>.1.",
",.1.,.,.,.,.,.,.,.2.1.,.,.,.q.P F Q _ _ < 3 3 3 R _ ~ Z 5 = $ & $ ,.,.,.,.,.>.,.,.,.$.$.>.,.,.>.1.$.",
",.$.,.,.,.,.,.>.,.,.,.1.,.,.8.N 8 w e F < 4 % 4 ) R Z 6 > & $ & t ,.,.,.,.,.,.,.,.,.>.,.,.,.,.,.$.>.",
",.,.,.,.,.,.,.,.,.2.1.,.2.,.:.c 5 8 8 w 3 % % 6 H Z 6 6 V $ # $ u ,.,.,.,.,.*.,.,.,.,.$.,.>.,.,.1.$.",
",.,.,.,.$.,.,.,.,.,.1.1.<.1.<.g : 8 8 w 6 2 > 5 8 6 8 6 > + . h d ,.,.,.,.,.>.,.,.,.,.,.>.,.>.,.$.1.",
",.,.,.,.,.,.,.,.,.,.,.<.1.<.<.6.* 6 8 8 6 Z 8 8 8 8 6 6 = o + y ..,.,.,.,.,.,.,.,.$.$.,.,.,.,.>.1.>.",
"$.,.,.2.,.,.,.,.,.,.,.,.,.1.<.8.V 6 8 8 8 8 8 8 8 8 > 6 h o + X o.,.,.,.>.,.,.,.$.,.,.>.>.,.1.$.$.$.",
",.,.,.1.,.,.1.<.1.<.,.,.,.,.>.=.N > 6 8 8 8 6 8 8 5 > > +   + s %.,.,.,.,.,.,.,.>.,.>.,.,.>.$.$.1.$.",
",.,.,.,.,.,.,.<.,.,.,.,.,.,.,.,. .5 : 8 8 8 8 8 6 > 5 k o   O O.*.1.,.,.,.>.>.>.,.>.>.,.>.,.>.>.>.>.",
",.,.,.,.,.,.$.,.,.,.,.,.,.,.2.,.=.x 6 > 8 8 8 6 ; 5 Z h   + 4.,.<.,.,.,.,.,.>.,.>.,.,.>.>.>.>.>.>.>.",
",.,.,.,.,.$.$.,.,.,.,.,.,.,.,.2.<.+.C 6 > 5 : : 6 Z j o + a &.,.,.,.,.,.,.>.,.>.>.<.,.>.>.>.>.>.>.>.",
"*.,.,.,.,.,.,.,.,.,.,.,.,.,.,.,.,.,.8.V 8 Z C Z 6 j O   s &.,.,.,.,.,.,.,.,.,.,.>.>.>.>.>.>.>.>.>.>.",
",.,.,.,.,.,.,.,.,.,.,.,.,.,.,.,.2.,.,.-.v N M N u @ s ..=.,.<.,.>.,.>.,.,.,.>.,.>.>.>.>.>.>.>.>.>.$.",
",.,.,.$.,.,.,.,.,.,.,.,.,.,.,.,.,.,.,.,.,.,.,.,.,.,.,.,.>.,.,.,.>.,.,.,.,.,.,.,.,.>.>.>.>.>.>.>.$.>.",
",.,.$.,.,.,.,.*.,.,.$.,.,.,.,.,.,.,.,.,.,.,.,.,.,.,.>.,.,.,.,.,.,.,.>.,.>.,.>.,.>.>.>.>.>.>.>.>.>.$.",
"$.,.,.,.,.,.,.,.,.,.,.,.,.,.,.,.,.,.,.,.2.,.,.,.,.,.,.>.,.>.,.,.,.,.,.,.,.,.,.>.>.>.>.>.>.>.>.>.$.>.",
"*.,.,.$.,.,.,.,.,.,.,.,.,.,.$.,.,.,.,.,.,.,.,.,.,.,.,.,.,.,.,.,.,.,.,.,.,.>.,.>.,.>.>.*.$.>.>.>.>.$.",
",.$.,.,.$.,.*.,.*.,.$.,.,.,.,.,.,.,.,.,.,.,.,.,.,.,.,.,.,.,.>.,.,.,.>.>.,.,.>.,.,.>.>.>.>.$.$.>.$.>.",
",.$.$.,.,.,.,.,.,.,.,.,.*.,.,.,.>.,.,.,.,.,.,.,.,.$.>.>.$.,.,.,.,.>.>.,.>.,.,.>.>.>.*.>.>.>.$.>.$.>.",
"$.,.,.,.$.,.$.,.,.,.,.,.,.,.,.,.,.,.,.,.,.,.,.>.,.,.*.,.,.,.,.>.>.,.,.,.>.>.>.>.>.*.>.>.>.$.>.$.>.$.",
"$.$.,.,.,.$.,.$.,.,.,.,.,.,.,.,.>.,.,.>.,.,.,.>.>.>.,.>.,.,.>.,.>.,.,.>.>.>.>.>.>.$.>.$.$.$.>.>.>.>.",
",.,.,.$.,.,.,.,.*.,.,.,.,.,.,.,.,.,.,.*.,.,.>.>.,.,.,.,.,.*.,.>.,.,.,.>.>.,.,.>.>.*.$.$.$.>.$.>.$.>.",
"$.,.,.$.,.$.,.,.,.,.,.$.$.,.$.,.,.,.,.,.,.,.,.,.,.,.,.,.,.,.,.$.>.,.>.,.,.>.,.>.>.$.$.>.$.>.>.$.$.>.",
"$.$.,.,.,.$.,.,.$.,.,.,.,.,.,.,.,.>.,.,.,.,.,.*.,.,.,.>.$.,.,.,.,.,.>.,.,.>.,.>.>.$.>.>.$.$.>.$.>.>.",
",.$.,.,.$.$.,.,.,.,.,.*.,.,.,.,.,.$.,.,.,.,.,.*.,.,.,.,.$.,.,.,.>.,.>.,.,.>.,.>.>.$.$.>.$.*.>.$.>.>.",
"$.,.,.,.,.,.$.,.,.,.,.,.$.,.,.,.,.,.,.,.,.2.,.,.$.,.,.,.$.,.$.,.,.>.*.,.>.,.,.>.>.*.>.>.>.$.$.$.$.$."
};
