/* XPM */
static char *result[] = {
/* columns rows colors chars-per-pixel */
"50 50 112 2 ",
"   c #9E6A38",
".  c #DC7F06",
"X  c #D0761D",
"o  c #D37B1D",
"O  c #D87F1D",
"+  c #CB7624",
"@  c #CF7C25",
"#  c #CE7E2C",
"$  c #D17720",
"%  c #D57B21",
"&  c #D97E21",
"*  c #CC7E33",
"=  c #DC810D",
"-  c #D98214",
";  c #DE8914",
":  c #D6821B",
">  c #DA841D",
",  c #DD8B1B",
"<  c #DE901C",
"1  c #E08B13",
"2  c #E18E1B",
"3  c #E1911A",
"4  c #E9951D",
"5  c #E69D1E",
"6  c #EDA21B",
"7  c #F4A61C",
"8  c #F2AA1A",
"9  c #DB8220",
"0  c #D78C26",
"q  c #DA8C23",
"w  c #D3822B",
"e  c #D68B2A",
"r  c #C98130",
"t  c #CD8934",
"y  c #C7813F",
"u  c #C9873B",
"i  c #D08B30",
"p  c #D99F3A",
"a  c #E38223",
"s  c #E08B22",
"d  c #E89721",
"f  c #E59F25",
"g  c #E89E23",
"h  c #E3982E",
"j  c #E19930",
"k  c #C9A230",
"l  c #DCA438",
"z  c #EEA121",
"x  c #ECAB25",
"c  c #E7A42D",
"v  c #EAAC2F",
"b  c #F1AC21",
"n  c #F9AC20",
"m  c #F1AC2C",
"M  c #EEBB2E",
"N  c #FBB324",
"B  c #FDB926",
"V  c #FEBE29",
"C  c #E4A333",
"Z  c #E4A939",
"A  c #EDBB31",
"S  c #ECB738",
"D  c #F0B63C",
"F  c #FFC129",
"G  c #FEC730",
"H  c #F4C13B",
"J  c #FFCF38",
"K  c #9E804C",
"L  c #B6944D",
"P  c #AD825D",
"I  c #BA8755",
"U  c #BB8853",
"Y  c #B58A5D",
"T  c #BB935C",
"R  c #BE985B",
"E  c #9F846F",
"W  c #AE8966",
"Q  c #AC8C6D",
"!  c #B18860",
"~  c #B59265",
"^  c #B5966C",
"/  c #A18671",
"(  c #A48975",
")  c #AA8D72",
"_  c #A58A78",
"`  c #A98E79",
"'  c #C58944",
"]  c #C08949",
"[  c #CF9741",
"{  c #CE9B44",
"}  c #CD9E4B",
"|  c #C09555",
" . c #D6A445",
".. c #DAA641",
"X. c #D7AB4C",
"o. c #C6A053",
"O. c #CEA556",
"+. c #CDA95E",
"@. c #E5A54A",
"#. c #F5C243",
"$. c #F7CC47",
"%. c #FFD544",
"&. c #F5D657",
"*. c #FDD55A",
"=. c #FFD95E",
"-. c #EED46B",
";. c #FFEB79",
":. c #F1CE86",
">. c #F3D081",
",. c #FDE794",
"<. c #FAF0D0",
"1. c #FFFAD6",
/* pixels */
"( ( ( ( ( _ _ _ ( ( ( ( ( ( ( ( ( ( ( ( ( ( ( ( ( ` ( ( ( ( ( ( ` ( ( _ ( _ _ _ _ _ _ / _ _ _ _ / / ",
"_ ( ( ( ( _ E _ ( ` ( ( ` ( ( ( ( ` ( ( ( ( ( ( ( ( ` ( ( ( ( ` ( ( ( _ _ ( / _ _ / _ _ / _ / _ / _ ",
"( ( ( / ( ( / _ ( ( ( ( ( ( ( ( ( ( ( ` ( ` ( ` ( ( ( ( ( ( ( ` ( ( ( ( ( ( ( ( _ / / _ / _ / _ _ / ",
"( ( ( ( ( _ _ ( ( ( ` ( ( ( ( ( ` ( ( ( ` ( ` ( ` ( ( ( ( ( ( ( ` ` ( ` ` ( / _ _ _ _ _ _ _ _ _ _ _ ",
"( ( ( ( ( ( ( _ ( ` ( ( ( ( ` ( ( ( ( ` ( ` ` ( ( ( ( ( ` ` ( ( ( ` ( ( ( ( ( ( _ _ _ _ / _ _ / / _ ",
"/ ( ( ( ( ( _ _ ` ` ` ( ( ( ( ( ( ( ) ( ` ` ` ` ( ( ( ( ( ( ( ( ` ( ( ` ( ( ( ( ( _ ( ( ( _ _ / _ _ ",
"/ ( ( / ( ( / ( ( ( ` ( ( ( ( ( ( ( ` ` ` ` ( ( ( ( ( ( ( ( ( ( ( ` ( ( ( ( ( ( / ( ( ( ( ( _ _ _ / ",
"/ ( ( ( ( _ ( ( ` ( ( ( ( ( ( ( ( ( ( ` ( ` ` ( ( ( ( ( E ( ` ( ( ( ` ` ( ( ( ( / ( ( ( ( _ / _ _ _ ",
"( ( ( ( ( ( ( ) ( ` ( ( ( ` ) ( ) ( ` _ ) _ _ ) ( ( ( ( ( ( ( ( ( ` ( ( ( ( ( E ( ( ( / / _ _ / / _ ",
"( ( ( ( ( / _ _ ( _ ( ( ( ` ( ( ( ( ( ( ( ` _ _ ( ( ( ( ` ` ` ( ( ` ( ( ( ( ( ( ( ( ( / / / _ _ _ _ ",
"( ( / ( ) _ _ _ ( ( ` ( ( ( ` ( ( ( ( ` ( ` ) _ ( ( ( ( ( ( ( ( ( ( ( ( ( ( ( ( ( ( ( ( _ _ _ / _ _ ",
"( ( ( ( ( _ ) _ ( ) _ _ ( ( ( ` ( ` ( ` ( ` _ _ ( ( ) ( ` ` ( ( ( ` ( ` ( ( ( ( ( ( ( ( ( ( _ / / / ",
"/ ( / ( _ ) ( ( ` ` ( ( ( ` ( ( ( ( ` ( _ _ ) _ _ / ) _ ( ( ( ( ( ( ( ( ( ( ( ( ( ( ( ( ( / ( ( _ _ ",
"( ( ( ( / _ ) _ ` ( ` ( ( ( ` ( ( ( ` ` ) ^ o.X. . .[ ] T Q ( ( ( ` ( ` ` ( ( ( ( / ( ( / ( ( / / / ",
"( ( ( ) _ ) _ _ ( ` ( ( ( ` ( ( ( ( ` ( K A A H c < q 0 e ' W ( ( ( ( ( ( ( ( ( ( / / ( / ( / ( _ / ",
"( ( ( _ _ ( / _ ` ( ( ( ( ( ( ( ( ) ) L k %.*.D < - , < , < u W ( ( ` ( ( ( ( ( ( ( ( / ( / ( ( / _ ",
"( ( ( ` ( ( ` ( ` ( ( ( ( ( ( ` ( ) +.&.,.,.-.j 1 2 3 3 3 3 , i Q ( _ ( ( ( ( ( ( ( ( / ( / ( ( ( / ",
"( ( ( ` ( ( ( ` ( ( ( ( ( ( ( ( _ ^ -.,.1.<.@.2 1 2 3 3 1 3 , 0 Y ( ( ( ( ( ( ( / ( ( ( / / _ ( / / ",
"( ` ( ( ( ` ( ( ( ` ( ) ( ( ( ( ) O.$.=.,.:.. ; 3 3 2 , < 3 2 , ] ) ( ( ` ( ( ( ( ( ( ( ( _ ( ( ( ( ",
"( ( ( ( ) ( ( ( ` ( ( ` ( ( ( ( ~ S G J #.j . 2 3 2 , , 3 3 < , t ( _ ( ( ( ( ( ( / ( ( _ / _ ( ( / ",
"( ( ( ( ( ( ( ( ( ( ( ( ( ( ( ( R F F F x ; , 2 < , ; < < < , 2 < ( ( ( _ ( ( ( ( ( ( ( ( / ( ( / ( ",
"( ( ( ( ( ( ( ` ( ( ( ( ( ( ( ( } F B N z , , , 2 < , < 3 , , 3 < ( ( ( ( ( ( ( ( ( ( ( ( / / / / ( ",
"( ( ( ( ( ( ( ( ( ( ` ( ( ` ( ( l F B N g : , , 2 , : < 3 < ; 3 < ( ( ( ) ( ( ( ( ( / ( / E ( ( ( / ",
"( ( ( ( ( ( ( ( ` ( ( ` ( ( ( ( Z F B N 3 o , , , , : ; 3 1 2 3 < ( ( ( ( ( / ( / ( / / / ( ( / ( / ",
"( ` ( ( ( ( ( ( ( ( ` ) ( ( ( ` m B B N 3 X s 3 , - : : : , 3 , , / ( ( ( ( ( ( ( ( E E / / / / / / ",
"( ( ( ( ( ( ( ( ( ( ( _ ( ( ( ` m N N N 3 o s 3 : : : O : , 3 2 ; _ ( ( ( ( ( ( ( ( / E / ( ( ( ( / ",
"( ( / ( ( ( ( E ( ` _ _ ( ( ` ( c n n n 2 o & > , > 9 O : , 3 2 , _ ( ( ( / ( ( ( ( E ( ( ( ( ( ( / ",
"( / ( ( ( ( ( ( ( ( ` ( ( ( ( ` p n 7 7 2 $ & > , > o : > , , 2 , ( ( / / ( / ( ( ( ( / ( / ( ( / / ",
"( ( ( ( E ( ( ( ( ( ( ( _ _ ) _ { 7 7 7 s % & 9 > > O O O > 2 2 : _ / / ( / ( ( ( / ( ( / ( ( ( ( / ",
"( ( ( ( ( ( ( ( ( ( ( ` _ ( ( ( | z 7 7 4 % o & 9 > > O > > > > 9 ( _ _ ( ( ( ( / ( / ( ( ( / / / / ",
"( ( ( ` ( ( ( ( ( ( _ ( ) ( _ ) ~ z 7 7 4 > $ % % & 9 & 9 > > 9 w _ ( ( ( ( ( ( E ( ( E ( / E E / _ ",
"/ ( ( ( ( ( ( ) ) ( _ / ( ( _ _ Q u 5 7 5 2 $ % O & % & & 9 > 9 * ( ( ( ( ( ( / ( ( / ( ( / / _ E E ",
"( ( ( ( ( ( ( ( ( ( ( ( ( ( ( ( ) R z 6 6 6 $ X % & & & & 9 O @ I ( ( ( ( ( / / ( ( / ( / ( / / / / ",
"( ( ( ( ( E ( ( ( ( ( ( ( ( ( ) ) ) p 6 8 6 q $ $ & % & % O o @ Q ` ( ( ( / / / / / ( / / / / / / / ",
"( ( ( ( ( ( E ( ( ( ( ( ( ( ( ( ` ( ~ l 8 6 x q $ $ % & a O w U / ( ( ( ( ( / ( / ( / / / / / / / / ",
"( ( ( ( ( ( ( ( ( ( ( ( ( ( ) ( ( ( ( ~ l x 8 z 9 % % % + * U ( / ( ( ( ( ( ( ( / ( / / / / / / / E ",
"( / ( ( ( ( ( ( ( ( ( ( ( ( ( ( ( ( ( ( ~ } l M j w @ *   P ( _ / ` ( ( ( / ( / / / / / / / / / E / ",
"( ( ( ( ( ( ( ( ( ( / ( ( ( ( ( ( ( ( ( ( ( / ( ` ` ( ( ( ( ( ( / / ( ( ( ( ( ( / / / / / / / / / E ",
"/ E ( ( ( ( ( E ( ( ( ( ( ( ( ( ( ( ( ( ( ( ( ( ( ( / ( ( ( ( ( ` ( ( ( ( ( / ( Q / / / / / / / / E ",
"( ( ( E ( ( ( ( ( ( ( ( / ( ( ( ( ( _ ( ( ( ( ( ( ( ( / / ( / ( / ) ( ( ( ( ( / / / / / / / / / E / ",
"/ ) / ( / ( ( ( ( ( ( ( ( ( / ( ( ( ( ( ( ( ( ( ( / ( ( ( / ( ( ( ( ( ( ( / ( / ( / / / / / / / / E ",
"( / / / ( ( / / ( ( ( ( / ( ( ( ( ) ( ( ( ( ( ( ( ( ( ( ( ( ( ( ( ( / ) ( ( / ( ( / / / / E / E E / ",
"/ / / ( / ( ( ( ( ( / ( / ( ( ( ( / ( ( ( ( ( ( ( / / / / ( ( / ( / / / / ( ( / / / / / / / E / / / ",
"/ ( ( / ( / / ( ( / ( ( ( ( ( ( ( ( ( / ( ( ( / / ( ( / ( ( ( ( / ( ( ( / / / / / / / / / E / E E / ",
"E / ( / ( / / / ( ( ( ( ( ( ( ( / ( ( ( ( ( / / ( ( / ( ( ( / / / ( ( / / / / / / / E E E / / / / E ",
"/ ( ( / / ( ( ( ( ( ( / / ( ( ( ( ( ( / ( / ( / ( / ( / ( / / ( ( / ( / / ( ( / / E / E E E / E / E ",
"/ ( ( / ( / / ( / ( ( ( / ( / ( ( ( ( ( ( ( ( ( / ( ) ( / ( ( / / ( ( / ( / / / / E / / E / E / E / ",
"/ / ( / ( / ( ( / ( ( / ( ( ( ( ( / ( ( ( ( ( ( ( ( ( ( ( ( / ( ( / ( ( ( / / / / / E / E E / E / / ",
"/ / / ( / E ( ( ( ( ( / ( ( ( / ( / ( ) ( ( ( ( ( ( ( / ( / ( / / ( / ( / ( / / / / / / / / E / E / ",
"/ / / ) ) ( E ( ( ( ( ( ( / / ( ( ( ( ( ( ( ( / / ( ( ( / ( ( / ( / ( / ( / / ( / / / / / / / / E / "
};
