/* XPM */
static char *result[] = {
/* columns rows colors chars-per-pixel */
"50 50 107 2 ",
"   c #D67B1F",
".  c #DA7F1E",
"X  c #D67D21",
"o  c #D97D21",
"O  c #C77F32",
"+  c #A77D52",
"@  c #DD851F",
"#  c #DF8B1C",
"$  c #F59B0E",
"%  c #F89E0E",
"&  c #E18E1B",
"*  c #E3951B",
"=  c #E8931F",
"-  c #ED9E1D",
";  c #F49C14",
":  c #F89F10",
">  c #F39D19",
",  c #EDA31E",
"<  c #F5A216",
"1  c #F8A615",
"2  c #F5A41B",
"3  c #F9A51B",
"4  c #F7AB1E",
"5  c #FBAA1D",
"6  c #D68127",
"7  c #DB8421",
"8  c #DB8B23",
"9  c #D3842C",
"0  c #D6892A",
"q  c #D99125",
"w  c #DA972A",
"e  c #CD8635",
"r  c #C68339",
"t  c #D68936",
"y  c #CF9437",
"u  c #CC913A",
"i  c #D59C3D",
"p  c #DF9F3B",
"a  c #E58F22",
"s  c #EA9322",
"d  c #ED9A23",
"f  c #DBA03E",
"g  c #EFA424",
"h  c #E6A02D",
"j  c #F4A526",
"k  c #F5AA23",
"l  c #FBAC21",
"z  c #F1A52C",
"x  c #F0AA28",
"c  c #F6B426",
"v  c #FAB325",
"b  c #FCB827",
"n  c #F6B32B",
"m  c #FAB52B",
"M  c #FCBB2D",
"N  c #E0A337",
"B  c #E5AC3E",
"V  c #EDB53D",
"C  c #FDBD32",
"Z  c #F1B63C",
"A  c #F2B93B",
"S  c #F8C124",
"D  c #FEC12B",
"F  c #FFC332",
"G  c #FFC835",
"H  c #FEC53B",
"J  c #B98A54",
"K  c #B4895D",
"L  c #BB945F",
"P  c #9F846F",
"I  c #AF8863",
"U  c #AC8C6E",
"Y  c #B38B65",
"T  c #B08F6B",
"R  c #AF906C",
"E  c #B59163",
"W  c #BD9660",
"Q  c #B19069",
"!  c #A18671",
"~  c #A48975",
"^  c #AA8D72",
"/  c #A58A78",
"(  c #A98E79",
")  c #AF9070",
"_  c #C48948",
"`  c #C69447",
"'  c #CD9944",
"]  c #CE9A4B",
"[  c #D39C43",
"{  c #C79754",
"}  c #CB9F55",
"|  c #C49B5D",
" . c #C99F5C",
".. c #D7AE45",
"X. c #DFAC47",
"o. c #D5A44B",
"O. c #D2A84F",
"+. c #DBAB4A",
"@. c #E3AD48",
"#. c #E4B141",
"$. c #EEB641",
"%. c #F0B443",
"&. c #F4BC43",
"*. c #FAC743",
"=. c #FEC841",
"-. c #FDCD4D",
";. c #F8C656",
/* pixels */
"~ ~ ~ ~ ~ ! / / / ~ ~ ~ ~ ~ ~ ~ ( ~ ~ ~ ~ ~ ~ ~ ~ ~ ~ ~ ~ ~ ~ ~ ~ / ~ / / ~ / / ~ ! / / / / ! ! / P ",
"/ ~ ~ ! ~ / ! / / ~ ~ ~ ^ ~ ~ ~ ~ ~ ( ~ ~ ~ ~ ~ ~ ~ ~ ~ ( ~ ~ ~ ( ~ ~ / / / ~ / ~ / / ! / ! / / / ! ",
"~ ~ ~ ~ ~ ~ / ~ ~ / ~ / ~ ~ ~ ~ ~ ~ ~ ~ ~ ( ( ~ ( ~ ^ ~ ~ ~ ~ ( ~ ~ ~ ~ ~ ~ / ~ ! / / / / / / / ! ! ",
"~ ~ ~ ~ ~ ~ / / ~ ~ ~ / ~ ~ ~ ~ ~ ~ ~ ( ( ( ~ ~ ~ ~ ~ ~ ( ~ ~ ~ ( ~ ^ ( ~ ~ ~ ~ / / / ! ! / / ~ / / ",
"~ ~ ~ ~ ~ ~ ~ / ~ ( ~ ^ ~ ~ ^ ( ~ ~ ~ ( ~ ( ~ ( ~ ~ ~ ~ ~ ( ~ ~ ( ~ ~ ~ / ! / ~ / / / ~ / ~ ~ ~ ! / ",
"/ ! ~ ~ ~ ~ / / ( ( ( ~ ~ ~ / ~ ~ ~ ( ~ ( ( ( ( ~ ~ ~ ~ ~ ~ ~ ~ ( ~ ( ~ ~ ~ ~ / / / ~ ! / ~ ~ ~ / / ",
"! ~ ~ ! ~ ~ / ~ ~ ~ ~ ~ ~ ~ ~ ~ ~ ~ ~ ( ( ( ( ( ~ ~ ~ ~ ~ ~ ( ~ ~ ~ ~ / ~ ~ ~ ~ ! ~ ~ ~ ~ ~ ~ / / / ",
"! ~ ~ ~ ~ ~ ~ ~ ( ~ / ~ ~ ~ ~ ~ ^ / ~ ( ( ~ ~ ~ ~ ~ ~ ~ ~ ~ ~ ~ / ( ~ ^ ~ / ~ ~ ~ ~ ~ ~ ~ / ! / / ! ",
"~ ~ ~ ! ~ ~ ( ~ ~ ~ ~ ( ~ ~ ~ ~ ~ ~ ~ ( ( ~ ( ( ~ ~ ~ ~ ~ ( ~ ~ ~ ( ~ ~ ~ ~ ~ P ~ ~ ~ ~ ! / ! ! / / ",
"~ ~ ~ ~ ~ ~ ~ ( ( ~ / ^ ~ / ( ~ ~ ~ ( ~ ~ ( ~ ~ ~ ~ ~ ^ ( ~ ( ~ ~ ~ ^ / ~ ~ ~ ~ ~ ~ ~ P / / / / ! / ",
"~ ~ ~ ~ ~ ~ ( ( ~ ~ ~ ~ ^ / / / ( ~ ~ ( ~ ( ( ~ ~ ~ ~ ~ ~ ~ ~ ~ ~ ( ~ ~ ~ ! ~ ~ ~ ~ ~ ~ / ~ / ! / / ",
"! ~ ~ ~ ~ ~ ~ ~ ~ ( ~ ~ ~ / ~ / ( ~ ~ ( ~ ( ( ~ ~ ~ ~ ~ ( ( ~ ~ ~ ( ~ ( ~ ~ ~ ~ ~ ~ / ~ ! ~ ! ~ ! ! ",
"~ ~ ~ ~ ~ ~ ( ~ ( ~ ~ ~ ~ ( ( / ~ ~ ( ~ ~ ( ( ~ ~ ~ / / ~ ( ~ ~ ^ / ~ ~ / ~ ^ ! ~ ~ ~ ~ ! ~ ~ ~ / / ",
"~ ~ ~ ~ ~ ^ ~ ~ ( ( ( ~ ~ ~ ) ~ ~ ~ ( )  .@.$.A A $.B i ` E ^ ~ ~ ~ ~ / ~ ~ / ~ ! ~ ~ ! ~ ~ ~ ! / ! ",
"~ ~ ~ ~ ~ ~ ~ ~ ~ ( ~ ~ ~ ( ~ ~ ~ ^ | Z F m v v m C H ;.*.S ..R ~ ~ ~ / ~ ~ ~ ~ ~ ! ~ ~ ~ ! ~ ! ! / ",
"~ ~ ~ ~ ~ ~ ~ ( ~ ( ~ ~ ~ ~ ~ ~ ^ O.H m 2 ; < < > > , M -.*.S V R ~ / ^ ~ ~ ~ ~ ~ ~ ~ ! ! ~ ! ~ / ! ",
"~ ~ ~ ~ ~ ~ ~ ~ ~ ~ ~ / ~ ~ ~ ~ o.H k ; k b D F C b < ; b =.C M B U ~ ~ ~ ~ ~ ~ ~ ~ ~ ~ ! ! ~ ~ ~ ~ ",
"~ ~ ( ( ~ ~ ( ( ~ / ~ / ~ ~ ~ W H j ; M F F F G F F F v ; c H n m o.~ ~ ~ ( ~ ~ ~ ~ ~ ! / ! / ~ ~ ! ",
"~ ~ ~ ( ~ ^ ~ ~ ( ~ / / ~ ~ U V n > C F F F M k C F F F k > M c , x L ^ ~ ~ ~ ~ ! ~ ~ ~ / ~ ~ / ! ! ",
"^ ~ ~ ~ / / ~ ~ ( ~ ) ~ ~ ~ L F - m H F D H v > C F F D H 3 k M , , u U ~ ~ ~ ~ ~ ~ ~ ~ ! / ~ ~ / ~ ",
"/ ~ ~ / / ~ ~ ~ ^ / ~ ~ ~ R X.n 2 H F F M F F m F F C F F D < C x * q J ~ ~ ~ ~ ~ ~ ~ ! ~ ~ ~ ~ ! ~ ",
"~ ~ ~ ~ ! ~ ~ ( / ~ ~ ~ ~ W $.4 v F C n F F b k F D C M F F 4 v c & * y ~ ~ ~ ~ ~ ~ ~ ~ ! ~ ~ ! ! ! ",
"~ ~ ~ ~ ~ ~ ~ ~ ~ ~ ~ ~ ~ } Z > m F b 2 M G v > C F v > F G v 3 M # * w ~ ~ ~ ~ ~ ~ ! ~ ! ! ! ! ~ P ",
"~ ~ ~ ~ / ^ ~ ~ ( ~ ~ ( ~ +.n < C F F b b G 4 $ M H c b F G b 1 M & & q ~ ~ ~ ~ ~ ! ! ! ! ~ ~ ~ ~ ~ ",
"~ ~ ~ ~ ~ ~ ~ ~ ~ / ( / ~ #.c < F F F M j v < $ x j k F F F D 2 k # # 8 ~ ~ ~ ~ ~ ~ P P ! ! ! ~ ! ! ",
"~ ~ ~ ~ ~ ~ ~ ~ ~ ~ ~ ^ ~ B v < b M F F 3 $ : ; ; ; M F F F M 3 l & # 8 ~ ~ ! ~ ~ ~ ! ! ! ~ ~ ~ ~ ! ",
"~ ~ ~ ~ ~ ~ ~ P ~ ( / ^ ~ X.j ; 3 4 5 b 5 % : : % 1 C F F M 4 > l # 7 0 ~ ~ ! ~ ~ ! ! ~ ~ ~ ! ~ ~ ! ",
"~ P ~ ~ ~ ~ ~ ~ ~ ~ / ~ ~ [ j ; 3 3 5 4 3 ; $ : : 1 v l 4 5 < < 3 @ @ 9 ~ ! ~ ~ ~ ~ ! ! ~ ! ~ ~ ! ! ",
"~ ~ ~ ~ P ~ ~ ~ / ~ ~ ~ ~ { z > 3 5 5 5 3 ; ; ; $ 3 5 3 5 5 ; 3 > . 7 e ~ ~ ~ ~ ~ ~ ! ~ ! ~ ! ~ ! / ",
"P ~ ~ ( ~ ~ ~ ~ / ^ ~ / ~ T N 2 ; 5 5 5 5 4 4 4 4 5 5 5 5 5 ; 5 = o 7 _ ~ ! ~ ~ ~ ! ~ ~ ~ ~ ~ ! ! ! ",
"~ ~ ~ ~ ~ ~ ~ ^ ~ ~ ~ ~ ~ ^ ] l ; 5 5 5 5 3 5 5 5 5 5 5 5 3 3 k 8   t Y ~ ~ ~ ~ P ~ ! ! ! ~ ! ! ! ! ",
"~ ~ ( ~ ~ ~ ~ ~ ~ ~ ~ ~ ~ / T z 3 ; 5 5 5 5 5 5 3 5 5 5 3 ; l d o   + / ! ~ ~ ~ ! ~ ! ~ ! / ! ! ! ! ",
"~ ~ ~ ~ ^ P ~ ~ ~ ~ ~ ~ ~ ~ ~ { 4 < > 5 5 5 5 5 5 5 5 3 ; 2 l 7 o O ~ ~ ~ ! ! ! ~ ~ ~ ! ~ ! ~ ! ! ! ",
"~ ~ ~ ~ ~ P ~ ~ ~ ~ ~ ~ ~ ~ ( ~ f 4 < < 3 5 5 5 5 5 3 ; 4 l s X o I ~ ~ ~ ~ ! ~ ! ! ~ ! ! ! ! ! ! ! ",
"~ ~ ~ ~ ~ ~ P ~ ~ ~ ~ ~ ~ ( ~ ~ U f 4 2 > ; 3 3 ; ; ; 3 l d X o K ! ~ ~ ~ ! ~ ! ! ~ ! ! ! ! ! ! ! ! ",
"~ ~ ~ ~ ~ ~ ~ ~ ^ ~ ~ ~ ~ ~ ~ ~ ^ U ] v 5 4 4 2 3 l 5 4 a o r I ~ ~ ~ ~ ~ ~ ~ ~ ~ ! ! ! ! ! ! ! ! P ",
"~ ~ ~ ~ ~ ~ ~ ~ ~ ~ ~ ~ ~ ~ ~ ~ ~ ~ ^ E ' h 4 c j j s 0 r J U ~ ! ~ ! ~ ~ ~ ~ ~ ! ! ! ! ! ! ! ! P ! ",
"P ~ ~ ~ ~ ~ ~ P ~ ~ ~ ~ ~ ~ ~ ~ ~ ( ~ ~ ~ ~ ~ ~ ~ ~ ~ ~ ~ ~ ~ ~ ~ ~ ~ ~ ~ ~ ~ ~ ! ! ! ! ! ! ! ! ! P ",
"~ P ~ ~ ~ ~ ~ ~ ~ ~ ~ ~ ~ ~ ~ ~ ~ ~ ~ ~ ~ ~ ~ ~ ~ ~ ~ ~ ~ ~ ~ ~ ~ ~ ~ ~ ~ ~ ~ ! ! ! ! ! ! ! ! ! P ! ",
"~ ~ ~ P ~ ~ ~ ~ ~ ~ ~ ~ P ~ ~ ~ ~ ~ ~ ~ ~ ~ ~ ~ ~ ~ ~ ! ~ ! ~ ~ ~ ! ~ ~ ~ ! ! ~ ! ! ! ! ! ! ! ! ! P ",
"~ ^ ! ~ ! ~ ~ ~ ~ ~ ~ ~ ~ ~ ~ ~ ~ ~ ~ ~ ~ ~ ~ ~ ~ ~ ! ~ ! ~ ~ ~ ~ ~ ~ ! ! ^ ~ ! ^ ! ! ! ! ! ! ! ! P ",
"~ ! ! ! ~ ~ ! ! ~ ~ ~ ~ ~ P ! ~ ~ ~ ~ ~ ~ ~ ~ ~ ~ ~ ~ ^ ~ ~ ~ ~ ~ ! ~ ~ ! ~ ! ~ ~ ! ! ! ! P ! P P ! ",
"~ P ! ~ ! ~ ~ ~ ~ ~ ~ ~ ~ ~ ~ ~ ~ ^ ~ ~ ~ ~ ~ ~ ~ ! ! ! ~ ~ ~ ~ ~ ! ! ~ ! ~ ~ ! ! ! ! ! ! ! P ! ! ! ",
"P ~ ~ ! ~ ! ! ~ ~ P ~ ~ ~ ~ ~ ~ ! ~ ~ ~ ~ ~ ! ! ! ~ ! ~ ~ ! ! ~ ! ~ ~ ~ ! ! ! ! ! ! ! ! ! P ! P P ! ",
"P ~ ~ ! ~ ! ! ! ~ ~ ~ ~ ~ ~ ~ ~ ! ~ ~ ! ~ ~ ~ ! ~ ~ ! ~ ~ ~ P ! ! ~ ~ ! ! ! ~ ! ! ! P P P ! ! ! ! P ",
"P ~ ~ ! ! ~ ~ ~ ~ ^ ! ~ P ~ ~ ~ ~ ~ ~ ~ ~ ~ P ! ~ ! ~ ! ~ ~ ~ ~ ~ ~ ~ ! ! ! ~ ! ! P ! P P P ! P ! P ",
"! ~ ~ P ! ~ ~ ~ ~ ~ ~ ! ~ ~ ! ~ ~ ! ~ ~ ^ ! ~ ~ ! ~ ~ ~ ~ ! ~ ~ ! ~ ~ ! ! ~ ! ! ! P P ! P ! P ! ! ! ",
"P ! ~ ! ~ ~ P ~ P ~ ~ ! ~ ~ ! ~ ~ ~ ~ ~ ~ ~ ~ ~ ~ ~ ~ ~ ! ~ ! ! ~ ! ~ ~ ! ^ ! ! ! ! ! ! P P ! P P ! ",
"! ~ ! ~ ! ! ~ ~ ~ ~ ~ P ~ ~ ~ ! ~ ~ ~ ~ ~ ~ ~ ! ~ ~ ~ ~ P ~ ~ ~ ! ~ ~ ! ~ ! ~ ! ! ! ! ! ! P P ! P ! ",
"! ! ~ ~ ~ ! ! ~ ~ ^ ~ ~ P ~ ~ ~ ~ ~ ~ ~ ~ ^ ~ ! ! ~ ~ ~ ! ~ ! ! ! ~ ! ~ ! ~ ~ ! ! ! P ! ! ! ! P P ! "
};
