/* XPM */
static char *result[] = {
/* columns rows colors chars-per-pixel */
"50 50 71 1 ",
"  c #F4970D",
". c #F4990E",
"X c #EF9913",
"o c #F49D15",
"O c #F59E19",
"+ c #EDA21C",
"@ c #F5A316",
"# c #F8A517",
"$ c #F7A917",
"% c #F6A51B",
"& c #F9A51B",
"* c #F7AA1C",
"= c #FAAB1C",
"- c #F9B117",
"; c #F5B01F",
": c #FAB21C",
"> c #DB972E",
", c #DF9C29",
"< c #CD993E",
"1 c #D79731",
"2 c #D39934",
"3 c #D69E3A",
"4 c #DA9F3A",
"5 c #E79F22",
"6 c #E49C2A",
"7 c #DCA334",
"8 c #D8A038",
"9 c #EFAC24",
"0 c #E4A32E",
"q c #EDAB2C",
"w c #F5AC23",
"e c #FAAE22",
"r c #F5B226",
"t c #FAB224",
"y c #FCB921",
"u c #FBB52A",
"i c #FCBC2B",
"p c #E1B438",
"a c #FCBC33",
"s c #FEC12F",
"d c #FFC333",
"f c #FFC038",
"g c #AE895E",
"h c #B28C5D",
"j c #B98F5E",
"k c #B6915F",
"l c #9F846F",
"z c #A68663",
"x c #AD8B64",
"c c #A98B6B",
"v c #A18671",
"b c #A48975",
"n c #A88C75",
"m c #A58A78",
"M c #A98E79",
"N c #C08E4D",
"B c #C09045",
"V c #CC9645",
"C c #CC9B45",
"Z c #C2954D",
"A c #CB974C",
"S c #C49C4F",
"D c #D19D45",
"F c #C19554",
"G c #C79C54",
"H c #D1A147",
"J c #D3A34A",
"K c #D7A855",
"L c #D3A858",
"P c #D4AC62",
"I c #FBC441",
/* pixels */
"bbbbbmvmMbbbbbbbbbbbbvMbbbMbbbbnbbmmmbmmbbbbvmmmvv",
"mbbbbvmmbbbbbbnbbMbbbbbbnbvMbvvMMbbmmbbmbbbmmmvmlm",
"bbbbbbbmbbbbbbbbbbbMbMbMMbbbbbMMbbbbmbbbmmbmvmmmml",
"bbbvbbbmbbMbbbbbnbbbMbMbbbbbMvMvMbMbMvbbmmmmmmvmmm",
"mbbbbbbmbbMbMbbbbbbMMMMbMvbbbMbbMbbMbbbbmmmbbmmvmm",
"bvbbbbbmMMMbbbbbbbbMMMMMbMvnbbbbbMMbbbbbmvbbmmmvmm",
"vbbvbbbmMbMbbbbbbbbbbMbbvMvvbvMvbbbMbbbbvbbbvbmmlm",
"vbbbbbbbbbbbbbbbbMMMMnMbvvMbvbbMbMbbmbbbvbbvbbmmmm",
"bbbbbbbnbmbbbMbbMbbMbMMmMbvnbMvMMbMbbbbvbbbvbmmvmm",
"bvbbbbnmmnbbbMMbbbbbnbMbvbMvMMMvbbbbbbbvbbbvvvmmlm",
"bbbbbbmmbbnmbbbbbMbMbMmnMMvMMvvMbmnbbbbbbbbbbmmvml",
"vbbbbnnmbmbnbbMMbbbMbMMbMvMvnMMvbnmbbbbbbbbbbbvbmm",
"vbbbbbbnMMMbbbbbbbbMbnmnbMbbbMvbbbbmbmbbvbbbvbvvmv",
"bbnbbbbbmnbnbMMbbMbMGKPLJHcMbbMbnbmnmbbbbbbvbvbblm",
"bbbbbbbnMMbbbbMbbbMjyffsddpcvMvMbbbbbbbbbvbbvbbbmv",
"bbbbbnnmbbbbbbbbbbg9y;;y%+rSMvMvbbmbbbbbbbbvbbvmvm",
"bbvnbvbbbbbbbMbbnnj-=$*t$i$7nbbbmnbnbbbbbbbvvbbvvb",
"bbMMbbMMMMbbbbbbbb7:y:irsdirxbbbbbmbbbbbbbbvbvbbbv",
"bMbMMbbnbMbbbbbbbc+$@@wudidujbmbbbbbbbbbbbbbbbbbbb",
"MvbbbMbbbbMbbbbbbk;:::eudtduHnbbbbbnbmbbvbbbbbbbbv",
"bMvMbbbbbbbbMbbbbj;:::eddsdu7bbnnbbbbbbbbbvbbbbbvb",
"vbbvbbbnbnMbbbbbbC%@@%radudi7nbnbbbbbbbbbbbbblblvb",
"bbMbbbbbbbbMbbbbbC;:::uuiuir0vbMbbbbbbbbbblbvlbbvv",
"bbbvbbbbMbbbbbbMnH::::uiirisqMvbnbbnbbbbbblbvbbvbv",
"bnvnvvMvbbMbbbbbnV%@@@udw%wfqnbbbmbbbbbbbbllvbvbvv",
"bvvMMbbbbbbMbbMbnC:-:=tdwoedqnbbnbbbbbvbbbvvvvmvbv",
"bbvvbMbvbMnmnbMbbD:::=wau.ee6bmbbbbvbvbbvbvbbvbbbv",
"bvbMvvvMbmbnbbbMnV@@@@=e=.#=6Mbbbbbbbbvbbbvvbbbbvv",
"vMvvvvMnbbbbnmmbbA=:::&=OX&=>bbnbbvbbbbbbbvbvbvbvb",
"vvMMMvMvnbbmbbnbnF*:=:&==e=&2bbbbbbbbvbbbvvbbbbvvv",
"vMvMvMvMbbnbbmmnnj%$##&&====<bbbbbbbbbbbvvbvbvvvvv",
"MvMbMvMvbbbbbbbnnc9:t:=Oe===Vbbbbbbbbbbbvbbvvvmvvv",
"vvMvbvvbbbMvbbnbbM2--$*===&ehbbbvbbbnvvvbvvbvbvvvv",
"vMvMMvbMMvbbbbbMbMj---:&#eO6bbbbnbbbbvvbvbbvvvvvvv",
"vbnvvbvMbvbvbbbMnbx+-$$$Oo&Vbbbbbbbbbbvvvbvvvvvvvv",
"MbvMMvvvbnbbbbbbbbb<::==eewxbbbbbbbvbbbbvbvvvvvvvv",
"vMMvbvvMbbbbvbbbbbbc<00064jbbbnbvbbbbbbbvvvvvvvvvl",
"vvvnvMvMbnvbbbbbMbbbMbbbmbvmbbbbbbvbbbbbvvvvvvvvlv",
"bvMvMvbvbbbbbbbbbbbbbbbbbbvvbbbbbbbbvbvbcvvvvvvvvl",
"vbvvvMbbbbbvbbbbbbbnbbbbbbvbvbbvbvbbbbbvbvvvvvvvlv",
"vbvbvbnvbvbbbbbbbvbbbnbbbbbbbvbbbbbvbvbvbvvvvvvvvl",
"bvvvbbvbbbvnbvvbbbbbbbbbbbbbbbbbbvbbvbvnbvvvvlvllv",
"vvvbvbbbbblbbbbbbbbbbbbbbvvvvbbbbvbvbvbvvvlvvvlvlv",
"vbbvbvvbbbbbbbbbbbbvbbvvbvvbbbvbvbnvbvvvvvvvvlvlvl",
"vvbvbvvvbbbbbbbbvbbvbbvvbbvbbbvvvnbvvvvvvvvlllvvvv",
"vvbvvbbbbbbllbbbbbbbbvvcbvbvvbbbbvbvvbbvvllllvvllv",
"vbbvbvbblbbbbbvbbbbbbbbbbbbbbvbbbvvbbvvvvllvlvlvlv",
"vvbvvbvvbbnlbbvbbvbbbbbbbvbbvbvvvbvbbvvvvvvvllvlvv",
"vvbvbvbvbbbvbbbvbbbbbbbbvbbbvvvbbvbvbbvvvvvvlvvlvv",
"vvbbbvvbbbbbbvvbbbbbbbvcbbbbvbbvvbvnvbbvvvvvvllvll"
};
