/* XPM */
static char *result[] = {
/* columns rows colors chars-per-pixel */
"50 50 120 2 ",
"   c #DB7F20",
".  c #DC7F20",
"X  c #DE851F",
"o  c #DC861E",
"O  c #DD861F",
"+  c #DE871F",
"@  c #DF8F1A",
"#  c #DF8E1B",
"$  c #DD8B1C",
"%  c #DF8D1C",
"&  c #DF8C1D",
"*  c #DF8E1C",
"=  c #DF8E1D",
"-  c #DF9119",
";  c #E08F19",
":  c #E08E1D",
">  c #E28E1F",
",  c #E38E1F",
"<  c #E38F1F",
"1  c #E0901B",
"2  c #E1901B",
"3  c #E1921B",
"4  c #E3921B",
"5  c #E3931B",
"6  c #E2951B",
"7  c #E5941B",
"8  c #E1911C",
"9  c #E1911E",
"0  c #E1911F",
"q  c #E1921E",
"w  c #E1921F",
"e  c #E4971D",
"r  c #E59A1D",
"t  c #E69A1C",
"y  c #E99A1A",
"u  c #E89E1C",
"i  c #E99F1C",
"p  c #ECA21D",
"a  c #EEA61F",
"s  c #EEA71F",
"d  c #F0AA1F",
"f  c #F2AC1E",
"g  c #DB8020",
"h  c #DB8120",
"j  c #DB8220",
"k  c #DB8320",
"l  c #DA8221",
"z  c #DD8321",
"x  c #DD8222",
"c  c #DC8421",
"v  c #DE8523",
"b  c #DF8524",
"n  c #DF8525",
"m  c #DF9D2A",
"M  c #E08624",
"N  c #E18625",
"B  c #E18626",
"V  c #E28626",
"C  c #E38D20",
"Z  c #E08825",
"A  c #E28925",
"S  c #E38926",
"D  c #E29F26",
"F  c #E19E2A",
"G  c #E09F2D",
"H  c #EDA420",
"J  c #F1AD22",
"K  c #F2B023",
"L  c #F3B125",
"P  c #F4B226",
"I  c #F5B424",
"U  c #F7B724",
"Y  c #F5B726",
"T  c #F7B925",
"R  c #F9BF25",
"E  c #FABE24",
"W  c #F9BE27",
"Q  c #F0B12F",
"!  c #F8BD29",
"~  c #FCBF28",
"^  c #F8BC2D",
"/  c #FBC02C",
"(  c #9F846F",
")  c #A08570",
"_  c #A18671",
"`  c #A28771",
"'  c #A08572",
"]  c #A18673",
"[  c #A28772",
"{  c #A28773",
"}  c #A28774",
"|  c #A28775",
" . c #A38872",
".. c #A38873",
"X. c #A48973",
"o. c #A58A73",
"O. c #A38874",
"+. c #A38875",
"@. c #A38876",
"#. c #A48974",
"$. c #A48975",
"%. c #A58A74",
"&. c #A58A75",
"*. c #A68B75",
"=. c #A48976",
"-. c #A48977",
";. c #A58A76",
":. c #A58A77",
">. c #A68B76",
",. c #A78C77",
"<. c #A58A78",
"1. c #A78C78",
"2. c #A88D78",
"3. c #A98E79",
"4. c #F9CC57",
"5. c #FFCC54",
"6. c #FEE49B",
"7. c #FCE4A5",
"8. c #FEE7AB",
"9. c #FDF3D6",
/* pixels */
"=.=.=.=.=.+.+.<.<.&.X.#.&.&.&.&.&.&.&.&.&...&.&.&.&.&.&.&.#.#.*.>.:.:.:.:.:.:.:.=.=.=.=.=.=.=.=.+.} ",
"=.=.$.$.$.+.=.:.:.&.X.#.>.&.&.&.&.&.&.&.&.&.&.&.&.&.&.&.&.#.#.>.>.;.;.:.:.=.=.:.=.=.=.=.=.=.=.=.+.} ",
"+.+.#.#.#.#.&.>.&.&.&.&.&.#.#.&.#.#.&.>.>.,.>.>.>.&.&.&.&.#.;.1.>.&.&.>.>.&.+.=.=.=.=.=.=.=.=.=.+.+.",
"=.+.#.#.#.%.*.>.&.&.>.>.#.#.&.>.>.#.&.>.,.,.>.>.>.&.&.&.&.&.&.>.,.*.*.>.>.O.} =.:.:.:.=.=.=.=.=.=.=.",
"-.$.#.#.#.&.&.>.,.>.>.>.&.&.&.&.&.&.>.,.,.3.,.,.&.&.&.&.>.,.&.&.,.>.>.>.&.+.@.-.<.<.<.=.=.=.=.=.=.=.",
"O.#.#...#.&.&.>.,.,.,.&.&.#.#.&.&.&.>.,.,.3.2.,.&.#.#.#.&.&.&.&.>.>.>.>.&.$.;.:.;.=.=.$.;.=.=.=.=.=.",
"` #.#...#.&.&.>.>.>.,.#.&.#.#.&.&.&.>.,.,.2.,.>.#.#.#.....#.&.&.&.>.>.>.&.&.*.%.X.X.#.#.&.=.=.=.=.=.",
" .#.#.#.#.&.&.>.>.>.&.#.&.&.#.&.&.&.>.,.,.,.,.&...&.&.....&.>.&.&.>.>.>.&.&.#.....%.#.#.&.;.$.=.=.=.",
"#.#.#.#.#.&.&.>.>.>.&.&.&.,.>.&.&.&.>.>.>.,.,.>.#.&.&.#.&.,.>.&.&.>.>.&.#.#.#...#.&.#.[ X.;.+.+.=.=.",
"#.#.#.#.#.&.>.>.>.>.&.&.&.,.,.>.&.&.>.>.>.,.,.>.#.&.&.&.,.,.>.&.&.>.>.&.#.#.#...#.&.#.[ ..=.@.+.=.=.",
"#.#.#.&.&.&.,.,.&.&.>.>.&.&.>.>.>.>.>.,.>.,.,.>.&.&.&.&.>.>.&.&.&.>.>.&.#.#.#.#.#.#.#.#.&.;.+.+.=.+.",
"..&.#.&.&.&.>.>.&.>.>.>.&.&.>.>.>.>.>.,.>.,.,.>.>.&.&.&.>.>.&.#.&.>.>.>.&.#.&.#.#.&.&.#.#.$.@.+.=.=.",
"..&.#.#.&.&.&.&.,.,.>.&.&.>.>.&.&.&.>.>.>.,.,.>.>.&.&.&.>.>.&.#.&.&.&.>.>.&.&.#.#.&.&.#...O.+.+.=.=.",
"#.#.&.&.&.&.&.>.,.,.>.&.&.>.>.&.&.&.,.,.>.D m G F &.&.&.&.&.&.&.&.&.&.>.>.&.&.#.#...#.....O.O...O.$.",
"#.#.&.&.&.&.&.>.,.,.>.&.&.>.>.&.&.&.,.,.>.Q J f d &.&.&.&.&.&.&.&.&.&.#.#.&.&.#.#...#.......X.X.#.$.",
"&.&.#.>.&.&.>.>.>.>.&.#.#.&.&.&.>.>.&.>.,.9.7.4.^ &.&.&.&.&.&.&.&.>.>.&.&.&.#.#.#.#.#.........o.%.+.",
"&.&.&.,.#.#.>.>.>.>.&.#.#.&.&.&.>.>.&.>.2.8.6.5./ &.&.&.&.&.&.&.&.>.>.&.&.&.#.#.#.#.#.......X.X.%.+.",
"&.&.>.,.&.&.>.>.>.>.&.#.#.&.&.&.&.>.,.2.2.E R ~ ! &.&.&.&.&.&.&.&.&.>.&.&.&.#.#.#.#.#...O.+.$.$.O.+.",
"&.&.&.>.>.>.&.&.>.>.&.>.&.&.&.#.#.>.2.2.,.U T W Y &.&.&.&.&.&.&.&.#.&.&.&.&.#.#.#.#.#.#.$.=.=.=.+.} ",
"&.&.&.>.>.>.&.&.>.>.>.>.&.&.&.#.&.,.2.,.>.L P I K &.&.&.&.&.&.&.&.#.&.&.&.&.#.#.#.#.#.#.$.=.=.=.+.} ",
"&.&.&.&.&.&.&.&.&.&.&.&.&.&.&.#.&.,.,.,.>.H s a p &.&.&.&.&.&.&.&.&.&.&.&.&.#.#.#.#.#.#.#.+.+.+.| } ",
"#.#.&.#.#.#.&.>.&.&.&.&.&.&.&.#.#.>.>.>.,.y u i t &.&.&.&.&.>.>.&.&.&.&.&.&.&.#.#.&.#.#...{ { { { ] ",
"#.#.&.&.#.#.&.>.&.&.>.>.&.&.&.&.&.&.>.>.,.7 6 r e &.&.&.#...&.>.&.&.&.&.&.&.&.&.#.#.....[ `  ...{ ] ",
"&.&.#.#.#.#.&.&.&.&.>.>.&.&.&.>.>.>.>.>.>.4 3 5 8 &.&.&.&.&.#.&.&.&.&.&.&.&.#.#.#.#._ _ [ ........{ ",
"&.&.#.#.#.#.#.&.&.&.>.>.&.&.&.>.>.>.>.>.>.2 - 1 : &.&.&.&.>.&.&.&.&.&.&.&.&.#.#.#.#.) ) _ ........{ ",
"#.#...&.&.&.#.#.&.>.>.>.&.&.>.>.>.>.>.>.>.= ; @ * &.#.#.>.>.&.&.&.&.&.#.#.#...#.#...) _ [ ..#.#.O.] ",
"#.....&.&.&.#...&.>.>.>.&.&.>.>.>.>.>.>.>.& % # $ &.#.#.>.>.&.&.&.&.&.#.......#.#.#.[ [ ....#.#.O.] ",
"#.....&...#.#.#.&.>.>.&.&.&.>.>.>.>.>.>.>.O + X o &.#.#.>.>.&.&.&.&.&.#.......#.#.#...[ ....#.#.O.{ ",
"#.#.#.&.[ ..&.&.&.&.&.&.&.>.>.>.>.>.&.&.>.k   . j #.#.#.#.&.&.&.&.#.#.#.#.#.#.#.#.....#...........{ ",
"..#.&.>.#.#.&.&.&.&.&.>.>.>.>.&.>.>.&.&.>.k     j #.&.&.#.&.#.&.&.#.#.#.#.#.#.#.#.....#.#.#...[ [ ] ",
"..#.&.>.&.#.&.&.&.&.&.&.&.>.>.&.>.,.&.&.>.h g h j &.&.&.&.&.#.#.#.&.&.#.#.&.&...[ ....[ ....[ _ _ ' ",
"#.#.>.>.&.#.&.&.&.&.&.#.#.&.&.>.>.>.>.>.>.l x z j &.#.#.&.&.&.#.#.&.&.&.#.#.#...[ ....[ [ [ [ [ _ ' ",
"#.#.&.&.&.....&.&.&.&.#.#.&.&.>.>.>.>.>.>.v N b c &.#.#.&.&.&.#.#.&.&.&.&..._ [ ..............` _ ' ",
"#.#.#.&.&.....&.&.#.#.#.#.&.>.>.>.>.,.,.>.n V B M &.#.#.#.&.#.&.&.#.#.#.#...[ ..[ ...._ _ _ _ _ _ _ ",
"#.#.#.&.&.....&.&.#.#.#.#.&.>.>.>.>.&.&.>.Z S S A &.#.#.#.&.#.&.&.#.#.#.#.#.....[ ...._ _ _ _ _ [ _ ",
"#.#.#.&.#.....#.&.&.#.#.#.&.&.&.&.&.&.&.>.> < , C #.#.#.#.&.&.&.#.#.#.#.#.#.#.#.[ [ [ _ _ _ [ [ [ ) ",
"#.#.#.&.#.....#.&.&.#.#.#.#.#.&.&.&.&.&.>.9 w q 0 #.#.#.#.&.&.&...#.#.#.#.#.#.#.[ _ _ _ _ [ [ _ ) ) ",
"#.#.#...#.&...#.&.&.#.#.#.#.#.&.&.&.&.&.>.>.&.&.&.#.#.#.#.&.&.&...#.#.#.#.#.#.#.[ [ [ _ _ [ _ ) ) ) ",
"........#.&.#.#.#.#.#.#.#.#.#.&.&.&.&.&.&.&.&.#.#.#.....#.#.#.#.#.#.#.#.#.#.....[ _ _ _ _ [ _ ) ) ) ",
"........#.&.#.#.#.#.#.#.#.&.#.#.#.#.&.&.&.&.&.#.#.#.........#.#.#.#.#.#.#.#.....[ _ ) _ _ [ [ ) ) ) ",
"..........#.#.#.#.#.#.#.#.&...#.#.#.&.&.&.&.&.#.#.#.#.#.#.#.#.#.#.#.#.............[ _ _ _ _ _ _ ) ) ",
".._ [ ........#.#.#...&.#.....#.#.&.>.&.#.#.#.#.#.#.#.#.#.#.#.#.#.............#.#.[ _ _ _ ) ) ) ) _ ",
".._ [ ........#.#.#...&.#.#.#.#.#.#.#.#.#.#.#.#.#...[ [ ..#.#.#.#.............[ [ ) ) _ _ ) ) ) ) _ ",
"[ ..........[ ..#.#.#.#.#.#.&.#.#.#.#...#.&...[ ........#.#.....[ #.#...[ [ [ _ _ ) ) _ _ ) ) ) ) ) ",
") [ ........[ ..#.#.#.#.#.#.&.#...#.#...#.#.[ [ ........#.#.....[ #.#..._ [ .._ _ ) ) ( ( ) _ _ _ ) ",
"_ ....[ ......#.#.#.#.....#.#.#.#.#.#.#.#...[ ..#.....................[ _ ....[ _ ) ) ( ) ) ) ) ) ) ",
"[ ....[ ......#...#.#.....#...#.#...#.&.&.#.#.#.#.#.#.#.......................[ _ ) ) _ ) ) ) ) ) _ ",
"_ [ ..[ ..........#.#...#.#...#.#...#.&.&.&.&.#.#.#.#.#...............#.#.....[ _ ) ) _ ( ) ) ) ) _ ",
"_ [ ......[ ....#.#.#...#.......#...#.&.&.&.#.....#.#.#.......................[ _ ) ) _ ) ) ) ) ) _ ",
"[ [ ..#.#.[ [ #.&.&.#.........#.#.#.&.&.&.>...[ ..#.#.#.....[ [ ..............[ _ _ ) _ _ ) ) ) ) ) "
};
