/* XPM */
static char *result[] = {
/* columns rows colors chars-per-pixel */
"50 50 86 1 ",
"  c #F4960E",
". c #F49B0E",
"X c #F89D0F",
"o c #EF9615",
"O c #EF9B14",
"+ c #EE9E1A",
"@ c #F19715",
"# c #F49B14",
"$ c #F89E10",
"% c #F39E19",
"& c #F5A115",
"* c #F8A114",
"= c #F4A21A",
"- c #F9A51B",
"; c #F7AA1D",
": c #FBAA1D",
"> c #D49E3F",
", c #EBA52C",
"< c #EEAC2F",
"1 c #F0A722",
"2 c #F8A721",
"3 c #F6AB23",
"4 c #FAAD22",
"5 c #F1A628",
"6 c #F5AD2A",
"7 c #FBB324",
"8 c #FCB827",
"9 c #F7B32A",
"0 c #FAB42B",
"q c #FCBC2C",
"w c #E5A334",
"e c #EAA430",
"r c #E1A138",
"t c #E5AE3F",
"y c #EBB93F",
"u c #F9B530",
"i c #FCBB32",
"p c #F3BA3B",
"a c #FFBF38",
"s c #FFC12F",
"d c #FFC232",
"f c #FEC43A",
"g c #BC9356",
"h c #9F846F",
"j c #A58562",
"k c #AD8C67",
"l c #AD8F6E",
"z c #B18F69",
"x c #B69365",
"c c #BE9760",
"v c #B09069",
"b c #A18671",
"n c #A48975",
"m c #AB8D71",
"M c #A58A78",
"N c #A98E79",
"B c #AE9273",
"V c #AB9078",
"C c #B79A70",
"Z c #B89C72",
"A c #BDA479",
"S c #D79D45",
"D c #D99C42",
"F c #D39B48",
"G c #C59553",
"H c #C49955",
"J c #CA9D55",
"K c #C49658",
"L c #C29A5E",
"P c #D5A347",
"I c #D9A040",
"U c #DFAE47",
"Y c #D3A44F",
"T c #D1A354",
"R c #D4A956",
"E c #E1AD4E",
"W c #E8B443",
"Q c #ECB844",
"! c #FABF40",
"~ c #C09964",
"^ c #C6A564",
"/ c #DBB462",
"( c #E9BF65",
") c #FCC543",
"_ c #F4C04B",
"` c #EFC358",
/* pixels */
"nnnnnbMMNnnnnnnnnNnnnnnnnNNnnnnnnNMMnMMMnMMbbMMMbb",
"MnnbnMbMNnnnnnnnnnnnnnnnnnnnnnnNnNnMMnnMnnMMMMbMMM",
"nnnnnnMnnnnnnnnnnnnVnnNnnnnnnnnNnnnNnnbMMbMbnMMbhb",
"nnnnnnnMnnNnnnnnnnnnNNnnNnnnnnnnVnnnNnbMnMMMbMMMMM",
"nnnnnnnMnnNnNnnnnnnNNVnNnnnnNVnnnNnnMnnnMMMMbMMnMM",
"nnnnnnnMNNNnnnnnnnnNNNNNnnnnnnnnNnnNnnnnMMnMnMMbbM",
"hnnbnMnMnnNnnnnnnnnNnNnnnnnnnnnnnNNnnnnnbnnbnMbMMM",
"bnnnnnnnmnnnnnnnnNVnNNNnnnnnnnnnnnnNnnnhbnnnnMMnMb",
"nnnnnnnnNNnnnNnnnnnNNnNNnnnnnnNnnNnnnnnnnnnnbMbMMM",
"nnnbnnNnnnnnnNNnnnNnnNnnnnNnVnnnnnNnnnnnnnnhbMMbMh",
"nnnnNnnNnnNnnnnNNnnNnNNnnnnnnnnnnVNnnnnnnnnnnMnMMh",
"nnnnnnnNnnnmNnnnNnnNnNNnnnnnNVnnnnnnnnnnnnMbnnnbMM",
"bnnnnnnnNNnnnNNnnnNnMMNnMnnnnnnnNnnNnnnnnnnnbnnnMM",
"nnnnnnnNNnNnnnnnnnNNB~TUWWURcBnnnnnnnnnnbnnbnbbnbb",
"nnnnNnnnNNnnnNnNnnN^Qddi0qqidQJBnnnnnnnnnbnbnnnnMM",
"nnnnnnNnnnnnnnnnNC(du3&#%=%+;udyxnNnnnnnnnnnbnbnbM",
"nnnnnnnNnnnnnnnnC_i4%&4qqsq84#;up~nnnNnnnnnnnhnnnb",
"nnNNnnnnNNnnnnnB`i=%8ddddddddq-@9dcnnnnnnnnbnnnnnn",
"nnnnVnnNnNnnnnn/f==fddsd73dsddd4oqplnnnnnnnnnMnnnb",
"NnnVnnnnnnNnnnA);+)issdd1$ddqddf3#iYnnnnnnbnnnnnnn",
"nnnnnnnnnnnnnn/sOfdddsdsqqddddddf=4pvnnnnbnnnnnnbn",
"nnnnnnnnnNnnnBf31fsi9ddd7,ddduisdq#iHnnnnnnnnbbbnh",
"nnnnnnnnNnVnM^d$4dd0oddd;%ddf@3dsd&7Pnnnnnbbbbbnnb",
"nnnnnnNnnnnnnRi$qssd89di$#dd07qdsd33tnnnnnbbbnbnnh",
"nnnnnnnnnnnNnEq.ssdsd#66.#93Odddsd7=<nnnnnhhhnnbbb",
"nnbnnnnnnNNnnt8&8qssd4 #$$% ;dddds4$1nhnnnbbnhnnMb",
"nnnnnnnbnnNnnI:%-::487X$$*.$qdds87*=,nnnnnbbnbnnbb",
"nnnnnnnnnNnnnG:=&:::::@## $*7:7:::@=Dnnnnnnbbnnnnb",
"nnnnbbnnnnnnnv3=#:::::$OO@$*:::-::#4gbnnnnnnbnnnbM",
"nnnNnnnnNnnNNne-@::::::43::::::::#=3knnnnhhnnMbbbb",
"nnnnnnnmnnnnnnK:=$:::::::4::::::=#:Snnnnhnnbbbbbbb",
"bnnNnnnnnnnnnnmw4@-::::::::::::-#:,knnnnbnbnbMbbbb",
"nnnnnnbnnnnnmnnx,:O&;:::::-:::-O=:gnnnbbnbbnbnbbbb",
"nnnnnnnnnnnnbnnnj6:=#=;:::::-##:;Hnnnbbnbnnbbbbbbb",
"nnnnnbnnnnnnnnnNnx,3:==&=%&#@=41Gnnnnnbbbbnbbbbbbb",
"nnnnnnbnnnnnnnnnnnlJe:;;-2-423Dznnnnnnnnbnbbbbbbbh",
"bnnnnbnnnnnnnnnnnnnnmgPr,ew>Gzmnbnnnnnnnbbbbbbbbhb",
"nnnnnnbnnnnnnnnnNnnnnnnnnnnnnnnnbnnnnbnnbbbbbbbbbh",
"bbnbnnnnnnbnnnnnnnnnnnnnnnnnnnnnnnnbnnbnbbbbbbbbhb",
"nnbnnnnnnnnnnnnnnnnnnnnnnnbnbnbnnnnnnnnbbbbbbbbbbh",
"bhnhhnnnnnnnnnnnhnnnnnnnhnnnnnnnnnnbnbbnnbbbbbbbbh",
"nhmnnnhnnnnnnbbnnnmnnnnnnnnnnnnhnnbnbnnnnbbbbjhhhb",
"bhhnnnnnbnbnnnnnnnnnnnnnnnhnhnnnnbbnnbnbbbbbnhbhbb",
"nnnnnhnhnnnnnnnnnnnnnnnhhnnnnnnnbnnnbbnhbbbbhbhbhb",
"hhnnnnhnnnnnmnnnnnnhnnhnnnhnnnnnbnnbnhnbbbhhhbnhbh",
"hnnhnhnnhnnnhhnnnnnnmnnhnnhnhnnhnbnbhnnhbhbhhhhhbh",
"nnnhnnnnnnnhnnnnnhnnhnnnnnnnnnnhbnnbnhnnbhhbhbhbbb",
"hhnnhnnhnnnnnnhnnnnnnnnnnnnnhnnnnbnnnnhbnhhnhhbhhb",
"hnnhnnnnnnnhnnnnnhnnmnnnbnnnbnnnbnnbnnbbbbbbbhhbhb",
"nhnnnhhnnnnnnnhnnnnnnnbbnnnnhnhnbnbnnbbnbbhbbbbhhb"
};
