/* XPM */
static char *result[] = {
/* columns rows colors chars-per-pixel */
"50 50 93 2 ",
"   c #C1782C",
".  c #DD7B20",
"X  c #A4754E",
"o  c #DA801F",
"O  c #DB8F1C",
"+  c #DD921D",
"@  c #F69F0D",
"#  c #F89D0F",
"$  c #E28F1B",
"%  c #E29117",
"&  c #EC9715",
"*  c #EE9A15",
"=  c #EF9918",
"-  c #F29714",
";  c #F39C15",
":  c #F89F12",
">  c #F39D1A",
",  c #F7A30F",
"<  c #F8A40F",
"1  c #F5A213",
"2  c #F9A513",
"3  c #F6A815",
"4  c #FAAB15",
"5  c #F5A31B",
"6  c #F9A61C",
"7  c #F6AB1C",
"8  c #FBAA1C",
"9  c #FCB017",
"0  c #F9B31D",
"q  c #DB8120",
"w  c #D4842B",
"e  c #DA8E2D",
"r  c #D39331",
"t  c #DC9630",
"y  c #E48521",
"u  c #E18920",
"i  c #EB9421",
"p  c #EF9B21",
"a  c #E89F29",
"s  c #E29F3A",
"d  c #EBA628",
"f  c #EBAA2A",
"g  c #F9A723",
"h  c #F5AD22",
"j  c #FBAC21",
"k  c #F3A529",
"l  c #F2AD2C",
"z  c #F6B324",
"x  c #FAB424",
"c  c #FAB924",
"v  c #F3B12E",
"b  c #FBB62A",
"n  c #FBBD2B",
"m  c #E4A235",
"M  c #E3B639",
"N  c #EAB33E",
"B  c #F6BC36",
"V  c #F8BE36",
"C  c #F1B63D",
"Z  c #F0B93E",
"A  c #F9BC38",
"S  c #FCC32D",
"D  c #FEC631",
"F  c #FFCA33",
"G  c #FFCC3A",
"H  c #FFD13A",
"J  c #B2814E",
"K  c #BD804E",
"L  c #BB8050",
"P  c #B4855D",
"I  c #BA9157",
"U  c #BC945D",
"Y  c #9F846F",
"T  c #AD8D6B",
"R  c #B18F69",
"E  c #B59165",
"W  c #BB9561",
"Q  c #A18671",
"!  c #A48975",
"~  c #AA8D71",
"^  c #A58A78",
"/  c #A98E79",
"(  c #CF9747",
")  c #D79E41",
"_  c #DB9E44",
"`  c #C79D57",
"'  c #C29558",
"]  c #C49D5A",
"[  c #DEAB4A",
"{  c #CEA859",
"}  c #E4AE44",
"|  c #E3B244",
" . c #FEC942",
/* pixels */
"! ! ^ Q ^ ^ Q ^ / ! ! ! ! ! ! / ! ! ! / ! ! ! / ! ! ! ! ! ! ! ! ! / ! ! ^ ^ ^ ^ ! ^ ^ Q Q ^ ^ ^ Q Q ",
"! ^ ^ Q ! Q ^ ^ ! ! ! ! ! ! ! ! ! ! ! ! ! ! ! ! ! ! ! ! / ! ! ! / ! ^ ^ ^ ! ! ^ ^ Q ^ ^ ^ ^ Q ^ ^ Q ",
"! ! ! ! ! ! ^ ^ / ! ! ! ! ! ! ! ! ! ! / ! / ! ! / ! ! ! ! ! ! / ! ! ! ! ! ! ! ! ^ Q Q ^ ^ Q ^ Q Q Q ",
"! ! ! ! ! ! ! ! ! ! ! / ! ! ! ! ! ! ! ! ! / / / ! ! ! ~ / ! ! ! / / ! ! ! ! ! ^ ^ ^ ^ ^ ^ Q ^ ^ ^ ^ ",
"! ! ! ! ! ! ! ! / ! ! ! ! ! ! ! ! ! / / ! / / ! ! ! ! ! ! / ! ! / ! / / ! ! ! ! ^ ^ ^ ^ ! Q ^ ^ ^ ^ ",
"! ! ! Q ! ! ! ! / / / ! ! ! ! / / ! ! ! / / / / ! ! ! ! ! ! ! ! ! ! ! ! ! ! ! ! ! ^ ! ! ^ ^ Q ^ Q ^ ",
"Q ! ! ! ! ! ! ^ ! ! / ! ! ! ! ! ! ! / / / / / ! ! ! ! Q ! ! / ! ! / ! / / ! ! ! Q ! ! Q ! ! ^ ^ ^ ^ ",
"Q ! ! ! ! ! ! ^ ! ~ ! ! ! ! ! ! ! ! ! / ! / ! ! ! ! ! ! ! ! ! ! ! ! / ! ! ! ! ! ! ! ! ! ! ^ ! Q Q ^ ",
"! ! ! ! ! ! ! ! / ! ! ! ! / ! ! ! ! / ! ! / / ! ! ! ! ! ! ! ! ! ! ! / ! ! ! ! Q ! ! ! ! ! ^ ^ Q ^ ^ ",
"! Q ! ! ! ! / ! ! ~ ! ! ! / / ! ! ! ! ! / ! / ! ! ! ~ ! / / / ! ! / ! ! ! ! ! ! ! ! ! Y Q ^ Q Q ^ Q ",
"! ! ! ! ! ! ! / ! ! / ! ! ! ! ! / ! / / ! / ! / ! ! ! ! / ! ! ! ! ! ! ! ! ! ! ! ! ! ! ! ^ ^ Q ^ ^ Q ",
"Q ! ! ! / ! ! / ! ! / ! ! ! / / / ! ! / ! ! / ^ / ! ! ! ! / ! ! ! / ! / ! ! ! ! ! ! ! ! ! ! ^ Q ^ ^ ",
"! ! ! ! ! ! ! ! / / / ! ! ! ! ! ! ! / ! ! / ^ ^ / ! ! ! ! ! ! ! ! ! ! ! ^ ! ! Q ! ! ! ! Q ! ! ! Q ^ ",
"! ! ! ! / ! ! ! ! / ! ! ! / / ! ! ! ! ! { | Z D G F F N [ ( E ! ! ! ! / ! ! ! ! ! Y ! ! Q ! ! ! Q ^ ",
"! ! ! ! ! ! ! / / ! / ! ! ! / ! ! Q { M G S n c x z n D H  .A [ R ! ! ! ! ! ! ! ! Q ! Q ! ! ! Q Q ^ ",
"! ! ! ! ! ! / ! ! / ! ! ! ! ! ! ~ | G D 3 1 2 4 9 4 3 1 z S G F S U / ! ! ! ! ! ! ! ! ! Q ! Q ! ^ Q ",
"! ! ! ! ! ! / ! ! / ! ! ! ! ! ! } F z ; 9 S F F F F F S 9 1 c F A l W ! ^ ^ ! ! ! ! ! Q ! ! ! Q ! ! ",
"! ! / / ! ! ! / / ! ! ! ! ! ! | F h , n F F F S F F S F F c 1 z G B f R ~ ! ! ! ! Q ! ! ! ! ! ! ! ! ",
"! ! ! / / ! ! ! ! ! ! / ! ! ] F h < S F F S F S 0 S F F S G S 1 c G f t ! ! ! ! ! Q ! ! ! ! ! ! ! Q ",
"/ ! ! ! / ! ! ! ! / ! ! ! ~ M n , S F F S F F n 3 F F D F F F n 1 S A + I ! ! ! ! ! ! ! ! ^ ! ! ^ Q ",
"! ! ! ! ! ! ! ! ! / ! ! ! ] G 7 4 G F F F S D F S F F F F G F F 9 7 G d r ! ! ! ! ! ! ! Q ! ! Q Q ^ ",
"! ! ! ! ! ! ! / ! ! ! ! ! N S , S F F S S F F F 7 S F F F S F F S 1 D l O ! ! ! ! ! ! ! ! Q Q ! Q ! ",
"! ! ! ! ! ! ! ! ! ! / ! ! F z 4 F F F 1 c F F n 3 D F F 7 7 F S F 7 c n $ ! ! ! ! Q ! Q Q Q Q Q Q Q ",
"! ! ! ! ! ! ! / ! ! ! ~ ! F 7 9 F S F S c G F 0 1 S F F 0 S F F F z 7 D % ! ! ! ! ! Q Q Q ! ! ! ^ Q ",
"! ! ! ! ! ! ! ! ! ! / / ! F 3 c F F S F z x S 2 < b b 5 n F F F F b 3 b $ ! ! ! ! ! Y Q Q Q Q Q Q Q ",
"! ! ! ! ! ! ! ! ! / ! ! ! c 2 7 b n S D n 1 ; < 2 1 @ 4 D D D S D x ; j y ! Q ! Q ! Q Q Q ! ! ! ! Q ",
"! ! Q ! ! ! ! Q ! ! ! / ! 8 5 6 8 8 8 x b 2 # < , , @ b D D S b x > 1 j u Q ! ! ! ! Q Q ! ! ^ ! ^ Q ",
"! ! ! ! ! ! ! ! ! / ! ! ! 8 5 5 8 8 8 8 8 ; - ; ; @ : b b j 8 8 g ; 5 8 q ! Q ! ! ! ! Q ! Q Q ^ Q Q ",
"! ! ! ! Y ! ! ! ! ^ ~ ! ! k g - 8 8 8 8 8 6 - - - - : 8 6 6 8 8 5 & 8 p o ! ! ! ! ! Q ! Q Q ! ! ^ Q ",
"Q ! ! / ! ! ~ ! ^ ^ ! ! ! ) 8 ; 6 8 8 8 8 8 6 j 8 8 8 8 8 8 8 8 5 > j i   ! ! ! ! Q Q ! Q ^ Q Q Q Q ",
"! ! ! ! ! ! ! ! ! ! ! ! ! W 8 6 ; 8 8 8 8 8 8 6 8 8 6 8 8 8 8 6 & 7 7 q X ! ! Q Q ! ! Q ^ Q Q Q Q Q ",
"! ! ~ ! ! ! ! ! ! ! ! ! ! ! s j ; : 8 8 8 8 8 8 8 8 8 8 8 8 j - 1 x i w ~ ! ! ! Q Q ! Q Q Q ^ Q Y Q ",
"Q ! ! ! ! ! Y ! ! ! / Q ! ! T f 7 * 1 8 8 8 8 8 8 6 8 8 8 j * * 8 6 . E ! ! Q Q ! Q ! Q ! Q ! Q Q Q ",
"! ! ! ! ! ! ! ! ! ! ! Q ! ! ! U g 8 ; > 8 8 8 8 8 8 8 8 6 ; ; j 8 y X ! ! Q Q ! Q ! Q Q Q Q Q Q Q Q ",
"! ! ! ! ! ! ! ! ~ ! ! ! ! ! ! / ' g 7 5 ; ; 6 8 6 6 > ; = 5 8 8 y K ~ ~ ! ! Q Q Q ! ! Q Q Q Q Q Q Q ",
"! ! ! ! ! ! Y ! ! ! ! ! ! ! ! ! ^ E m 8 g 6 > ; > ; - 6 j j > w P ! ! ! ! ! ! ! Q Q Q Q Q Q Q Q Q Y ",
"! ! ! ! ! Y ! ! ! ! ! ! ! ! ! ! ! / ! ] m h 7 0 j j 8 g = e J ! ! ! ! ! ! ! ! ! Q Q Q Q Q Q Q Q Y Q ",
"! ! ! ! ! / Y ! ! ! ! ! ! ! ! ! ! ! ! ! ! ! ! ! ! ! ! ! ! ^ ! ! Q ! ! ! Q ! ! ! Q Q Q Q Q Q Q Q Y Q ",
"Y Q ! Q ! ! ! ! ! ! ! ! ! ! ! ! ! ! ! / ! ! ! ! ! ! ! ! ! ! ! ! ! ! ! Q ! ! Q ! Q Q Q Q Q Q Q Q Q Y ",
"! ! Q ! ! ! ! ! ! ! ! Q ! ! ! ! ! ! ! ! ! ! ! ! ! ! ! Q ! Q ! ! ! ! ! ! ! ! ! Q T Q Q Q Q Q Q Q Y Q ",
"Y ! ! Y Y ~ Q ! ! ! ! ! ! ! ! ! ! Y ! ! ! ! ! ! Q ! ! ! ! ! ! ! ! ! ! Q Q Q Q ^ ! Q Q Q Q Q Q Q Q Y ",
"~ ! Y ! ! Q ! ! ! Y Y ! ! ! Y ! ! ! / ~ ! ! ! ! ! ! ! ! ! ! ! ! ! ! Q ^ Q ^ Q ^ ! Q Q Q Q Q Q Q Y Q ",
"Q Y ! ! ! ! ! ! ! ! ! ! ! ! ! ! ! ! ! ! ! ! ! ! ! Q Q Q Y ! ! ! ! Q Q Q ! Q Q Q ! Q X Q Q Y Q Q Y Q ",
"Q ! Y ! ! Y Q Q ! ! ! ! ! ! ! ! ! ! ! ! ! ! Y ! ! ! Q ~ ! ! Y ! Q ! ^ ! Q Q ^ Q Q Q ^ Q Q Q Q Q Q Y ",
"Y Q ! Q ! Q Q ! ! ! ! ! ! ! ! ! ! ! ! Y ! ! Y ! Q Q ! Q ! ! ! ! Q ! ! Q Q Q Q Q Y Y Y Y X Q Q Q Q Y ",
"Q ! ! Q Q ! ! ! ! ! ! ! ! ! Y ! ! ! ! ! Y ! ! Y ! ! ! ! Q ! Y ! ! ! ! Q Q Q Q Q ^ Y Y Y ^ Q Y Y Q Y ",
"Q Q ! Q ! Q Y ! Y ! ! Y Y ! ! ! ! Y ! ! ! ! ! ! ! ! ! ! ! Q Q ! Q ! Q ! Q ^ Q Q Y Y Y ^ Q Y Q Y Q Q ",
"Q Q ! Q Q ! ! ! ! ! ! ! ! ! ! ! ! ! ! / ! ! ! ! ! ! ! Q ! Q ! Q ! ! Q ! ^ Q ^ ^ Q Y Y Q Y Q Y Q Y Q ",
"Q ! ! Q ! Q ! ! ! ! ! ! ! Y ! ! ! ! Q / ! Q ! Q Q ! ! ! Q ! ! ! Q ! ! Q ! Q ! Q Q Y Q Q Q Y Y Q Y Q ",
"Q Q ! ! ! Y Y ! ! ! ! ! ! ! Y ! ! ! Q ~ ! / ! Q ! ! ! ! ! Q Q Q ! Q Q ! Q ! ! Q Q Q Y Q Q Q Q Y Q Y "
};
