/* XPM */
static char *_8a8aff4a4ce44a8dd3a9149aa5ffe19vfbW2XRgXginWHAY[] = {
/* columns rows colors chars-per-pixel */
"50 50 120 2 ",
"   c #DA7F20",
".  c #DA811F",
"X  c #DE8A1C",
"o  c #DF9019",
"O  c #E08E1B",
"+  c #E29217",
"@  c #E3931A",
"#  c #E4991F",
"$  c #E99D1B",
"%  c #F49D15",
"&  c #F59C18",
"*  c #EDA41F",
"=  c #F7A612",
"-  c #F8A414",
";  c #F9A813",
":  c #F5A31D",
">  c #F9A61B",
",  c #F7AB1F",
"<  c #FBAA1C",
"1  c #D68126",
"2  c #DC8321",
"3  c #DE8B25",
"4  c #D4852B",
"5  c #D38E2C",
"6  c #DE9525",
"7  c #C68B33",
"8  c #CA863C",
"9  c #CE883B",
"0  c #D48936",
"q  c #D88C34",
"w  c #CB973E",
"e  c #E28A22",
"r  c #E38828",
"t  c #E49522",
"y  c #EB9721",
"u  c #ED9D20",
"i  c #E09D2F",
"p  c #EBA122",
"a  c #E3A12A",
"s  c #E8A62F",
"d  c #F7A122",
"f  c #F8A524",
"g  c #F6AE24",
"h  c #FAAB22",
"j  c #F6B425",
"k  c #FBB523",
"l  c #F9BB26",
"z  c #F9B42E",
"x  c #F6B82B",
"c  c #FBBC2B",
"v  c #E4B73C",
"b  c #E9BF3F",
"n  c #F4B934",
"m  c #FABE3B",
"M  c #F9C31C",
"N  c #FCC323",
"B  c #FCC824",
"V  c #F6C72E",
"C  c #FCC22A",
"Z  c #FCCD2D",
"A  c #FCD029",
"S  c #FDC531",
"D  c #FECD33",
"F  c #FCCD3F",
"G  c #FED436",
"H  c #FED43B",
"J  c #FED83D",
"K  c #BF8E4A",
"L  c #AB8F5D",
"P  c #B88351",
"I  c #B58E55",
"U  c #B98D55",
"Y  c #B78958",
"T  c #BC9256",
"R  c #BD995C",
"E  c #9F846F",
"W  c #AB8B6B",
"Q  c #B38D64",
"!  c #AE9166",
"~  c #BB9A63",
"^  c #A18671",
"/  c #A38875",
"(  c #A48974",
")  c #A48975",
"_  c #A58A74",
"`  c #A58A75",
"'  c #A68B75",
"]  c #A48976",
"[  c #A48977",
"{  c #A58A76",
"}  c #A58A77",
"|  c #A68B76",
" . c #A78C77",
".. c #A48974",
"X. c #AD8F70",
"o. c #A58A78",
"O. c #A78C78",
"+. c #A88D78",
"@. c #A98E79",
"#. c #C49042",
"$. c #C79545",
"%. c #CD9840",
"&. c #CE9B44",
"*. c #CE9A45",
"=. c #C5934B",
"-. c #D39C43",
";. c #C09658",
":. c #CDA44E",
">. c #D4A343",
",. c #D6A746",
"<. c #D8A443",
"1. c #D1A64B",
"2. c #D4AA4E",
"3. c #CBA455",
"4. c #D6AB54",
"5. c #F8C540",
"6. c #F9D340",
"7. c #FFDA45",
"8. c #F6C961",
"9. c #FADD6D",
/* pixels */
"] ] ] ] ] / / o.o.] ( ] ] ] ] ] ] ] ] ] ] ..] ] ] ] ] ] ] ] ]  .] ] ] ] ] ] ] ] ] ] ] ] ] ] ] ] / / ",
"] ] ] ] ] / ] ] ] ] ( ] ] ] ] ] ] ] ] ] ] ] ] ] ] ] ] ] ] ] ] ] ] ] ] ] ] ] ] ] ] ] ] ] ] ] ] ] / / ",
"/ / ] ] ] ] ] ] ] ] ] ] ] ] ] ] ( ( ]  .]  .] ] ] ] ] ] ] ( ]  .] ] ]  . .] / ] ] ] ] ] ] ] ] ] / / ",
"] / ] ] ] ] ] ] ] ]  .] ] ] ] ] ] ( ]  . . .] ] ] ] ] ] ] ] ] ]  .]  . .] ] / ] ] ] ] ] ] ] ] ] ] ] ",
"] ] ] ] ] ] ] ]  .] ] ] ] ] ] ] ] ] ]  . .@. . .] ] ] ] ]  .] ]  . . . .] / / ] o.o.o.] ] ] ] ] ] ] ",
"..] ] ( ] ] ] ]  . . .] ] ] ] ] ] ] ]  . .@.@. .] ] ] ] ] ] ] ] ] ]  . .] ] ] ] ] ] ] ] ] ] ] ] ] ] ",
"^ ( ] ( ( ] ] ] ] ]  .( ] ] ] ] ] ] ]  . .@. .] ( ( ] ..( ] ] ] ] ] ] ] ] ] ] ( ( ( ] ] ] ] ] ] ] ] ",
"..( ] ] ( ] ] ] ] ] ] ( ] ] ] ] ] ] ]  . . . .] ..] ] ..( ] ] ] ] ] ] ] ] ] ( ....] ] ] ] ] ] ] ] ] ",
"( ( ( ( ] ] ] ] ] ] ] ] ]  .] ] ] ] ] ] ]  . .] ( ] ] ] ]  .] ] ] ] ] ] ] ] ( ..] ] ] ^ ( ] / / ] ] ",
"( ( ] ( ] ] ] ] ] ] ] ] ]  . .] ] ] ] ] ]  . .] ( ] ] ]  . .] ] ]  .] ] ] ] ( ..] ] ] ^ ..] / / ] ] ",
"] ] ] ] ] ]  . .] ]  . .] ] ]  . .] ]  .]  . .] ] ] ] ] ] ] ] ] ]  . .] ] ] ] ] ] ] ] ] ] ] / / ] / ",
"..] ] ] ] ]  .] ]  . . .] ] ]  . . .]  .]  . .] ] ] ] ] ] ] ] ] ]  . .] ] ] ] ] ( ] ] ] ] ] / / ] ] ",
"..] ( ( ] ] ] ]  . .] ] ] ]  .] ] ]  . .]  . .]  .] ] ] ]  .] ] ] ] ] ] ] ] ] ] ( ] ] ] ../ / / ] ] ",
"] ] ] ] ] ] ] ]  . .] ] ] ]  .] ] ]  . .~ 4.*.w %.&.Q ] ] ] ] ] ] ] ] ] ] ] ] ] ] ..( ..../ / ../ ] ",
"] ( ] ] ] ] ] ]  . .] ] ] ]  .] ] ]  .~ 6.7.5.$ $ * a W ] ] ] ] ] ] ] ( ( ] ] ] ] ..( ......( ( ] ] ",
"] ] ( ] ] ] ] ] ] ] ] ] ] ] ] ] ] ] ( b N M H 8.x l j >.] ] ] ] ] ] ] ] ] ] ( ] ] ( ( ........( ] / ",
"] ] ]  .] ( ] ] ] ] ] ] ( ] ] ] ] ] R B B A M 9.S C C x W ] ] ] ] ] ] ] ] ] ( ( ( ( ( ......( ( ] / ",
"] ] ]  .] ] ] ] ] ] ] ] ( ] ] ] ] ] 2.B G J Z F m j x j ;.] ] ] ] ] ] ] ] ] ] ] ( ( ( ../ / ] ] / / ",
"] ] ]  . . .] ]  . .] ] ] ] ] ( ] X.v D H G G C m j g g w ] ] ] ] ( ] ] ] ] ] ] ] ] ( ( ] ] ] ] / / ",
"] ] ]  . . .] ]  . .] ] ] ] ] ] ] ! V G D Z G C n p $ : 7 ] ] ] ] ( ] ] ] ] ] ] ] ] ( ( ] ] ] ] / / ",
"] ] ] ] ] ] ] ] ] ] ] ] ] ] ] ] ] L D D D D D C x @ @ $ 5 ] ] ] ] ] ] ] ] ] ( ( ] ] ( ( ( / / / / / ",
"] ] ] ] ] ] ] ] ] ] ] ] ] ] ] ] ] 3.Z D S D S c z @ @ @ 6 ] ] ] ] ] ] ] ] ] ] ( ] ] ( ( ..^ ^ ^ ^ ^ ",
"( ( ] ] ] ] ]  .] ]  .] ] ] ] ] ] :.C C C C l c j # @ + 6 ..] ] ] ] ] ] ] ] ] ] ] ] ....^ ^ ....^ ^ ",
"] ] ( ( ] ] ] ] ] ] ] ] ] ] ] ] ] 1.N D C l c c g # o @ t ] ] ] ] ] ] ] ] ] ] ] ] ] ^ ^ ^ ........^ ",
"] ] ] ] ] ] ] ] ] ] ] ] ] ] ] ] ] ,.l D k < l c , # X O 3 ] ] ] ] ] ] ] ] ] ] ] ] ] ^ ^ ^ ........^ ",
"] ( ..] ] ] ] ] ] ] ] ] ] ]  . .] <.k S ; = c C > @ X X 2 ] ] ] ] ] ] ( ( ( ..] ] ..^ ^ ^ ..] ] / ^ ",
"( ....] ] ] ( ..] ]  . .] ]  . .] -.< k - ; S k > e 2 2 1 ] ] ] ] ] ] ] ......] ] ] ^ ^ ....] ] / ^ ",
"( ....] ..( ( ( ]  . .] ] ]  . .] $.< h % - k > : e 2 2 1 ] ] ] ] ] ] ] ......] ] ] ..^ ....] ] / ^ ",
"( ( ] ] ^ ..] ] ] ] ] ] ] ] ] ] ] K > < % % < < d 2 . . 4 ] ] ] ] ( ( ] ] ] ] ] ] ....( ..........^ ",
"..] ] ] ( ( ] ] ] ] ] ] ] ] ] ] ] T h < < , < > : 2   . 4 ] ] ] ] ( ] ] ] ] ] ] ] ....( ] ] ..^ ^ ^ ",
"..] ] ] ] ] ] ] ] ] ] ] ]  .] ] ] Q d < < < < > u 2 . . 0 ] ] ] ( ] ] ( ] ] ] ..^ ....^ ....^ ^ ^ ^ ",
"] ] ] ] ] ] ] ] ] ] ] ] ] ] ] ] ] W 6 < < < < > y   2   8 ] ] ] ( ] ] ] ( ] ] ..^ ....^ ^ ^ ^ ^ ^ ^ ",
"] ] ] ] ] ....] ] ] ] ( ( ] ] ] ] ] #.> < < > > 2   2 . P ] ] ( ] ] ] ] ] ..^ ^ ..............^ ^ ^ ",
"] ] ( ] ] ....] ] ] ( ( ( ] ] ] ] ] I : > < - : .     2 W ] ( ] ] ] ( ( ] ..^ ..^ ....^ ^ ^ ^ ^ ^ ^ ",
"( ( ( ] ] ....] ] ] ] ] ] ] ] ] ] ] W s - & > t 2 2 2 9 ( ] ( ] ] ] ( ( ] ] ....^ ....^ ^ ^ ^ ^ ^ ^ ",
"( ( ( ] ( ....( ] ] ] ] ] ] ] ] ] ] ] U h h f r r r 3 Q ( ] ] ] ( ] ] ] ] ] ] ] ^ ^ ^ ^ ^ ^ ^ ^ ^ ^ ",
"( ( ] ] ] ....( ] ] ( ( ] ] ] ] ] ] ] ( =.i q 0 0 0 Y ] ] ] ] ] ..( ] ] ] ] ( ( ^ ^ ^ ^ ^ ^ ^ ^ ^ ^ ",
"] ( ] ..] ] ..( ] ] ( ( ] ] ] ] ] ] ] ] ] ] ] ] ] ] ] ] ] ] ] ] ..( ] ( ( ( ( ( ^ ^ ^ ^ ^ ^ ^ ^ ^ ^ ",
"........] ] ] ( ] ] ( ( ( ( ] ] ] ] ] ] ] ] ] ] ] ] ....] ] ] ] ] ] ( ( ( ] ....^ ^ ^ ^ ^ ^ ^ ^ ^ ^ ",
"........] ] ] ( ] ] ( ( ( ] ( ( ] ] ] ] ] ] ] ( ] ] ........] ] ] ] ( ( ( ( ....^ ^ ^ ^ ^ ^ ^ ^ ^ ^ ",
"..........] ] ] ] ] ( ( ( ] ..( ] ] ] ] ] ] ] ] ] ] ( ( ( ( ] ] ] ] ] ............^ ^ ^ ^ ^ ^ ^ ^ ^ ",
"..^ ^ ........] ] ] ..] ( ....] ] ] ] ] ] ] ] ] ] ] ] ( ( ] ] ] ] ............] ] ^ ^ ^ ^ ^ ^ ^ ^ ^ ",
"..^ ^ ........] ] ( ..] ] ] ] ] ] ] ( ( ( ( ( ( ] ..^ ^ ..] ] ] ] ............^ ^ ^ ^ ^ ^ ^ ^ ^ ^ ^ ",
"^ ..........^ ..] ] ( ( ] ] ] ] ( ( ( ..( ] ..^ ........( ( ....^ ] ] ..^ ^ ^ ^ ^ ^ ^ ^ ^ ^ ^ ^ ^ ^ ",
"^ ^ ........^ ..] ] ] ] ] ( ] ( ..] ( ..( ] ^ ^ ........] ] ....^ ] ] ..^ ^ ..^ ^ ^ ^ E E ^ ^ ^ ^ ^ ",
"^ ....^ ......] ] ] ] ....( ( ( ( ] ( ( ( ..^ ..] ....................^ ^ ....^ ^ ^ ^ E ^ ^ ^ ^ ^ ^ ",
"^ ....^ ......( ..( ] ....( ..( ] ..] ] ] ( ] ] ] ] ( ( ......................^ ^ ^ ^ ^ ^ ^ ^ ^ ^ ^ ",
"^ ^ ..^ ..........( ] ..] ( ..( ] ..] ] ] ] ] ] ] ] ( ( ..............( ] ....^ ^ ^ ^ ^ E ^ ^ ^ ^ ^ ",
"^ ^ ......^ ....] ] ] ..] ......( ..] ] ] ] ] ....] ( ] ......................^ ^ ^ ^ ^ ^ ^ ^ ^ ^ ^ ",
"^ ^ ..] ] ^ ^ ] ] ] ] ........] ( ( ] ] ] ] ..^ ..] ( ( ....^ ^ ..............^ ^ ^ ^ ^ ^ ^ ^ ^ ^ ^ "
};
