/* XPM */
static char *_e62ae0c97174903cc534c121c9950dfRe8gQGd9wTiiSMoE[] = {
/* columns rows colors chars-per-pixel */
"50 50 235 2 ",
"   c #060100",
".  c #0E0100",
"X  c #0E0800",
"o  c #120200",
"O  c #190200",
"+  c #140B01",
"@  c #1C0C00",
"#  c #140A09",
"$  c #1C1109",
"%  c #230E00",
"&  c #280F00",
"*  c #221200",
"=  c #2F1A07",
"-  c #301B03",
";  c #3C2906",
":  c #3A2B19",
">  c #3F3100",
",  c #3A2925",
"<  c #473408",
"1  c #523900",
"2  c #443214",
"3  c #493619",
"4  c #422C11",
"5  c #5C431B",
"6  c #644E00",
"7  c #655001",
"8  c #6B5300",
"9  c #64521C",
"0  c #614C17",
"q  c #7E6505",
"w  c #7B6B19",
"e  c #6F601B",
"r  c #5C4521",
"t  c #584736",
"y  c #685629",
"u  c #654C38",
"i  c #6B553A",
"p  c #766831",
"a  c #5B4541",
"s  c #5C5246",
"d  c #6C584A",
"f  c #765E46",
"g  c #655253",
"h  c #746547",
"j  c #7B675C",
"k  c #8D7300",
"l  c #957C00",
"z  c #9A7C00",
"x  c #907700",
"c  c #877515",
"v  c #8E6F00",
"b  c #A37E00",
"n  c #8D782E",
"m  c #836D5C",
"M  c #8D7456",
"N  c #877258",
"B  c #907758",
"V  c #806F65",
"C  c #867464",
"Z  c #8A7565",
"A  c #8C7B6A",
"S  c #967F6C",
"D  c #957F70",
"F  c #9C8200",
"G  c #9A840C",
"H  c #A28500",
"J  c #AB8400",
"K  c #A48A01",
"L  c #AB8E00",
"P  c #A78B0B",
"I  c #B48E00",
"U  c #AC9301",
"Y  c #AE930C",
"T  c #B39501",
"R  c #B59B01",
"E  c #BB9B02",
"W  c #BA9B0C",
"Q  c #B4990A",
"!  c #AA9318",
"~  c #B69E15",
"^  c #B79914",
"/  c #A88F1B",
"(  c #BDA203",
")  c #BFA209",
"_  c #BEA815",
"`  c #BDA41A",
"'  c #988626",
"]  c #998C30",
"[  c #A6962C",
"{  c #B19B2B",
"}  c #AB9832",
"|  c #A69133",
" . c #BEA422",
".. c #BFAC39",
"X. c #C29E03",
"o. c #C2A402",
"O. c #CCA500",
"+. c #CCAB02",
"@. c #C2A30A",
"#. c #CAA70A",
"$. c #CCAC0C",
"%. c #C5A80F",
"&. c #D1AC07",
"*. c #CCB10A",
"=. c #CFB405",
"-. c #DAB401",
";. c #D4B40A",
":. c #D7B708",
">. c #C3A514",
",. c #CCAC13",
"<. c #CAAC1A",
"1. c #C5A71B",
"2. c #D1AE12",
"3. c #CDB215",
"4. c #CEB118",
"5. c #D3B213",
"6. c #DBB913",
"7. c #D3B31B",
"8. c #D8BA19",
"9. c #E3BB01",
"0. c #E1BA0B",
"q. c #E3BD18",
"w. c #C3A423",
"e. c #D7B925",
"r. c #C4AD38",
"t. c #CBB43C",
"y. c #D2BB3A",
"u. c #C3B026",
"i. c #EBC305",
"p. c #F5CC03",
"a. c #F6CE07",
"s. c #F5D201",
"d. c #FAD503",
"f. c #FEDA04",
"g. c #FCD40B",
"h. c #F9D40A",
"j. c #EAC318",
"k. c #F5CC1B",
"l. c #F5CB16",
"z. c #F4D115",
"x. c #FCD412",
"c. c #FCDA13",
"v. c #FCD51C",
"b. c #FDD91D",
"n. c #F5D815",
"m. c #E9D01E",
"M. c #E5C32C",
"N. c #E8C726",
"B. c #F5CD26",
"V. c #F3D325",
"C. c #FBD523",
"Z. c #F3D32A",
"A. c #FDDB2C",
"S. c #F7D928",
"D. c #E7CA37",
"F. c #EED230",
"G. c #FCDB3B",
"H. c #F8D834",
"J. c #FFE43F",
"K. c #F6E126",
"L. c #A89A4C",
"P. c #B7A54B",
"I. c #96846C",
"U. c #9E846E",
"Y. c #9D8A6C",
"T. c #9A8666",
"R. c #9E8572",
"E. c #9E8A72",
"W. c #9A837A",
"Q. c #978576",
"!. c #A2866D",
"~. c #A38A6D",
"^. c #A08865",
"/. c #A8916E",
"(. c #A28673",
"). c #A48A74",
"_. c #A88B75",
"`. c #A3867A",
"'. c #A48A7A",
"]. c #AA8D7B",
"[. c #AB8579",
"{. c #A49072",
"}. c #A5927C",
"|. c #AB927C",
" X c #B0947C",
".X c #B4A274",
"XX c #C2AD40",
"oX c #D2BE4D",
"OX c #DACE51",
"+X c #F7DA48",
"@X c #F6DC5B",
"#X c #E6CF4F",
"$X c #FEE344",
"%X c #FFE64A",
"&X c #FFEA49",
"*X c #FEE25A",
"=X c #FFEA5B",
"-X c #F5DB67",
";X c #ECD574",
":X c #FEE768",
">X c #FAE879",
",X c #EAE06D",
"<X c #9E9188",
"1X c #A68A82",
"2X c #A68A84",
"3X c #AB9385",
"4X c #AA9589",
"5X c #A89786",
"6X c #B29C8C",
"7X c #B19683",
"8X c #B49D93",
"9X c #A19F90",
"0X c #B7A58C",
"qX c #A8A495",
"wX c #B5A495",
"eX c #DBD684",
"rX c #E6DE89",
"tX c #F2DE96",
"yX c #E3DA95",
"uX c #FFE88A",
"iX c #ECE195",
"pX c #FAE999",
"aX c #FFF39A",
"sX c #F8F280",
"dX c #EBD8AE",
"fX c #F6E6A7",
"gX c #FEF5B7",
"hX c #ECE3AA",
"jX c #CAC5A8",
"kX c #D7C4C0",
"lX c #FFFBCC",
"zX c #FFFDD3",
"xX c #FFFED9",
"cX c #FFF6D8",
"vX c #FFFCED",
/* pixels */
"2X1X'.).).).).'.`.'.).)._.).).).).).).).].].[.[.[._._._.).).).~.~._._._.).).).).).~.Y.E.'.`.).).(.(.",
"1X'.'.).).).).'.'.'.).)._.).).).).).).).)._.].].]._.).).).).).).).).)._.).).).).).).E.E.).).).).(.(.",
").).).).).).'.'.'.'.).).).).'.'.'.'.'.].).).).).).~.~.).).'.'.'.'.'.'.).).).'.'.`.'.E.E.~.).).(.(.(.",
"~.~.).).).).).).'.'.).).).).'.'.'.`.).).).).).{.{.{.).).).).`.'.'.'.].).).'.'.'.`.`.'.).~.~.(.(.(.(.",
"~.~.).).).).).).).'.).).).).).'.]._._.).).).).).).).).).).).].].'.'.'.'.'.'.'.'.'.'.'.'.).).(.(.(.(.",
").).'.'.).).~.).'.'.).).~.).).).).)._.).'.'.).).!.).'.'.).).).).).'.'.'.'.).).).).'.'.`.'.).).).(.(.",
"(.'.'.'.).~.).).'.'.'._.~.~.).).).).].].|.7X X|.|.].7X].].].)._.).).).).).).~.~.~.).`.`.'.).).).(.(.",
"`.'.'.'.).).).'.1X1X'._.~.~.~.).).E.I.Z M M B M M M M N Z S U.).).).).).).).~.~.~.).'.`.'.).).).(.(.",
").).).).).).'.`.2X1X].~.~./.T.}.5X0Xm . . o . . . . o o . : 0X}.3X(._._.).(.).~.~.~.).'.'.'.).).(.(.",
").).).).).).`.`.2X'.).~.Y.).6Xm : ; y L.] ' ' c w c c w p 9 < 2 u 7X_.U.].'.(.).~.~.).).'.'.).).(.(.",
").).).).).).'.'.).|.~.~.}.Q.2Xd @ @ 7 :X$XH.H.B.q.6.8.e.y.c @ O ; T.S ].(.`.'.R.).~.~.).`.`.).).(.(.",
").).).).).).).)._.~.~.).'.8Xo t fX;X*XN.V.b.x.x.x.b.l.+.$._ { P.n O f 8XR.].'.'.).).~.).`.`.).).(.(.",
").).).).).).).~./.~._.}.j t C .XuX*X$XS.;.o.$.#.#.2.E E ;.+.>.~ / 8 5 i ).E.Y.E.'.'.).).'.'.).~.(.(.",
"'.).).).).).).).~.{.I.8Xt . lXgX-X=XF.Z.R l z z z H l H o.6.5.>.W t.1 O ~.)._.).'.'.).).).).).).(.(.",
"'.).).).).'.'.).(.3X4Xo V zXeX>X>X^ K F o.$.$.$.,.#.2.$.J F H @.3.) ! ] O u 0XU._.~.`.`.).).).(.(.(.",
").).).).).'.'.'.}.j g s 0XgXsXOXy.^ Y L 5.N.M.M.M.M.e.,.E T L ( ( ( _ ! 1 5 f R.~.~.(.`.).).).(.(.(.",
"~.~.).].).).].).5X: $ vXgX;X>Xy.x 1.e.e.+X=X*X:X:X:XD.,.;.=.6.L F e.@.W t.7 o Q.].!.].U.).).).(.(.(.",
"~.~.).'.'.'.].E.wX: + cXpX>X! ~ >.D.+X+X1.Y Y Y P K U K m.k.+.+.) H o.,.w.6 o I.7X(.R.).).(.).(.(.(.",
"~.).).'.'.1X'.Q.V s t gXuX@XP L 8.G.$X%X^ x l K R U K F 2.q.0.:.#.z E 3.>.q > p m '.).).(.).'.(.(.(.",
").'.).'.`.'.'.A . qXxXyX>X:XH T 3.H.A.H.^ l z 3.S.S.$.F z T A.:.o.b ) 4.W  .L.+ 3 3X].(.).'.(.(.(.(.",
"'.'.).).'.`.'.Z   qXzXiXoX~ W ,.F.A.C.S.Q z l $.n.n.*.z z E C.9.+.X.T U #.` } * 2 4XR.R.'.'.R.).(.(.",
").).).).'.).}.C . 9XzXpXr.l ,.F.&XV.z.v.W H z *.c.c.*.z b X.z.9.-.6.L F 5.<.[ + 3 4XR.'.(.(.).(.(.(.",
").).).)._.!.|.C   qXxXtXXXl #.N.$XZ.a.x.E l l 3.C.A.2.z z T c.g.a.0.U K $.@.} @ 2 5X`.).U.).].R.(.(.",
"_.).).).~.T.|.C   qXxXfXXXl $.j.%XZ.a.x.E z F T O.O.I b O.-.h.g.p.-.U F ;.,.} @ 2 4XR.(.).~.R.R.(.(.",
").).E.).~.~._.C   9XxXpXXXl $.N.$XS.g.g.( l F F J J b J z.c.d.g.p.-.U F ;.,.} @ 2 5X`.(.).~.(.R.(.(.",
").).E.).).~.}.C   qXzXtXr.l $.N.%XS.p.c.o.l l <.B.k.l.z.s.s.d.g.g.-.R F $.,.} @ 2 4X`.).).).R.R.(.(.",
").).).).'.'.3XC   9XlXpX..l 4.N.%XV.a.c.T l l 7.C.x.g.g.s.f.f.i.j.6.L F 5.>.[ + 2 4XS (.).(.R.).(.(.",
"'.).).'.`.`.].C   qXzXiXr.l >.M.%XZ.v.b.R F F ,.b.p.s.s.d.s.p.9.O.5.R F $.<.[ * 3 6X(.).).).(.).(.(.",
").).).'.`.`.'.Z . wXlXiX,X#XU W 8.H.A.V.Q l z 5.b.s.d.d.s.g.x.i.$.H R 3.@.` P.. : 3X].).U.'.).R.(.(.",
").(.).'.'.'.].D : A jXhXuX-XK L 7.G.G.G.~ F F $.v.g.d.d.g.g.i.-.o.H E 3.>.G w < i '.U.).U.(.(.R.(.(.",
"~.~.'.).].).).R.wX: X cXpX-XF Y e.G.%X=X~ k l ,.C.x.a.g.x.i.-.6.#.z o.,.1.6 o E.].}.U.).~.T.U.(.(.(.",
"~.~.'.`.].).).E.3X, # vXgX;X#Xu.H e.M.e.D.D.D.H.J.A.b.9.9.0.:.T L @.@.W r.7 o A '.(.!._.T.!.).(.(.(.",
"~.).'.`.`.).~.Y.}.a , kXdXiXsXOXP w.w.>.F.J.$XG.G.G.N.+.#.,.%.I L 2.%.Y ] 0 - W.).).(.!.(.(.(.!.U.U.",
"~.).'.`.'.).~.~.E.3X2Xo I.lXrX,X:XY v l o.6.$.7.<.7.8.,.L z z @.5.E  .} O r 6XW.).).(.).(.(.!.U.U.U.",
"~.~.'.`.`.).).~.).'.W.d d h fXaX@X8.=.=.R U U Y Q U U R T ( o.$.$.` v 1 y N Y.Y.~.!.(.).(.(.U.U.U.U.",
"~.~.).`.`.(.).~.~.~.).wXt . dXfX-XG.S.K.R F H F z H F K =.:.*.3.` { 1 & |.}.Y.T.~.(.).).).(.(.U.U.U.",
"~.).).).).).).~.~.T.Y.).}.W.o i aX:X&Xm.z.z.l.k.v.C.j.+.;.$.` r.' O y |.I.Y.Y.{.R.(.).!.!.!.R.R.R.U.",
").).).).).).(.)._._.{.U.'.2Xa i n c ! +XZ.C.k.k.j.j.q.5.<.! 6 6 9 r N }.{.Y.I.E.(.(.).!.!.!.(.R.(.(.",
"'.).(.).).(.).).(.)._.Y.).R.wXd o . 1 pXOX#X#Xy.w.r.r...P.e o . = 6XE.Y.E.E.|.I.(.).).).!.!.(.(.(.(.",
"'.`.(.).).(.(.`.).).(.).).).R.Q.Q.E.h @ * * - % & % * * o 2 E.D 1XW.).Y.E.E.).).(.).).(.!.U.R.(.(.(.",
"`.(.(.(.).).).(.(.).).).).).~.).'.].N 2 2 2 3 4 2 2 2 2 4 i ].).'.'.).E.(.(.(.(.!.!.(.(.(.(.R.R.(.(.",
"(.(.(.(.).).).).(.).'.).).).~.).(.'.].].6X3X3X4X}.4X3X4X3X].].!.).).).).(.(.).(.!.!.(.(.(.R.R.R.U.U.",
"!.!.(.(.).).).~.!.).).'.'.).).).).).).).'.`.Q.).~.).D R.].(.U.).).).).!.!.!.).(.(.(.(.(.(.R.R.U.U.U.",
"~.!.(.(.).).~.~.~.).).'.'.'.).).)._.).).R.'.).~.~.).).'.).(.).!.).~.!.!.!.!.).(.(.(.(.(.(.R.U.!.U.U.",
"~.~.).).).).~.~.~.~.).'.'.`.'.).).!.).1X'.).).E.).).'.).U.).|.).).).).~.~.~.).(.(.(.(.(.(.(.!.!.U.U.",
"~.~.).).(.(.).~.).).).).).).).)._.).'.'.).).).).).).).).).).(.(.).).).~.~.~.(.(.(.R.R.R.(.(.!.!.(.R.",
"R.R.(.).(.).).(.).).'.).).).).).(.).).).).).'.(.'.).~.~.).).R.].`.(.).).).(.(.R.R.R.U.Y.^.!.(.`.(.U.",
"R.R.R.).).).).).`.`.'.).).).~.).).].).).).).(.'.).)._.).U.R.(.(.`.(.(.).).(.(.R.R.R.U.!.^.!.`.`.R.U.",
"(.(.(.).).(.(.).(.).).).).).(.!.).).).).).).).).).).).).(.(.(.(.(.(.(.(.(.(.(.(.(.U.U.U.!.!.(.(.R.U.",
").R.U.).).(.(.).(.).).).).).(.(.).).).).).).).).(.(.).).(.(.(.(.(.(.(.(.(.(.(.(.(.U.U.U.(.(.(.(.U.U."
};
