/* XPM */
static char *_f06853237234106aaf32367e89d4257aH5cES43vXfaKZN9[] = {
/* columns rows colors chars-per-pixel */
"50 50 231 2 ",
"   c #020201",
".  c #0C0202",
"X  c #030B02",
"o  c #0E0C04",
"O  c #00030C",
"+  c #090509",
"@  c #0B0B0A",
"#  c #060C0B",
"$  c #130C04",
"%  c #180C04",
"&  c #0D130F",
"*  c #141209",
"=  c #18120A",
"-  c #060A15",
";  c #110F12",
":  c #00141E",
">  c #091B1E",
",  c #081518",
"<  c #141411",
"1  c #191514",
"2  c #1D1C13",
"3  c #121B1C",
"4  c #181A18",
"5  c #21180F",
"6  c #261C15",
"7  c #29240C",
"8  c #39300F",
"9  c #24231D",
"0  c #28241C",
"q  c #2B2A1C",
"w  c #2A2418",
"e  c #3D2B1C",
"r  c #38311E",
"t  c #021223",
"y  c #031824",
"u  c #0C1A23",
"i  c #091B29",
"p  c #05182D",
"a  c #161E26",
"s  c #001E34",
"d  c #241E23",
"f  c #0B252A",
"g  c #1B2323",
"h  c #15252B",
"j  c #172929",
"k  c #032335",
"l  c #032339",
"z  c #0C2938",
"x  c #122631",
"c  c #162C35",
"v  c #19333B",
"b  c #232424",
"n  c #2B2222",
"m  c #2B2B24",
"M  c #22252C",
"N  c #252B2D",
"B  c #2C2B2D",
"V  c #322D22",
"C  c #362E28",
"Z  c #2D352F",
"A  c #3C3429",
"S  c #393528",
"D  c #262E35",
"F  c #27333A",
"G  c #383938",
"H  c #463223",
"J  c #473927",
"K  c #433D37",
"L  c #464236",
"P  c #494232",
"I  c #47453B",
"U  c #53493C",
"Y  c #5B4C39",
"T  c #574A35",
"R  c #64523D",
"E  c #0B2B49",
"W  c #122D42",
"Q  c #08314A",
"!  c #183749",
"~  c #0E3354",
"^  c #0E375A",
"/  c #193D54",
"(  c #173B56",
")  c #243745",
"_  c #3A3A41",
"`  c #103D63",
"'  c #15455C",
"]  c #0B485D",
"[  c #22424F",
"{  c #3F4441",
"}  c #274756",
"|  c #374F59",
" . c #09456B",
".. c #074365",
"X. c #154463",
"o. c #16486A",
"O. c #17506B",
"+. c #3E5F68",
"@. c #484A4B",
"#. c #574B43",
"$. c #53534C",
"%. c #5A594A",
"&. c #4C5658",
"*. c #595956",
"=. c #4D5347",
"-. c #635545",
";. c #66584B",
":. c #745A4B",
">. c #685B54",
",. c #755F52",
"<. c #5A6056",
"1. c #66624F",
"2. c #6D635A",
"3. c #696659",
"4. c #74675A",
"5. c #71705B",
"6. c #7A614D",
"7. c #4C5660",
"8. c #506868",
"9. c #686967",
"0. c #776E63",
"q. c #797467",
"w. c #7B7977",
"e. c #677071",
"r. c #846D58",
"t. c #83725E",
"y. c #8D7C6C",
"u. c #867666",
"i. c #917B68",
"p. c #8B7E71",
"a. c #887C77",
"s. c #9C7F71",
"d. c #806C65",
"f. c #7C826C",
"g. c #8A826B",
"h. c #94836E",
"j. c #9E846E",
"k. c #9D896D",
"l. c #878577",
"z. c #938475",
"x. c #9E8571",
"c. c #9E8B74",
"v. c #968379",
"b. c #9B857A",
"n. c #958A7C",
"m. c #9D8C7A",
"M. c #989577",
"N. c #A4866E",
"B. c #A48B6E",
"V. c #AB896E",
"C. c #AF876E",
"Z. c #A28672",
"A. c #AA8773",
"S. c #A48A74",
"D. c #AA8B75",
"F. c #A4877A",
"G. c #A48B7A",
"H. c #A98D7A",
"J. c #A88778",
"K. c #B18970",
"L. c #A4937D",
"P. c #AB927C",
"I. c #A79275",
"U. c #B0947E",
"Y. c #6A7382",
"T. c #8A8B86",
"R. c #8B8682",
"E. c #9F8F81",
"W. c #938A83",
"Q. c #9C9184",
"!. c #9D9289",
"~. c #9D9592",
"^. c #A48D82",
"/. c #A98D84",
"(. c #A69384",
"). c #AB9483",
"_. c #A4968B",
"`. c #A9958A",
"'. c #AC998B",
"]. c #A89886",
"[. c #B49A87",
"{. c #AC9D93",
"}. c #B49E91",
"|. c #A2A28B",
" X c #AFA083",
".X c #B5A089",
"XX c #A6A494",
"oX c #ACA895",
"OX c #BBAA95",
"+X c #BBB09D",
"@X c #B7BA9F",
"#X c #B3ABA5",
"$X c #B4B3A4",
"%X c #BDBCAA",
"&X c #BCB8A4",
"*X c #BBB9B6",
"=X c #AAABA1",
"-X c #C6B29B",
";X c #CBB39C",
":X c #C7A997",
">X c #CBAFA1",
",X c #C4BBAA",
"<X c #C9B8A6",
"1X c #D3B5AA",
"2X c #BBC2B0",
"3X c #C8C6AF",
"4X c #CCC8B5",
"5X c #D3CBB7",
"6X c #DBD5BF",
"7X c #DAD8C8",
"8X c #D2D2CB",
"9X c #E3DACB",
"0X c #E4DDD5",
"qX c #DFE1CC",
"wX c #E7E2CB",
"eX c #EFE8D3",
"rX c #EDEDD9",
"tX c #E6E7D2",
"yX c #F3EDD9",
"uX c #F5F5DE",
"iX c #F9F4DE",
"pX c #FAF8D9",
"aX c #FBF4E3",
"sX c #F6F9E3",
"dX c #FEFEE6",
"fX c #FEFEEC",
"gX c #F6F5E6",
"hX c #FEFEF2",
"jX c #FCFEFE",
"kX c #F8F9F8",
"lX c #E5E9E8",
/* pixels */
"S.S.S.S.D.D.D.S.D.S.S.S.S.S.S.G.G.G.S.S.I.H.S.H./.S.D.Z.N.j.S.S.V.B.S.c.S.S.D.A.H.J.S.S.B.B.S.S.S.S.",
"S.S.S.S.S.D.S.S.S.S.S.S.S.S.S.G.F.G.H.S.S.D.H.G.F.F.S.S.).[.).G.D.S.c.G.S.S.A.D.D.S.S.S.S.B.S.S.S.S.",
"S.S.S.S.S.S.S.S.S.S.S.S.S.S.S.S.S.H.D.D.D.D.D.S.F.`._.p.4.;.>.a.).S.J.S.H.S.H.H.H.S.S.S.S.S.S.S.S.S.",
"S.S.S.S.S.S.S.S.S.S.S.S.G.G.S.S.S.N.N.D.D.A.H.'.W.*.G 3 u a u , 9.`.F.J.Z.P.c.S.S.S.S.S.S.S.S.S.S.Z.",
"S.S.S.S.S.S.S.S.S.S.S.S.G.G.G.S.I.B.I.S.m.{.R.@.h t Q ' X.o.O.( u w./.F.Z.H.S.c.S.S.S.c.m.F.S.S.S.Z.",
"S.S.S.S.S.S.S.S.S.S.S.S.G.G.G.H.k.k.m._.T.@.u k ( o.O.......] ' z D ~.^.G.Z.G.S.B.B.S.S.G.F.S.B.S.S.",
"S.S.S.S.D.S.S.D.S.S.S.S.G.G.G.S.S.[.!.*.i k ' o. . .^ X./ z j j } y *._.b.H.Z.D.A.S.S.S.G.F.S.S.S.S.",
"S.S.D.D.D.S.S.D.S.S.S.S.S.G.G.G.'.2.b i ( o..... .o.o.} h w.|.I v ! > R.].S.Z.D.A.D.S.S.G.G.S.S.S.S.",
"S.S.S.S.S.S.S.S.S.S.Z.H.S.S.).n._ y ! ( ^ o.o.X.^ E z a   5.M.7 x [ c g z.S.D.K.D.J.G.G.S.S.S.S.S.S.",
"S.S.S.S.D.D.S.S.Z.S.S.H.G.P.r.5 x / Q ~ ( E s l ! | 7.9.9.r 8 J ) p c 3 J P.V.C.D.G.F.G.S.S.S.S.S.S.",
"S.S.S.S.D.D.D.S.S.S.H.S.S.P.r.$ c s W z i F e.e.9.&.{ Z m o . $.e.Y.&.# 2.).N.V.S.F.m.c.S.S.S.S.S.S.",
"S.S.S.S.D.D.D.S.D.Z.S.H.x.H.G.2.- ) F h 9.w.G *     X # & < 1 + - - M b !.).D.D.S.c.m.c.S.S.S.S.S.S.",
"S.S.S.S.D.D.S.S.D.Z.S.P.S.S.P.E.4 , g b + @ ; b N N N g g a b d d B 1 = % :.S.N.S.S.c.S.S.S.S.S.S.S.",
"S.S.S.S.S.S.S.S.Z.S.S.S.G.S.S.m.0.4 3.*.0 * 1 b g D Z G { G K G B n 6 % . e F.P.S.S.S.S.S.S.S.S.S.S.",
"S.S.S.S.S.S.S.S.Z.S.S.Z.S.G.S.G.{.U yXfXaX5X9.C $.m 9 * * $ 1 < 9 L w Y m.`.m.S.S.A.A.A.S.G.S.S.S.S.",
"S.S.S.S.S.S.S.S.D.S.S.S.S.S.S.G.y.w 3XfXdXuXq.2 9.kXgX7X4X0X=Xo T.hX0.0.'.b.G.S.A.A.D.A.J.G.S.S.S.S.",
"D.S.S.S.S.S.S.S.S.S.Z.S.S.G.G.Y T %.P %.XXXX%.m   n l.0XhX#XB @ $.8X;.4.).S.H.Z.S.S.S.S.S.S.S.G.S.S.",
"D.S.S.S.S.S.S.S.H.H.H.H.S.S.G.J eXtXtXoXq     ~.*Xw.2 q I *   e.T.0 = p.G.S.Z.H.S.H.S.S.S.S.S.S.S.S.",
"D.S.S.S.S.S.S.S.Z.S.S.S.S.S.P.J 4XM.7XfXf.  < jXjXjX*X$.7X2   lXjXw.V z.L.Z.S.S.S.S.S.S.S.S.S.S.S.S.",
"S.S.S.S.S.S.S.S.S.S.S.S.S.S.P.R m.4X|.fXf.    w.kXjX=.l.fXq   e.8XV A z.(.S.P.Z.S.H.S.S.S.S.S.S.S.S.",
"S.S.S.S.S.S.S.S.H.H.S.S.S.D.H.i.H wXoXuX$X  <   N Z   %X3X3.  2 * = K E.c.S.j.H.S.H.S.S.S.S.S.S.S.S.",
"S.S.S.S.S.S.S.S.Z.Z.S.S.S.H.S.P.6.J 5XuXfXK 0 $.G < 3.rXq.&Xw L V U -.'.x.S.P.j.S.S.S.S.S.S.S.S.S.S.",
"S.S.S.S.S.S.S.S.H.S.S.H.S.S.Z.H.U.r.7 +XfX9X4.%.%.l.gXfXp.XX7Xq.$XQ.U '.G.H.S.S.S.S.S.S.S.S.S.S.Z.Z.",
"S.S.S.S.S.S.S.S.H.S.S.S.S.S.P.S.B..X-.n.aX5XyXiXsXfXdXfX9XiXfXtXaX(.Y ].G.x.H.S.S.S.S.S.S.S.S.S.Z.Z.",
"S.S.S.S.S.S.S.S.S.S.S.S.S.S.S.H.B.I.2.q.aX6XpXpXdXsXrXrXdXfXsXqXaX;.4.).S.H.D.S.S.S.S.S.S.S.S.Z.Z.Z.",
"S.S.S.S.S.S.S.S.S.S.S.S.S.S.S.H.B.L.z.A eXfXpXpX@Xl.f.5.g.wXsXfX,XH (.G.H.S.S.H.S.S.S.S.S.S.S.Z.Z.Z.",
"S.S.S.S.S.S.S.S.S.S.S.S.S.S.S.H.S.k.].2.P yXfXuX%X%X|.&X3XiXfX,Xe u.).S.H.S.S.S.S.S.Z.S.S.S.S.S.Z.Z.",
"S.S.S.S.S.S.S.S.S.S.S.S.S.S.S.H.H.P.G.].;.L $XgXhXhXhXfXfX4X4.A i.).S.S.H.P.S.S.S.S.S.S.S.S.S.S.S.S.",
"S.S.S.S.S.S.S.S.S.S.S.S.S.S.S.S.Z.D.Z.G.#X$.  B *.w.q.#.A P -.).S.G.S.x.H.B.S.S.S.S.S.S.S.S.S.S.S.S.",
"S.S.S.S.S.S.S.S.S.S.S.S.S.S.S.S.S.S.H.^.w.M F O   @.G + @ a..XZ.P.Z.S.H.B.H.j.S.S.S.S.S.S.S.S.S.S.S.",
"S.S.S.S.S.S.S.S.S.S.S.S.S.S.S.H.H.j.G.`._ ) W z > j , a - *.).N.Z.S.H.S.S.S.S.Z.S.S.S.S.S.S.S.S.S.S.",
"S.S.S.S.S.S.S.S.S.S.S.S.S.S.S.H.H.S.).4.M ) t ! h > y ) t _ L.B.S.D.Z.H.S.H.S.S.S.S.S.S.Z.S.S.S.S.S.",
"S.S.S.S.S.S.S.S.S.S.S.S.S.S.S.H.S.S.Q.0 b h f | 8.x k } : b m.S.S.S.S.S.S.S.S.S.S.S.S.S.S.Z.Z.S.S.S.",
"S.S.S.S.S.S.S.S.S.S.S.S.S.S.S.S.P.c.n.S # , v | +.z k / : # y.P.S.S.S.S.S.S.S.S.S.S.S.S.S.Z.Z.S.Z.Z.",
"S.S.S.S.S.S.S.S.S.S.S.S.S.S.S.G.m.^.'.;.$.u l ^ Q ' l [ j b v.G.S.S.S.S.S.S.S.S.S.S.S.S.S.Z.Z.S.S.S.",
"S.S.S.S.S.S.S.S.S.S.S.S.S.S.S.G.G.^.F.y.7Xg ! ` X.( l v g %.y./.S.S.S.S.S.S.S.S.S.S.Z.S.S.S.S.S.S.S.",
"S.S.S.S.S.S.S.S.S.S.S.S.S.S.S.G.G.^.S.i.,Xm - p t y O 3 X XXb.x.S.S.S.S.S.S.S.S.S.S.Z.S.S.S.S.S.Z.Z.",
"S.S.S.S.S.S.S.S.S.S.S.S.S.S.S.G.G.G.).H o S + O     4 b 0 q H G.S.S.S.S.S.S.S.S.S.S.S.S.S.S.Z.S.Z.Z.",
"S.S.S.S.S.S.S.S.S.S.S.S.S.S.S.S.S.S.h.u.3X=X1 d % . n   <.0.R j.S.S.S.S.S.S.S.S.S.S.S.S.S.Z.Z.Z.Z.Z.",
"Z.S.S.S.S.S.S.S.S.S.S.S.S.S.S.S.H.D.t.XXfX2X$ #.z.b.q.  *.XXL.i.G.S.S.Z.S.S.S.S.S.S.S.S.S.Z.Z.Z.Z.Z.",
"S.S.S.S.S.S.S.S.S.S.S.S.S.S.S.S.S.D.c.Y |.1.V J ).).d.6 2.1.-.c.S.S.S.S.S.S.S.Z.S.S.S.S.S.S.Z.Z.Z.Z.",
"S.S.S.S.S.S.S.S.S.S.S.S.S.S.S.S.D.S.G.r.T u.A C P.H.u.. v.d.g.c.H.H.S.S.Z.S.S.H.S.S.S.S.S.S.Z.Z.Z.Z.",
"S.S.S.S.S.S.S.S.S.S.S.S.S.S.S.S.S.G.H.P.).).% ;.H.H.6.. ;.}.F.G.Z.Z.S.S.S.S.S.Z.S.S.S.S.S.S.Z.Z.Z.Z.",
"S.S.S.S.S.S.S.S.S.S.S.S.S.S.S.S.H.S.S.S.H.y.. ;.G.).#.. ;.'.s.G.S.S.S.S.S.S.S.S.S.S.S.S.S.S.Z.Z.Z.Z.",
"S.S.S.S.S.S.S.S.S.S.S.S.S.S.S.S.S.S.S.F._.>.. G a.!.G   6 ,.J.A.Z.Z.S.S.S.Z.S.S.S.S.S.S.S.S.Z.Z.Z.Z.",
"S.S.S.S.S.S.S.S.S.S.S.S.S.S.S.S.P.D.}.OX,XI   . 5 L 6     . :.:X[.H.Z.S.H.S.S.Z.Z.S.S.S.S.S.Z.Z.Z.Z.",
"S.S.S.S.S.S.S.S.S.S.S.S.S.S.S.S.S.:X;X-X<X].v.v.h.h.m.m.n.z.}.1X;X[.S.Z.S.S.S.Z.Z.Z.S.S.S.S.Z.Z.Z.Z.",
"S.S.S.S.S.S.S.S.S.S.S.S.S.S.S.S.S.G.P..X XOX<X>X;X;X-X-X+X+X}.[.H.S.Z.S.S.Z.Z.S.Z.Z.S.S.S.S.Z.Z.Z.Z.",
"S.S.Z.S.S.S.S.S.S.S.S.S.S.S.S.S.S.S.Z.S.c.c.x.x.j.j.x.j.x.x.S.x.S.S.S.Z.S.S.S.S.Z.S.S.Z.Z.Z.Z.Z.Z.Z.",
"S.S.Z.S.S.S.S.S.S.S.S.S.S.S.S.S.H.S.S.S.S.S.S.Z.S.S.S.S.S.S.S.S.S.S.S.Z.S.S.S.Z.Z.Z.S.Z.Z.Z.Z.Z.N.Z."
};
