/* XPM */
static char *_82912bacce94827e28ae86482c15677vTwU8v8KLwsSATMQ[] = {
/* columns rows colors chars-per-pixel */
"50 50 226 2 ",
"   c #1C0B04",
".  c #180C05",
"X  c #1F100B",
"o  c #1C1412",
"O  c #23140E",
"+  c #26170F",
"@  c #34180F",
"#  c #231411",
"$  c #261914",
"%  c #2A1B15",
"&  c #271D19",
"*  c #2A1D1B",
"=  c #351E17",
"-  c #2C211D",
";  c #282015",
":  c #3D2116",
">  c #33241D",
",  c #3C241C",
"<  c #35291F",
"1  c #2D2522",
"2  c #342A24",
"3  c #3A2B24",
"4  c #3C2E2A",
"5  c #342C2B",
"6  c #3B322D",
"7  c #383129",
"8  c #3C3433",
"9  c #3E3933",
"0  c #3E393A",
"q  c #383435",
"w  c #41241A",
"e  c #4B2920",
"r  c #42342C",
"t  c #4E352A",
"y  c #58372C",
"u  c #443532",
"i  c #473833",
"p  c #4B3C36",
"a  c #433D3B",
"s  c #493D3A",
"d  c #403738",
"f  c #553D34",
"g  c #5B3D33",
"h  c #553E38",
"j  c #613D2F",
"k  c #4C423D",
"l  c #4A4037",
"z  c #5A4136",
"x  c #53423C",
"c  c #5D453C",
"v  c #57493E",
"b  c #6F422F",
"n  c #6F4432",
"m  c #63443B",
"M  c #60483E",
"N  c #6A463A",
"B  c #714534",
"V  c #744B3C",
"C  c #7A4E3E",
"Z  c #784937",
"A  c #77503F",
"S  c #7B513F",
"D  c #4C4544",
"F  c #4E4941",
"G  c #494546",
"H  c #524643",
"J  c #544945",
"K  c #5B4B42",
"L  c #554E4B",
"P  c #5A4E4B",
"I  c #5E4741",
"U  c #5C5146",
"Y  c #56514C",
"T  c #5C524C",
"R  c #5C584F",
"E  c #4E4C51",
"W  c #534F50",
"Q  c #5B5655",
"!  c #5E5A5D",
"~  c #5C5753",
"^  c #644D44",
"/  c #6D4D45",
"(  c #684E49",
")  c #744C42",
"_  c #7A4E42",
"`  c #7B4E48",
"'  c #605247",
"]  c #63554A",
"[  c #69534C",
"{  c #695A4E",
"}  c #68554A",
"|  c #755144",
" . c #7C5243",
".. c #75534A",
"X. c #7C544A",
"o. c #7B594D",
"O. c #76594C",
"+. c #6B5654",
"@. c #6C5D54",
"#. c #615C5D",
"$. c #635C55",
"%. c #735B54",
"&. c #7D5B52",
"*. c #725D58",
"=. c #62615E",
"-. c #6E645A",
";. c #75645A",
":. c #7D645B",
">. c #756659",
",. c #655E62",
"<. c #626261",
"1. c #6C6565",
"2. c #676468",
"3. c #6E6A6A",
"4. c #756662",
"5. c #746B66",
"6. c #7B6C63",
"7. c #7E6662",
"8. c #7D746E",
"9. c #76716B",
"0. c #7C7575",
"q. c #797577",
"w. c #825443",
"e. c #815846",
"r. c #82564B",
"t. c #845B4A",
"y. c #8B5E4B",
"u. c #845D51",
"i. c #8B5E53",
"p. c #8D634F",
"a. c #92634F",
"s. c #8D6454",
"d. c #84635B",
"f. c #8C655A",
"g. c #8C695E",
"h. c #896557",
"j. c #926555",
"k. c #946956",
"l. c #926659",
"z. c #93695A",
"x. c #9A6C5C",
"c. c #996857",
"v. c #9D715F",
"b. c #A7745F",
"n. c #856963",
"m. c #8A6B63",
"M. c #846C68",
"N. c #946C62",
"B. c #9C6E61",
"V. c #8C7966",
"C. c #83736C",
"Z. c #8B766A",
"A. c #8C7A6A",
"S. c #8B7667",
"D. c #9E7163",
"F. c #947269",
"G. c #9C756B",
"H. c #977C6E",
"J. c #8D7B71",
"K. c #837A76",
"L. c #9E7D73",
"P. c #927E75",
"I. c #A27465",
"U. c #A67966",
"Y. c #A47669",
"T. c #A47A6B",
"R. c #AA7A6B",
"E. c #AF7C67",
"W. c #B07D6C",
"Q. c #A27D73",
"!. c #A97D72",
"~. c #9E846F",
"^. c #8D837A",
"/. c #87827E",
"(. c #9E8671",
"). c #9D8A75",
"_. c #9D8A7C",
"`. c #978379",
"'. c #A1856F",
"]. c #A08A6E",
"[. c #A28672",
"{. c #AA8574",
"}. c #A48A74",
"|. c #A98C77",
" X c #A3847A",
".X c #AB867A",
"XX c #A48B7A",
"oX c #AA8D7B",
"OX c #B38575",
"+X c #A5907E",
"@X c #AB917C",
"#X c #A49075",
"$X c #827C80",
"%X c #868182",
"&X c #8A8383",
"*X c #8E898A",
"=X c #918A86",
"-X c #928D8B",
";X c #9E8C80",
":X c #98928D",
">X c #9A9495",
",X c #9D9B9A",
"<X c #9B9596",
"1X c #A48E83",
"2X c #A88B81",
"3X c #A59182",
"4X c #AA9483",
"5X c #AD9887",
"6X c #AC9689",
"7X c #AE9A8B",
"8X c #A3928B",
"9X c #B09989",
"0X c #A49F9D",
"qX c #A69B97",
"wX c #B68E86",
"eX c #AAA39F",
"rX c #B3A49D",
"tX c #ABA6A8",
"yX c #B2ABAC",
"uX c #B3ACA4",
"iX c #B3B0AB",
"pX c #B4AFB1",
"aX c #B6B1B2",
"sX c #BCB8B9",
"dX c #C4B6AF",
"fX c #C7BAB2",
/* pixels */
"}.}.}.}.XXXX}.}.|.'.|.|.|.}.}.|.|.#X}.@X}.oXoX[.[.{.{.[.}.].].].(.|.{.{.}.}.}.|.|.{.{.{.(.(.[.[.[.[.",
"}.}.}.}.XXXX}.}.}.}.}.}.}.|.|.~.}.[.}.@X[.XXXX4X2X9X4X@X|.+X|.}.+X}.oXoX[.|.|.~.|.}.{.}.(.).[.[.[.[.",
"}.}.}.}.XXXX}.}.}.[.|.'.|.}.|.@XXXXXXXXX4XA.A.@.] K ] ] 6.J.`.6X_._.[.{.|.~.}.|.}.}.}.}.}.}.{.{.[.[.",
"}.}.}.}.XX}.}.}.'.@X}.'.@X}.}.~.XX2X1XZ.@.-.; ^.8.9 ^.:X8.# +.4.1X5XXX[.XXoX[.~.}.}.).).}.}.{.{.[.[.",
"}.}.}.}.}.}.}.}.}.}.}.@X}.}.XX3X8XC.K K rXqX6 $ 2 & 2 - 2 H qXu r >._.1X XXX[.|.}.}.(.}.}.}.{.{.[.[.",
"}.}.}.}.}.}.}.}.}.|.}.[.@X).XX3X6.C.8Xp *.> % I x h x ' u > s u ] ;.r 1X4XL.oX}.).).(.}.}.}.}.[.[.[.",
"[.}.}.}.}.}.}.}.}.}.}.@X).).7X] F eX@.  + f m.Q.N.X..XL.m.f t   6.C.r 3 `.4X XXX).).}.}.}.}.}.}.[.[.",
"[.}.}.}.}.}.}.}.}.|.|.|.).4X{ ^.J 2 % ^ d.o.G.B.j.w.I.D.s.X.[.O.= = - ^.6._.XXXX_.).}.}.|.}.}.).[.[.",
"}.}.}.}.}.}.}.}.}.|.|.(.3XA.K C.h = Z.L.f.X.e.c.c.Z E.I.a.C R.l.&.[ p 6.l r ;X_.XX}.}.{.[.|.XX).[.[.",
"}.}.}.}.}.}.}.}.@X(.oXXX_.p dX;.@ / g.G.s. .w.a.j.C E.b.a.w.W.j.X.2XK . 6.U 6.3X_.[.|.{.{.|.).).(.[.",
"}.[.}.}.}.}.}.}.[.|.XX4X:.U l K e r.f.Y.s.w.e.p.k.S U.I.j._ R.l.` Q.c 3 :XR 2 _.XXXX{.{.{.}.).).(.[.",
"}.}.}.}.}.}.}.}.|.|.XX`.;.fX1.+ f.Z l.R.s.w.p.x.z.S D.I.l._ Y.l.r.G.%.3 # F U ;.1XoX{.{.{.[.).).(.[.",
"[.[.}.}.}.}.}.}.}.[.4X>.@.5.2 i L.w.c.R.j.C D.D.j. .D.D.z. .G.f.C !.O.%.2 K.R < _.oX{.{.}.[.}.).[.[.",
"[.}.}.}.}.}.}.}.}.@X4XK @.4.1 J L. .j.T.s. .I.D.j. .Y.s.i. .T.s.w.l.) :.2 R R 6 P.XX{.{.}.}.}.}.[.[.",
"}.}.}.}.}.}.}.}.XX(.6X} dXeX5 P  XV s.T.s.r.D.B.j. .Y. .e. .Y.j.w.w.N m.3 uXeX7 J.XX[.[.|.}.}.[.[.(.",
"}.}.}.}.}.}.}.}.|.}.6XK J D o K L.X.l.D.z. .D.D.j.C Y. .y.w.I.j.w.e.) :.> Y a 1 J.3XXX[.}.[.}.{.[.[.",
"}.}.}.|.}.}.}.}.}.}.+X] &X>X6 I Q. .j.Y.l._ R.I.s. .U.w.t. .U.s.o...m Z.6 ,X>Xa A.XX}.}.}.}.{.{.[.[.",
"}.}.}.}.}.}.}.|.|.'.7Xv L Q $ c Q._ i.I.j._ R.I.s.C U.w.t. .I.s.| m.n.Z.G <.E 1 A.|.}.}.}.}.XX[.[.[.",
"}.}.}.}.}.}.}.|.}.|.XX] -X<Xi f !. .j.Y.j.C R.I.j.A Y.C y. .I.j.| &.d.*.9 <.2.H A.|.}.}.}.}.[.[.[.[.",
"}.}.}.}.}.}.}.|.}.}.5X] 0.%X% ( z.V j.I.s.C R.I.j. .R.C t. .I.j.| ../ [ 6 G q.5 V.|.}.}.}.[.[.[.[.[.",
"}.}.}.}.}.}.}.|.}.~.5XK Q <.% ^ t.n j.I.s. .R.I.s. .Y.C t. .I.s.X.F...*.2 =.! 2 V.|.}.}.}.}.[.[.[.[.",
"}.}.}.}.}.}.}.}.}.[.4X' aXsX3 ( t.B x.I.s. .U.D.s. .Y.t.y. .Y.s.V T.) n.2 iXyXF V.|.}.}.[.[.[.[.[.[.",
"}.}.}.}.}.}.}.}.|.}.4XK D G X M s.n j.x.s.S I.D.j. .I.c.s. .Y.j. .D.u.:.> L G & A.}.[.}.[.[.[.[.[.[.",
"}.}.}.}.}.}.}.}.}.}.4X' 0 q.J c Y.S k.v.k. .I.D.z.A I.I.l.| Y.s.C {.) d.3 -X0XP V.}.[.}.[.}.[.(.[.[.",
"}.}.}.}.}.}.}.}.}.[.4XU 3.pXp c T.S j.v.j. .B.I.j. .D.D.s. .I.j.V {._ m.< qXyXH V.}.[.}.}.}.[.[.[.[.",
"}.}.}.}.}.}.}.}.[.}.4X' Q W X M [. .c.Y.s.X.I.D.s. .I.D.s. .I.j.w.OXX.d.> T d - V.}.[.}.}.}.[.[.[.[.",
"}.}.}.}.}.}.}.}.|.}.5XU &X,Xx c Q.V s.D.f. .D.D.s. .Y.I.l. .Y.j.C Y.r.d.r $.0.H V.|.}.}.}.}.[.[.[.[.",
"}.}.}.}.}.}.}.}.[.|.XX{ -X-Xr z L.y.z.z.l. .D.D.s. .Y.Y.l. .Y.j.C OX_ m.3 =X,.6 V.|.}.}.}.[.[.[.[.[.",
"}.}.}.}.}.}.}.}.|.[.5X' q q O ( Q.G.N.f.) V I.I.s. .Y.Y.j. .U.j.C U. .d.> L q - A.|.[.}.[.[.[.[.[.[.",
"[.}.}.}.}.}.}.}.}.'.4X] >XtX4 c  X) wXG.z.h.B.D.f. .Y.R.j. .U.j.C T. .d.4 >X<XD V.|.}.}.[.[.[.[.[.[.",
"[.}.}.}.}.}.}.}.[.|.+X] 0.#.O ^ L.| X.G.&.X.Y.I.f. .Y.R.j. .U.j.C I.X.d.> /.,.* V.|.}.}.[.[.[.[.[.[.",
"[.}.}.}.}.}.}.}.}.}.4XK #.3.> K L.X.i.f.u.| Y.B.z.A Y.R.j. .U.j.w.Y. .g.> ~ #.u V.|.[.}.}.[.[.[.[.[.",
"}.}.}.}.}.}.}.}.}.|.3X] yXsXp z .X_ l.Y.z. .B.U.z. .U.R.s. .x.Z w.U.r.d.3 qXpXH S.}.~.[.[.{.[.[.~.~.",
"}.}.}.}.}.}.}.}.}.}.4XK ,XK.% ^ {.C c.I.z.C I.x.s.S U.R.j. .k.b w.I.) g.2 -X%X2 V.}.[.[.[.{.[.[.~.~.",
"}.}.}.}.}.}.}.}.}.}.5XK D 0   ( .XC l.j.p.S R.x.j.A I.U.s.e.x.B e.R.X.d.> Y a & V.|.[.[.[.[.[.[.~.~.",
"}.}.}.}.}.}.}.}.}.}.3X@.Q #.H z .XC j.e.t. .x.D.z. .I.I.s. .x.B S D.X.d.r :X,XT S.}.~.[.[.[.[.[.~.~.",
"}.}.}.}.}.}.}.}.}.}.XXK Q 0Xp c {.S x.e.t.e.e.j.k. .I.I.j. .c.n  .T...:.2 0XtXP S.}.~.[.'.'.[.(.~.~.",
"}.}.}.}.}.}.}.}.|.'.3X] 1.Q X ( [.S x.e.t.e. .j.z. .I.B.j. .D. .X.G.&.Z.k 9.! * V.|.(.[.'.~.(.~.[.[.",
"}.}.}.}.}.}.}.}.}.|.3Xv #.1.> c T.C j.w.e.e.j.x.z.S I.x.j. .Y.l.| g.F.M.7 =.2.8 V.|.[.[.'.[.~.~.[.[.",
"}.}.}.}.}.}.}.}.}.~.3X{ 0XsXU z T.C x.e.t. .I.D.j.A I.x.j.C U.l.V O...+.a ,X*XL S.}.~.[.'.[.}.(.[.[.",
"}.}.}.}.}.}.}.}.}.}.4XK &XaXx z T.C x.w.t.e.B.x.j. .I.I.j. .Y.l.| d./ [ 8 ! ,.s S.}.~.[.'.'.~.~.~.~.",
"[.[.[.(.[.}.}.}.[.}.XX' -X%X3 c [.S j.w.e. .I.U.j. .U.Y.z. .Y.h.X. XO.7.2 3.! 4 S.}.~.[.'.[.}.~.~.~.",
"[.[.(.(.[.}.}.}.}.}.+X' J 0 O M z.C l.j.s. .I.B.j. .U.Y.j. .Y.l.V Q...:.2 Q 0 1 S.|.~.[.'.[.[.(.~.~.",
"[.[.(.}.}.}.}.}.}.|.+X' *XyXx t u. .j.I.j.C R.x.j. .U.Y.j.C I.s.t.f...:.2 :X>XJ S.}.~.[.'.'.[.(.~.~.",
"[.[.[.}.}.}.}.}.}.~.4XK :X0Xp f z. .j.Y.z.C U.B.s. .U.Y.z. .I.s. . .N m.3 ,X$X8 S.}.~.[.[.[.[.[.~.~.",
"[.[.[.}.}.}.}.].|.}.XX{ -X3.% ^ !.C j.I.j. .x.I.z. .I.Y.j.C Y.j.w.z.V d.3 =X1.2 V.}.(.[.[.{.[.[.[.[.",
"'.'.[.}.}.}.}.}.}.}.3XK G G % f T. .l.B.s. .I.D.z. .I.U.j.C I.j.C R.r.d.> J q 1 V.}.(.[.[.{.[.[.~.~.",
"[.[.[.}.}.}.}.}.}.~.4X{ =X%X6 , O.X.B.!.N.X.{.h.V j z.Y.x.t.{.c.t.i.y / > =X<Xs S.}.~.(.'.[.[.'.~.~.",
"}.[.[.}.}.[.}.}.'.}.oX^ -.L $ % , t y m g g g : @ : w z z y m m y w = , # K.5.% H.(.[.[.[.(.[.~.~.~.",
"}.(.~.}.}.[.[.}.|.~.4X:.k Y k x x z f f f M c h c f f z f z g g ^ f z h H H k H H.[.[.[.(.(.[.~.~.~."
};
