/* XPM */
static char *aac7c081af71427ea1b820ed615c0511MymQ5MkOb9boZ9Mo[] = {
/* columns rows colors chars-per-pixel */
"50 50 226 2 ",
"   c #1C0D00",
".  c #140704",
"X  c #1B1708",
"o  c #080B00",
"O  c #240C00",
"+  c #320D00",
"@  c #2B1202",
"#  c #2D1904",
"$  c #281407",
"%  c #3B1D02",
"&  c #341D0A",
"*  c #381B09",
"=  c #2D1E12",
"-  c #311F11",
";  c #27240D",
":  c #3E2105",
">  c #3C250C",
",  c #3C280C",
"<  c #33250E",
"1  c #2D241A",
"2  c #352315",
"3  c #3B2414",
"4  c #3A2A14",
"5  c #33231A",
"6  c #38261B",
"7  c #3C2A1B",
"8  c #332F14",
"9  c #383118",
"0  c #3D2C21",
"q  c #302D24",
"w  c #3C3526",
"e  c #373434",
"r  c #2D2727",
"t  c #411E02",
"y  c #43260B",
"u  c #4A290A",
"i  c #452501",
"p  c #522D07",
"a  c #422A14",
"s  c #4A2D13",
"d  c #412518",
"f  c #432D1D",
"g  c #472818",
"h  c #4C3014",
"j  c #43321C",
"k  c #4A361A",
"l  c #593112",
"z  c #57381D",
"x  c #64370F",
"c  c #663919",
"v  c #452F21",
"b  c #443323",
"n  c #433A25",
"m  c #4C3A2A",
"M  c #483628",
"N  c #523D23",
"B  c #533C2B",
"V  c #5D3F26",
"C  c #463A35",
"Z  c #523F30",
"A  c #3D4635",
"S  c #69411B",
"D  c #6A4519",
"F  c #76481C",
"G  c #734515",
"H  c #4B442F",
"J  c #5D442B",
"K  c #54492C",
"L  c #5A452A",
"P  c #494238",
"I  c #5A4533",
"U  c #5D4C3C",
"Y  c #574537",
"T  c #5A533B",
"R  c #624426",
"E  c #63462C",
"W  c #6A4B29",
"Q  c #7B532B",
"!  c #76502B",
"~  c #634C34",
"^  c #6A4E3D",
"/  c #664A38",
"(  c #65513D",
")  c #6B533B",
"_  c #6A5037",
"`  c #795A31",
"'  c #715B3E",
"]  c #7C5C3A",
"[  c #755734",
"{  c #734921",
"}  c #7E613F",
"|  c #393145",
" . c #4A4B40",
".. c #5D4B42",
"X. c #544B49",
"o. c #5B5142",
"O. c #665444",
"+. c #6A5443",
"@. c #6B5C49",
"#. c #695A44",
"$. c #715944",
"%. c #735D4B",
"&. c #795F48",
"*. c #61545E",
"=. c #664B42",
"-. c #66614B",
";. c #76634C",
":. c #7C624A",
">. c #6D6550",
",. c #756255",
"<. c #7A6352",
"1. c #7C6A58",
"2. c #5C5867",
"3. c #655E68",
"4. c #74696F",
"5. c #86582A",
"6. c #805E3B",
"7. c #9B723C",
"8. c #91683C",
"9. c #A06D3E",
"0. c #AE7B3D",
"q. c #856544",
"w. c #8C6644",
"e. c #836649",
"r. c #886A49",
"t. c #8D734E",
"y. c #9D7748",
"u. c #846A54",
"i. c #8D6C55",
"p. c #846B5A",
"a. c #876A56",
"s. c #8C755D",
"d. c #8C7251",
"f. c #987B56",
"g. c #966B40",
"h. c #A57342",
"j. c #AC764B",
"k. c #A87948",
"l. c #AD7D5A",
"z. c #B17F5A",
"x. c #A36C43",
"c. c #856F61",
"v. c #847463",
"b. c #8F7562",
"n. c #8E7A64",
"m. c #8D776C",
"M. c #937B6B",
"N. c #9A7E6D",
"B. c #967A66",
"V. c #9B7F71",
"C. c #9C825F",
"Z. c #AA8546",
"A. c #A4805C",
"S. c #B48657",
"D. c #B89052",
"F. c #B3814C",
"G. c #8B836E",
"H. c #9E836E",
"J. c #91826B",
"K. c #9D8372",
"L. c #9A8A74",
"P. c #9E8979",
"I. c #978575",
"U. c #9C907A",
"Y. c #848678",
"T. c #A48567",
"R. c #A98664",
"E. c #A0856F",
"W. c #A2886F",
"Q. c #B68766",
"!. c #B39768",
"~. c #A18672",
"^. c #A48974",
"/. c #A88B75",
"(. c #A18679",
"). c #A68C79",
"_. c #A98E7A",
"`. c #A7917D",
"'. c #AC917C",
"]. c #AE9074",
"[. c #BC9979",
"{. c #C79659",
"}. c #C59468",
"|. c #C18D68",
" X c #927E80",
".X c #978C88",
"XX c #92968D",
"oX c #998E96",
"OX c #A98F80",
"+X c #A18B80",
"@X c #A59182",
"#X c #AC9382",
"$X c #AA978A",
"%X c #B19681",
"&X c #B39984",
"*X c #B99D85",
"=X c #BEA897",
"-X c #B4AB96",
";X c #B7AEB7",
":X c #B1B1BD",
">X c #B2ADB2",
",X c #C4A588",
"<X c #C8BBA5",
"1X c #D1BDA5",
"2X c #CFC3AD",
"3X c #D7CBB4",
"4X c #DBC8AA",
"5X c #E6D7B9",
"6X c #EEE0BD",
"7X c #BDBBC8",
"8X c #CFD0D2",
"9X c #D4D5D6",
"0X c #DED8C2",
"qX c #E5D9C3",
"wX c #E2D5DA",
"eX c #DCE0CF",
"rX c #EBE3CD",
"tX c #F6E6C8",
"yX c #ECE7D1",
"uX c #F6ECD3",
"iX c #FFF5DD",
"pX c #F6F0DA",
"aX c #E2D4E1",
"sX c #FFFAE4",
"dX c #FBF9E9",
"fX c #F5EBF3",
/* pixels */
"^.^.^.^.^.^.^.^.^.^.^.^.^.^.^.^.^.^.).).^.^.^.^.^.^.^.^./././.^.).).).).).^.^.^.^.^.^.^.^.~.~.~.~.~.",
"^.^.^.^.^.^.^.^.^.^.^.^.^.^.^.^.^.^.^.^.^.^.^.^.^.^./././././.^.).).).).^.^.^.^.^.^.^.^.^.(.~.~.~.~.",
"^.^.^.^.^.^.^.^.^.^.^.^.^.^.^.^.^.^.^.^.^.^.^.^.^.^.^.^./.^././.^.^.^.^.^.^.^.^.^.^.^.^.^.^.(.~.~.~.",
"^.^.^.^.^.^.^.^.^.^.^.^.^.^.^.^.^.^.^.^.^.^.^.^.^.^.^.^.^.^.^.^.^.^.^.^.^.^.^.^.^.^.^.^.^.^.(.(.~.~.",
"^.^.^.^.^.^.^.^././.^.^.^.^.^.^.^.^.^.^.^.^.^.^.^.^.)._.)._.).).^.^.^.^.^.^.^.^.^.^.^.^.^.^.(.(.~.~.",
"^.^.^.^.^.^.^.^.^.^././.^.^.^.^.^.^.^.^.^.^.).).^.^.^.^._._._._.^.).^.^.^.^.^.^.^.^.^.^.^.^.^.(.~.~.",
"^.^.^.^.^.^.^.^././.^.^.^.^.^.^.^.^.^.^._._._._.^.^.^.^.).).).).).).).).^.^.^.^.).).).).^.^.^.(.~.~.",
"^.^.^.^.^.^.^.^././.^.^.^.^.^.^.^.^.^./._._._._.^.^.^.^.).).).^.).).).).^.^.^.^.).).).).^.^.^.^.~.~.",
"~.~.^.^.^.^.^.^.^.^.^.^.^.~.^.^.~._.^.~.'.'.H.^.~./.^.^.'.'.H.'._.^.).~._._.K._.^.^.^.(.^.^.^.^.~.~.",
"~.^.^.^.^.^.^.^.^.^.^.^._.'._.~._.^._.).~._.'.^.~._.^./.B.H./.'.).).#X_.K.~.^.^.^.^.^.^.^.^.^.(.~.~.",
"^.^.^.^.^.^.^.^.^._./.~.~.^.^.~._.~.)._.H.^.'._.%XH.H.^.^.: z H.'.~.K.^.K._.`.K.^.^.^.^.^.^.^.(.~.~.",
"^.^.^.^.^.^.^.^.^.^.^./._._._.'.^._.`.#X_.~././.) s L s i.E y s H.#X_.`.(.~.^.^.^.^.^.^.^.^.(.^.~.~.",
"^.^.^.^.^.^.^.^._.^.~._.'./.~.H._.(.K.^./.%X^.) z ].T.f.u % f.R ^ '.~.~.)._.^.^.^.^.^.^.^.^.^.^.(.(.",
"^.^.^.^.^.^.^.^._././.^.~.H.^.#X(.(.#X#XB._.~.s *X,X,X[.q.6.R.q.s &X_.~.)._.^.^.^.^.^.^.^.^.^.^.~.~.",
"^.^.^.^.^.^.^.^.H./._.^.^._.'.'.`.OXK._.%X'.s.% W W [ ] f.A.R.] V *X).'.^.N.K.'.^.^.^.^.^.^.^.^.~.~.",
"^.^.^.^.^.^.^.^.^._.^.^.`._.u.N ( `._._.E.E h W ` Q S p p q.d.s ( <.b p.#X_.).(.^.^.^.^.^.^.^.^.~.~.",
"^.^.^.^.^._././._._.`.).@Xv.b U k k u.).y _ !.S.D.{.{.S.! y 8 ; n b O.0 m.@X(.).^.^.^.^.^.^.^.^.(.(.",
"^.^.^.^.^.^././.^.).).P.@X,.6 b 9 K B @ a.[.f.Z.Z.0.0.F.[.;.o A o.w 5 5 ,.@XM.).^.^.^.^.^.^.^.(.(.~.",
"^.^.^.^.^.^.^.^.^.).).P.@XU - 5 q X ..=.d _ r.{ D G F 5.w.j o. .X 7 5 6 ..$XP.(.^.^.^.^.^.^.(.(.(.~.",
"^.^.^.^.^.^.^.^.)._._.P.$XZ 2 1 e e 5 d i.c l S { Q F x l :.7 = 0 b = 2 Y +X).(.^.^.^.^.^.~.(.(.(.~.",
"^.^.^.^.^.^.^.^./._.).P.@Xm 6 5 r C O + l.Q.Q.|.}.S.}.|.l.R.+ * b M 2 2 m I.).).^.^.^.W.^.~.(.(.(.~.",
"^.^.^.^.^.^.^.^./.^._.K.).m 7 2 C = J Q.z.j.x.j.h.9.h.h.j.S.Q.z @ 7 7 b b #X_.).^.^.W.W.^.~.(.(.(.~.",
"^.^.^.^.^.^.^.^./.~._.P.).U 7 & @ E T.! c G j.k.F.h.5.k.G x Q R.) & O v ( @XK.^.~.^.W.W.^.(.(.(.(.~.",
"^.^.^.^.^.^.^.^./.H._._.#X@.v & y C.e.t u S k.k.7.7.y.y.S i i r.s.a d 7 %.).)._.~.^.W.W.^.~.(.(.~.(.",
"^.^.^.^.^.^.^.^.~.^._.`.^.M.3 ;.[ t.:.7 U Y N f.!.!.f.E B U w @.s.:.&.a p.#X(.^.^.^.^.^.^.^.^.(.~.~.",
"^.^.^.^.^.^.^.^.^./.~.~.#XK.B ~ ` f.3 .XfX8XY K 5XtXL Y wXfXXX1 s.) ~ h `.).(.~.^.^.W.^.^.^.(.(.~.~.",
"^.^.^.^.^.^.^.^.^.^._.^._.`.%.h y.W Y aX>X7X>X< 6XuX5 ;X:X:X9X .) e.h $.'.^.~.^.^.^.^.^.~.~.(.(.~.~.",
"^.^.^.^.^.^.^.^.^.H.'._.H.&X<.y 8.S / wX| 2..Xn tX<XC oX| 3.8XP L f.: u.'.~.^./.^.^.^.^.^.~.(.(.~.E.",
"^.^.^.^.^.^.^.^._.E.^.^.^.&XI V g.5.g  X*.4...~ 4X1X..X.X.3.$X< ] q.z R %XJ.^.^.^.^.^.^.~.(.(.(.~.~.",
"^.^.^.^.^.^.^.^.~.'.~.E._.H.& e.Q w.E 0 P 1 . j K ( n . e C 2 _ r.6.q.% B./.~.^.^.^.^.^.~.~.(.(.~.E.",
"^.^.^.^.^.^.^.^.H.'._.^.^.b.a $.r.} ;.o.X H U.L.T H Y.XXP   ) r.] ] [ u i.'.H.^.^.^.^.^.~.~.(.~.~.~.",
"^.^.^.^.^.^.^.^._.H.^._.~.~.) > L ' K 9 -XsXrX  < w X eXdX=X: R } W : E _.E.~.^.^.^.^.^.~.~.(.~.~.~.",
"^.^.^.^.^.^.^.^.~.'.H.'.~.~.'.~ , #.4 3XsX0XyXn ; X w yXyXiX3X, &.% E %X^.H.^.~.~.~.~.~.~.~.~.~.H.H.",
"^.^.^.^.^.^.^.^.^._.H._.~.~.'.u.< , J.iX3XqXpXsX-.-.sXsX<X5XiXn.# k u.%X~.~.^.^.~.~.~.~.~.~.~.~.H.H.",
"^.^.^.^.^.^.^.^._.^.~.^.~.~.'.^.n.# f qXsXsXyXuXT T rXrX3XyX5XM & a.H.^.^.^.~.~.~.~.~.~.~.~.~.~.H.H.",
"^.^.^.^.^.^.^.^.^.^.^.^.^.^.~._.&X;.# 7 I.<X>.H G.G.m @.2XL.j & ) &X^.H._.^.H.^.~.~.~.~.~.~.~.~.~.~.",
"^.^.^.^.^.^.^.^.~.^._.~.^._.H.^._.%.~ ;.2 j b o.v.v.O.b j 4 1.I &.'.~.^.^.H.~.^.~.~.~.~.~.~.~.~.~.~.",
"^.^.^.~.~.^.^.^.~.^.^.~.^._.^.^.).K.3 P.v.( M 6 @.U 6 M #.O.@Xa p.~.~._.~.^./.H.~.~.~.~.~.~.~.~.~.~.",
"^.^.~.~.~.~.^.^.^.^.^.^.^.^./.^.(.K.B <.c.,.B O.@X=X@.m 1.p.1.a ^.^.~.^.H._./.H.~.~.~.E.~.~.~.~.~.~.",
"^.^.~.~.~.~.^.^.^.^.~._.^.H.^.~._._.^ @ m 3 O c.$XJ.M.@ 3 j # B _.~.^._.H.^.~.^.~.~.E.E.E.~.~.~.~.~.",
"~.~.~.~.^.^.^.~.~.^.^.^.^.^.^.^.B.=XB.& d   f @X@XM.#XI   & 3 s.^.^.^.^.~.~.~.~.~.~.E.E.E.E.E.E.~.~.",
"~.~.~.~.^.^.^.~.~.^.^.^.^.^.^.^.%XB.).b.^ +.(.P.K.).#Xn.$.+.p._.^.^.^.^.~.~.~.~.~.~.E.E.E.E.~.~.~.~.",
"~.~.~.~.^.^.^.~.~.^.^.^.^.^.^.^.^.^.^.^._.).).).).OXN.).#X_.#XH.^.^.^.^.~.~.~.~.~.~.~.~.~.~.~.~.H.H.",
"~.~.~.~.^.^.^.~.~.^.^.^.^.^.^.^.~._.~.^.)._.V.(.(.(.).^.^.^.K.^.^.^.^.^.~.~.~.~.~.~.~.~.~.~.~.~.H.H.",
"~.~.~.~.^.^.^.~.^.^.^.^.^.~.^.^.^.^.~._.N.).).).).(.#X(.H.^.H.'.^.^.^.^.~.~.~.~.~.~.~.~.~.~.~.E.~.~.",
"~.~.~.~.^.^.^.~.^.^.^.^.^.~.^.^.~.'.~.^.)._.K._._.^.K.~./._./.H.^.^.^.^.~.~.~.~.E.~.~.~.~.~.E.E.E.E.",
"~.~.~.~.^.^.^.~.^.^.^.^.^.~.^.^._.E.^.'.E.^.^.N.H.).)._.~.J.^.^.~.~.^.^.~.~.~.E.E.E.~.~.~.~.E.E.E.E.",
"~.~.~.~.^.^.^.~.^.^.^.^.^.~.~.^.^._./.^.^.^.^.).).~.^.~.H./.H.^.^.~.~.~.~.~.~.E.E.E.~.~.~.~.E.E.H.H.",
"~.~.~.^.^.~.~.^.~.^.^.^.^.^.~.~.^.^.^.^.^.^.^.^.~.^.^.^.~.~.~.~.~.~.^.~.~.~.~.~.H.H.H.~.~.~.~.~.H.H.",
"~.~.~.^.^.~.~.^.~.^.^.^.^.^.~.~.^.^.^.^.^.^.^.^.~.^.^.^.~.~.~.~.~.~.^.~.~.~.~.~.H.H.H.~.~.~.~.~.H.H."
};
