/* XPM */
static char *f4467acd3f7f48badb4af4b5d329166fIRxfbvVnDtxWEOE7[] = {
/* columns rows colors chars-per-pixel */
"50 50 228 2 ",
"   c #1A0900",
".  c #230C00",
"X  c #2B0C00",
"o  c #2C1502",
"O  c #251901",
"+  c #24170B",
"@  c #231B0E",
"#  c #2B180A",
"$  c #341501",
"%  c #341903",
"&  c #3D1D01",
"*  c #351B0A",
"=  c #2A1E13",
"-  c #251C13",
";  c #3C2103",
":  c #3C220C",
">  c #35250D",
",  c #2D271C",
"<  c #332414",
"1  c #3A2615",
"2  c #362817",
"3  c #332D27",
"4  c #3D3323",
"5  c #3D3028",
"6  c #451C00",
"7  c #452103",
"8  c #44240B",
"9  c #45280B",
"0  c #4A2909",
"q  c #542B05",
"w  c #4C320D",
"e  c #5A320D",
"r  c #442A13",
"t  c #4B2E12",
"y  c #4C2C1C",
"u  c #442916",
"i  c #542E16",
"p  c #4F3015",
"a  c #49351D",
"s  c #54331C",
"d  c #5B3D1E",
"f  c #583616",
"g  c #633C15",
"h  c #623E1D",
"j  c #412D22",
"k  c #4B3423",
"l  c #483728",
"z  c #523A25",
"x  c #5B3D24",
"c  c #5B3F29",
"v  c #553D2A",
"b  c #4D3D31",
"n  c #653D23",
"m  c #66461C",
"M  c #55442F",
"N  c #5C412B",
"B  c #5A4122",
"V  c #5B4A34",
"C  c #5C4C3A",
"Z  c #574433",
"A  c #664322",
"S  c #64452A",
"D  c #694929",
"F  c #734D2E",
"G  c #774D27",
"H  c #6F5022",
"J  c #78532D",
"K  c #604632",
"L  c #644B34",
"P  c #6E4B33",
"I  c #694F3A",
"U  c #634B39",
"Y  c #68523A",
"T  c #725132",
"R  c #7B5332",
"E  c #7D5A35",
"W  c #7B5A3C",
"Q  c #74573B",
"!  c #724C35",
"~  c #544A41",
"^  c #6A5748",
"/  c #765C45",
"(  c #765B47",
")  c #7B624C",
"_  c #7B6344",
"`  c #746453",
"'  c #7F6F5F",
"]  c #7C6758",
"[  c #666455",
"{  c #7D6D63",
"}  c #835C34",
"|  c #845D3B",
" . c #875A35",
".. c #82552B",
"X. c #8F6034",
"o. c #85623D",
"O. c #8A623C",
"+. c #8E693F",
"@. c #936A3D",
"#. c #9A6D3C",
"$. c #966538",
"%. c #9B703D",
"&. c #A0642E",
"*. c #A26D3C",
"=. c #AD743D",
"-. c #885F41",
";. c #856343",
":. c #896345",
">. c #89684A",
",. c #946C45",
"<. c #976B47",
"1. c #9D7345",
"2. c #93724D",
"3. c #9C734B",
"4. c #836B55",
"5. c #8A6C54",
"6. c #856455",
"7. c #807059",
"8. c #8E7453",
"9. c #947354",
"0. c #9E7754",
"q. c #9C7954",
"w. c #96775B",
"e. c #A96F41",
"r. c #A37244",
"t. c #AA7543",
"y. c #AC7A44",
"u. c #A4754B",
"i. c #AB764A",
"p. c #A4794B",
"a. c #AC7B4C",
"s. c #A17842",
"d. c #B47A45",
"f. c #B17847",
"g. c #A47B53",
"h. c #AB7D53",
"j. c #A47D5A",
"k. c #AA7E5B",
"l. c #B57F51",
"z. c #867366",
"x. c #937661",
"c. c #947A64",
"v. c #997C61",
"b. c #967E6A",
"n. c #9A7E6A",
"m. c #987F78",
"M. c #9E805E",
"N. c #A78154",
"B. c #AB8454",
"V. c #A6835B",
"C. c #B18158",
"Z. c #B88353",
"A. c #8F8069",
"S. c #96836E",
"D. c #9D836E",
"F. c #9E8669",
"G. c #968477",
"H. c #9D8672",
"J. c #9E8974",
"K. c #97857B",
"L. c #9B867A",
"P. c #9E8A7C",
"I. c #A18262",
"U. c #AD8561",
"Y. c #AC8A64",
"T. c #A1856E",
"R. c #A4896D",
"E. c #AB8A6C",
"W. c #A9896A",
"Q. c #B28B63",
"!. c #B38F69",
"~. c #B18465",
"^. c #AA926A",
"/. c #BF9A6D",
"(. c #A18672",
"). c #A98574",
"_. c #A48975",
"`. c #AA8C75",
"'. c #A2857A",
"]. c #A38B7A",
"[. c #A98D7B",
"{. c #A8867C",
"}. c #AC9275",
"|. c #A5917D",
" X c #AC917C",
".X c #AB9776",
"XX c #B0927E",
"oX c #B79679",
"OX c #C59B75",
"+X c #9E8C82",
"@X c #9A8780",
"#X c #9F9089",
"$X c #A38C82",
"%X c #AA8C81",
"&X c #A49283",
"*X c #AC9383",
"=X c #AD9C89",
"-X c #A7978A",
";X c #B29682",
":X c #B59B86",
">X c #B19C8D",
",X c #BA9F8A",
"<X c #A69F97",
"1X c #B5A38E",
"2X c #B4A597",
"3X c #A8A295",
"4X c #CFBC9C",
"5X c #C8B9AA",
"6X c #D1C2AD",
"7X c #DECFB2",
"8X c #DDD2BC",
"9X c #E5DCBB",
"0X c #DBD9CA",
"qX c #E7DDCF",
"wX c #EDE6C9",
"eX c #F7EECF",
"rX c #F5E8CA",
"tX c #F3EAD6",
"yX c #FCF3D5",
"uX c #FFFCDD",
"iX c #FBF4DC",
"pX c #EEEDD9",
"aX c #DDDEE0",
"sX c #E6E5E2",
"dX c #FFFCE3",
"fX c #FFFEEB",
"gX c #F8F2EC",
"hX c #FAF9F7",
/* pixels */
"_._._._._._._._._._._._._._._._._._._._._._._._._._._._._._._._._._._._._._._._._._._._._.(.(.(.(.(.",
"_._._._._._._._._._._._._._._._._._._._._._._._._._._._._._._._._._._._._._._._._._._._._.(.(.(.(.(.",
"_._._._._._._._._._._._._._._._._._._._._._._._._._._._._._._._._._.].]._._._._._._._._._._.'.(.(.(.",
"_._._._._._._._._._._._._._._._._._._._._._._._._._._._._._._._._.].].].]._._._._._._._._._.'.'.(.(.",
"_._._._._._._._._._._._._._._._._._._._._._._._._._._._._._._._._._.].].]._._._._._._._._._.'.'.(.(.",
"_._._._._._._._._._._._._._._._._._._._._._._._._._._._._._._._._._.].].]._._._._._._._._._._.'.(.(.",
"_._._._._._._._.`.`.`._._._._._._._._._.`.`.`._._._._._._._._._._._._._.]._._._._.].]._._._._.'.(.(.",
"_._._._._._._._.`.`.`._._._._._._._._._.`.[.[.[._._._._._._._._._._._._._._._._._.].].]._._._._.(.(.",
"'.'._._._._._._._.T. X_.[._.].].(. X(._._. X[._._._._._._._._._.].]._._._._._._._._._.'._._._._.(.(.",
"'._._._._._._._.;X_._.H.J.S.|.H.H.;X(.(. X_.(.[._._._._._._._._.].]._._._._._._._._._.'._._._._.(.(.",
"_._._._._._._._.(.D._.*XJ.-XP.>X[.b.:X_.(.,X_._._._._._._._._._.].]._._._._._._._._._._._._.'.'.(.(.",
"_._._._._._._._. X].|.P.P.P.C ^ J.[.(._.[.n._._._._._._._._._._.].]._._._._._._._._._._._._.'.'.(.(.",
"_._._._._._._._.(.].] 2 b 4 + @ 1 N b. X[. X_. X_._._._._._._._.].]._._._._._._._._._._._._._.'.(.(.",
"_.]._._._._._._.b.1Xl # = = 3 - ^ K % ( [._.[.D._._._._._._._._.].]._._._._._._._._._._._._._.'.(.(.",
"].]._._._._._._.:X].+ = - - 3 , o x.Q : L :X(. X_._._._._._._._.].].]._._._._._._._._._._._._._.(.(.",
"].].].]._._._._.L r L ] ' = 5 l * L 5./ % 5.;X(._._._._._._._._._._._._._._._._._._._._._._._._.(.(.",
"L.P.*XL.].|.x.8 F 0.oXj.F.a o k < l ) >.S 8 [.[._._._._.].[.E.W.R.R.R.`.`.`.(.T._.J.J.]._._.).).(.(.",
"$XL.].H.*X( & q.OXB.1.3.<.g.d o 2 2 ] W / 8 6.XX_._.].].]._.E.Y.^.}.}.`.(.R._.[._._.J.]._.'.).).(.(.",
"(.[.D.;Xw.& Q.0.6 q X.$.<.g.k.A : o / >.>.x s ;X_._.].].].'.R.E.R._._._.].].].'._._._._._._.'.'.'.(.",
"T.`.E.E.7 3.V.,.} } q ..C.i.r.u.8 . S >.;.P $ x.|.].].$X]._._.`._._.].$X$X$X].]._._.R.R._.(.H.H.'.(.",
" Xv.oXR g j.g.q.!.9.;.j.g.r.l.a.J 0 W W :.T 0 P *X].P.P.]._._.[.[.{.%X$XK.K.P.&X_._.E.E._._.J.J.'.(.",
"D.[.}.T h V.2.W.t a z 8 o.g.t.Z.3.E | :.| ;.D d [.$X$XP._.].].].{.'.'.$X&X&XP.J._.).).).(._.J.J.J.(.",
"P.P._.R.t T _.z ` tXgX2Xr 0.C.#.#.@.R :.F ,.J t H.].$XP.J.].].].%X{.].].|.|.].].(._.)._._.J.J.J.J.(.",
"+XK.].XXx.r H.2 qXgXsXhX` D k.r.$.$.| | O.O.E 9 x.'.*X].H._.].'.'.%X Xv._ / 8.}.(.'.'.'.].J.J.J._.'.",
"#XK.$X].].v -X~ sXgXaXgXK.c ~.u.i.#. . .| o.} h L [.'._.}.}.'.].H. XQ 0 m H e d [.H.m.$X*XH.H.T.(.(.",
"@X+X]._.*X( G.^ <XhXhXhXG.c ~.u.a.$. .,.| A o.W 8 ).XXv.8.F. X[.:XY w V.B.B./.A N >XK.$Xz.J.D.R.T.(.",
"].].[.T.[.) ^ 5X, <X2X5Xc.7 j.h.t.a. .R O.E o.| 7 f t h g 0 t x L ; ^.N.1.s.p.U.p b.-X{ j H._.R.T.(.",
"T.[.`.(.XX_.U 2Xb < < k x E.U.r.i.r.@.| R :.F 0 h <.j.g.g.Q.Y.2.; D 2.@.#.a.1.!.S / &XM . 4.:Xn.T.T.",
").(.x. XS.( > C ` C M : B d | V.h.a. .E W >.0 A k.h.h.h.r.1.h.Q.V.m q.<.,.R } j.9.p : L I ^ ].'.(.(.",
"R._. X] 2   4 dXdXuXwX4X.X8.w f 3.X.} ,.W 5.s F h.t.r.*.a.a.y.%.N.3.e h i F :.,.U.Y.V.I.t ) L.L.H.T.",
"D.J.&XZ @ , [ pXtXwXeXeXyXuXuX_ e $.X.} W ! r n h.a.d.&.e.t.y.y.p.k.6 P ( y s >.,.3.N.} ; D.P.+XH.(.",
"_._.&X{ @ , 0XfXiXdXeX9XwXeXuX7X6 -.o.A p 8 ! j.u.t.=.&.f.=.=.y.X. .i `.{.'.y f ;.| m 7 W |.K.G.H.(.",
"]._.].].' l iXfXiXyXwXiXdXwXeX5Xu C y : x 9.j.p.a.t.=.=.d.f.d.t.G $ s _.T.[.b.N r 9 c 5._._.H.].H.D.",
"[.(.'.[.*XV U rX8X4 1X8X8XqX6XC   b l 1 r Q U.1.p.r.y.Z.*.a.i.u.j.S 7 }._.[.J.].S.b.H.].[._.D.S.D.D.",
"(._._._._.|.V > < O =X1XS.7.a M ] +X^ . 9 I.q.+.g g.u.u.h.e 3.q.I.9.t 5. XD.J.]._.].].J.H._._._.D.D.",
"_.[.(._._.J.=XA.O < > l Z U z.*X-X$Xk V s v.M.f X f 0 0 h 7 x v.5.R.N z  X_.].b.S.H.J.S.S.(._.(.(.(.",
"_.'.[.S.].J.J.J.7.a S.].].|.].H.>X(   u N T.>.9 T W _ Q N % o v x.D.z : b. XJ.].]._._._._.(.T.D.(.(.",
"[.b.]. XS.H.].|.|.H.].].]._.[.H.'.k k * r I r K XX X].|.2X] l . Z N r % c._.H.J._.S.D.D.(.T.T._.(.(.",
"D.;XD.H.].]._.S.S. XJ._.n. X'.'.[.] y o z X 1 _._.|.J.P.K.-X5 2 o . u z J.J.|.S._.H.D.T.(.T.T._.(.(.",
"].(._.H.].H.J.].]._.H.'. X(.(.[.'.*X*X( k z c.]._.].H.|.G.-Xz.4 U k V H.].J.H._.H._._.(.T.T.R.T.(.(.",
"(.(.(._._._._._._._._._._._._._.].].].].].]._._._._.].].].P.P.P.|.|.].].]._.(.D.(.T.T.T.T.T.T.T.(.(.",
"(.(.(.(._._._._._._._._._._._._.P.P.].].].]._._._._._._._._._._.].].].]._.J.(.D.T.T.T.T.T.T.T.T.(.(.",
"(.(.(.(._._._.(._._._._.(._.(._.].P.].]._._._._.(.(._._._._._._.'.P.J.J._.(.(.T.T.T.T.T.T.T.T.T.T.D.",
"(.(.(.(._._._.(._._._._._.(._._.].].]._.]._._._._._._._._.R.R.R._.J._._._._._._.T.T.T.T.T.D.D.H.D.D.",
"(.(.(.(._._._.(._._._._._._._._.]._._._._._._._._._._._._._.R.R._.].]._._._.(.(.T.T.T.T.H.H.H.H.D.(.",
"(.(.(.(._._._.(._._._._.(.(._._._._._._._._._._._._._._._._._._._._._._.(.(.T.T.T.T.T.D.H.J.H.H.D.T.",
"(.(.(.(._._._.(._._._._._._._._._.R._._._._._._._.]._._._._.J.J._._._._.(.(.(.T.T.T.T.D.H.H.H.H.D.T.",
"(.(.(.(._._._.(._._._._._._._._.T.R.`._._._._._._._._._.J.J.J.J._._._._._._._.R.T.T.T.D.H.H.J.J.D.D.",
"(.(.(._._.(.(._.(._._._._._.(.(._._._._._._._._.(._._._._.(.D.(.(.(._.(.(.H.H.T.D.D.D.(.H.H.H.H.D.D.",
"(.(.(._._.(.(._.(._._._._._.(.(._._._._._._._._.(._._._.(.(.T.(.(.(._.(.(.H.(.(.D.D.D.(.(.(.(.(.D.D."
};
