/* XPM */
static char *e7bf6d16997e470dbd7701d0921df531Sjf2qxIP79m3TIRK[] = {
/* columns rows colors chars-per-pixel */
"50 50 214 2 ",
"   c #040201",
".  c #0B0301",
"X  c #0A0904",
"o  c #0C0B0B",
"O  c #060707",
"+  c #130A03",
"@  c #190B01",
"#  c #120E0B",
"$  c #1A0F09",
"%  c #0F1104",
"&  c #1A1007",
"*  c #13120C",
"=  c #1C130C",
"-  c #1B190A",
";  c #0D0E12",
":  c #110F10",
">  c #0F1314",
",  c #141313",
"<  c #1B1412",
"1  c #1C1B14",
"2  c #161719",
"3  c #1D1C1C",
"4  c #171B19",
"5  c #24190C",
"6  c #211614",
"7  c #231D1B",
"8  c #261C15",
"9  c #23201D",
"0  c #2C221B",
"q  c #2F291D",
"w  c #2E2516",
"e  c #32291F",
"r  c #332218",
"t  c #1E1D23",
"y  c #211F21",
"u  c #1E2223",
"i  c #242323",
"p  c #2B2423",
"a  c #2D2922",
"s  c #252529",
"d  c #2C2D2A",
"f  c #352D25",
"g  c #352C29",
"h  c #372A24",
"j  c #3D322B",
"k  c #38362B",
"l  c #2F2F31",
"z  c #343333",
"x  c #3D3532",
"c  c #3D3833",
"v  c #3C3D3D",
"b  c #373739",
"n  c #443B2D",
"m  c #45362B",
"M  c #423733",
"N  c #443B33",
"B  c #4A3C33",
"V  c #423E3D",
"C  c #523F3B",
"Z  c #3E403F",
"A  c #48412E",
"S  c #45413D",
"D  c #4D443C",
"F  c #484234",
"G  c #52453C",
"H  c #53483C",
"J  c #5A4D3D",
"K  c #534737",
"L  c #5C503F",
"P  c #3E3E41",
"I  c #413F41",
"U  c #3F4141",
"Y  c #444344",
"T  c #4B4443",
"R  c #4B4947",
"E  c #44454A",
"W  c #4C4B4B",
"Q  c #43484C",
"!  c #514642",
"~  c #574C46",
"^  c #53534E",
"/  c #5C544C",
"(  c #595744",
")  c #4D4E52",
"_  c #5E5E51",
"`  c #53565D",
"'  c #555A5E",
"]  c #595656",
"[  c #63554C",
"{  c #675A4E",
"}  c #685848",
"|  c #655C54",
" . c #695D54",
".. c #6C6048",
"X. c #69655E",
"o. c #696459",
"O. c #736455",
"+. c #74645B",
"@. c #756C5B",
"#. c #7D6D5F",
"$. c #5A5F65",
"%. c #5F6464",
"&. c #6A6D6D",
"*. c #6A6966",
"=. c #736C63",
"-. c #7A6C62",
";. c #726869",
":. c #7A7363",
">. c #787567",
",. c #6D6C71",
"<. c #7A7672",
"1. c #7C7C72",
"2. c #717276",
"3. c #847463",
"4. c #82756B",
"5. c #867B6A",
"6. c #8D7C6E",
"7. c #927E6B",
"8. c #9C7E6A",
"9. c #967B66",
"0. c #837C72",
"q. c #8D7D72",
"w. c #A27F6C",
"e. c #8F806B",
"r. c #94826D",
"t. c #9E846E",
"y. c #9D856A",
"u. c #84817B",
"i. c #8B897C",
"p. c #8B8275",
"a. c #958373",
"s. c #9D8572",
"d. c #9E8974",
"f. c #948579",
"g. c #9A8779",
"h. c #948A7D",
"j. c #9D8B7B",
"k. c #9F907D",
"l. c #A2856E",
"z. c #A3896E",
"x. c #A18671",
"c. c #A48974",
"v. c #A98B75",
"b. c #A38B7A",
"n. c #A98E7A",
"m. c #A18778",
"M. c #B28D7A",
"N. c #A39077",
"B. c #AD9275",
"V. c #A5917D",
"C. c #AB927C",
"Z. c #A2987F",
"A. c #7E7F81",
"S. c #8A8784",
"D. c #948C83",
"F. c #9C8D83",
"G. c #9B9489",
"H. c #9C9A8D",
"J. c #969486",
"K. c #9D9D93",
"L. c #9C9899",
"P. c #A18F80",
"I. c #A98F82",
"U. c #A49383",
"Y. c #AA9584",
"T. c #AA9985",
"R. c #A59589",
"E. c #AA9689",
"W. c #A5998C",
"Q. c #AA9A8B",
"!. c #A49882",
"~. c #B39882",
"^. c #B19988",
"/. c #AC9E93",
"(. c #A59D9B",
"). c #B09E90",
"_. c #A4A199",
"`. c #A9A69A",
"'. c #B4A897",
"]. c #B1B199",
"[. c #A4A48A",
"{. c #ABA9A9",
"}. c #ADACA7",
"|. c #AFB0A8",
" X c #BCBDA3",
".X c #BCBAAB",
"XX c #B9B8B6",
"oX c #C5BFAF",
"OX c #C3BAB5",
"+X c #C6C5B4",
"@X c #D2C8B9",
"#X c #D1CDCC",
"$X c #D9D6C4",
"%X c #D6D4CD",
"&X c #D6D3C4",
"*X c #CCCACB",
"=X c #E2DECD",
"-X c #E5E1D4",
";X c #EEEBDE",
":X c #EAE5D6",
">X c #F0EBDC",
",X c #F9F9DD",
"<X c #F4F4D8",
"1X c #E8E9C9",
"2X c #ECECE2",
"3X c #F5F2E5",
"4X c #F9F6E7",
"5X c #FEFDE5",
"6X c #FBF5EA",
"7X c #FEFCEC",
"8X c #F7F6EC",
"9X c #FEFDF3",
"0X c #FEFEFB",
"qX c #F1F1F1",
/* pixels */
"l.l.x.x.m.c.b.c.c.c.c.v.l.v.n.x.n.v.l.c.c.x.b.b.b.d.x.v.c.z.c.B.v.c.l.c.c.v.x.n.c.c.c.c.c.c.c.c.b.b.",
"l.l.x.x.m.c.b.c.c.c.x.c.x.n.x.~.l.c.v.x.c.b.j.j.U.a.b.s.t.C.x.x.c.x.C.n.c.c.n.8.c.c.c.c.c.c.c.c.b.b.",
"l.l.x.x.m.c.b.c.b.c.l.c.C.s.Y.t.n.c.b.j.b.U.E.E.j.E.U.E.E.j.b.b.x.n.x.c.n.x.x.C.c.c.c.c.c.c.c.c.b.b.",
"x.x.x.c.c.c.b.c.x.x.v.n.9.n.n.j.j.a.R.E.q.+./ j m j G ~ { 6.U.U.b.m.b.s.s.b.b.c.c.c.c.c.c.c.c.c.b.b.",
"x.x.x.c.c.b.c.c.x.c.n.t.c.b.s.U.h./.4.M 6 8 x T S g a p a 0 j { f.T.a.g.).s.b.s.c.c.c.c.c.c.c.c.c.c.",
"x.x.c.c.c.b.c.c.n.c.8.~.c.c.b.U.D.~ < c S.XXL.*.W T Y R S V c 8 h +.Q.j.6.^.b.V.c.c.c.c.c.c.c.c.c.c.",
"x.x.m.c.c.b.c.c.x.v.n.8.b.s.j.R.S * <.%X{.W b P P v E v v W V V h . B /.j.j.b.b.c.c.c.c.x.x.c.c.x.x.",
"x.x.m.b.b.b.c.c.v.x.c.n.b.j.Q.H 1 S.*X' l v Y P Y P Y Y P P I v g g $ j R.P.j.b.c.c.c.c.x.x.x.c.x.x.",
"s.m.m.c.b.b.v.v.v.x.c.c.j.U.4.= X.{.v v Y Z Y P Y P U Y Y P P I Y V V a [ U.b.d.C.v.c.x.c.c.c.x.x.c.",
"s.m.m.c.b.c.c.v.x.c.n.7.U.F.n q u.Y v v v Z v U U v v v v v Y E Y V p = @ f.b.s.n.v.c.c.c.c.c.x.x.x.",
"m.m.m.c.c.c.c.c.v.x.n.b.g.h.e ~ c W S Y ^ Y R Y Y E E E Y Y V v P Y Y c = #.b.b.v.v.c.c.c.c.c.x.c.c.",
"m.m.m.c.c.c.c.c.c.x.b.j.U.+.= = 3 2 3 3 * 3 3 i i d d d z v V Y Y E V x + +.U.d.v.v.c.c.c.c.c.c.c.c.",
"m.m.m.m.c.c.x.x.v.c.s.U.{ 5 = = , 2 2 , , 2 , o o o o o o # , , 4 u z k 0 q.T.b.c.v.c.c.c.c.b.b.c.x.",
"x.m.m.m.c.x.x.x.t.C.d.E.r = g 7 i 3 i i y 3 3 i i i i 7 3 3 3 3 ; > o   D W.s.C.c.v.c.c.c.c.b.c.c.x.",
"x.m.m.m.c.x.x.x.v.v.b.U.{ + < p s s t s s s i y s i i 3 3 3 y i s u 3 1 = 4.T.x.v.c.c.c.b.c.b.c.c.v.",
"x.m.m.m.x.x.x.x.v.s.d.P.U.B 0 +   o o o ; , , o O o , 3 i i i i u i 9 a & m Y.x.v.c.c.c.c.c.b.c.c.v.",
"x.x.c.c.c.x.x.x.x.c.x.V.s.j.G.& # #X{.    O   E ,.` P O   : X     X < = . J V.c.v.c.c.c.b.c.b.c.c.c.",
"s.x.c.c.c.c.c.x.x.v.x.c.b.U.j.5 N 0X9Xi       XX0X0XqX2     X q S 1 . . O.s.b.n.c.c.c.c.c.c.b.b.c.c.",
"s.x.m.c.c.c.c.c.c.v.x.c.b.j.f.B N 0X8X<       K.0X0X%X* >..X$X;X9X}.  f Q.j.b.c.c.c.c.c.c.b.b.b.c.c.",
"x.x.x.m.c.c.c.c.c.c.x.c.b.a.j.{ | <.X.  X     % `.+Xc  X5X5X,X].-X_.  =.R.j.V.v.c.v.c.c.c.b.b.b.c.v.",
"x.x.x.m.c.c.c.c.c.c.v.x.b.b.j.J -XD.K.=._ 1.J.`.>.(  X5X<X,X1X[.;X| . f.R.s.c.v.c.v.v.c.c.c.b.c.c.c.",
"x.x.x.m.c.c.x.x.c.l.c.v.c.b.U.K :X7X9X.XK.3X4X7X5X7X5X,X<X5X X+X-X. j W.s.V.x.t.v.v.v.v.c.c.c.c.c.c.",
"x.x.x.c.c.c.x.x.c.l.x.v.c.d.Y.} @X7X&X$X:X4X;X-X-X=X&X7X7X4X5X$Xf . O.U.d.b.v.~.v.v.v.c.c.c.c.c.c.c.",
"x.x.x.c.c.c.m.x.l.c.x.x.x.b.T.} F.7Xh.>.G.0.H.H.K.f i.7X4X7Xp.@ . @ f.U.b.b.v.l.c.v.c.x.c.c.c.c.x.x.",
"x.x.x.c.c.c.c.x.l.x.c.t.x.b.b.e.L 7X:Xi.D.i.H.J.o.F 7X3X3X9Xq . 5 O.b.b.b.b.c.v.c.c.c.c.c.c.c.c.c.c.",
"x.x.x.c.c.b.c.x.c.l.l.B.x.s.c.T.L f.7X$X0.H.i.1.1.2X9X9X7X+X5 K j.Q.T.d.c.c.x.v.c.c.c.c.c.c.c.c.c.c.",
"x.x.x.c.b.b.c.c.c.x.l.v.c.b.s.r.E.J :.9X4X_.1.+X9X9X7X&X@.A 5.T.d.d.s.d.n.n.x.x.c.c.c.c.c.c.c.c.c.c.",
"x.l.x.c.c.b.c.c.c.x.c.c.x.t.b.b.b.g.H h <._.|.XXK.*.k - + @.Z.d.b.V.C.b.x.c.v.v.c.c.c.c.c.c.c.c.c.c.",
"l.l.s.x.d.c.c.c.c.c.v.l.c.x.v.c.b.b.).@.. * , , 4 l 1 _ ( n !.d.s.x.n.b.c.v.b.x.c.c.c.c.c.c.c.c.c.c.",
"l.l.t.s.d.c.c.c.x.c.l.c.z.B.c.9.n.s.T.O.e g &.%.*.&.d ^ +.w 5.T.C.c.c.c.c.c.v.v.c.c.c.c.c.c.c.c.c.c.",
"l.l.t.s.s.d.c.c.c.l.l.v.l.l.x.C.c.c.Y.{ = T A.Q ` ` v z ;.h +.U.b.x.c.v.c.c.c.b.v.v.c.c.c.c.c.c.c.c.",
"x.l.s.s.m.m.m.m.x.c.v.z.c.z.c.y.z.c.b.O.+ E 2.` ` $.E o ^ h C E.c.v.v.x.c.c.c.c.c.v.v.c.c.c.c.x.c.c.",
"t.t.x.x.x.x.x.x.x.x.c.l.c.x.c.z.B.y.T.5.N W &.' $.' E 2 9 N } V.c.c.c.c.c.c.x.c.c.c.c.c.c.c.c.c.c.c.",
"t.t.x.x.x.x.x.x.x.x.x.x.c.c.c.x.z.z.j.h.X.3 E ] ) %.' O f >XO.x.b.c.c.c.x.x.c.c.c.c.c.c.c.c.c.c.c.c.",
"t.t.x.x.x.x.x.x.x.x.x.x.x.c.c.c.v.s.j.H a # .   , * o   a 6Xa.c.c.n.c.x.c.c.x.c.c.c.c.c.c.c.c.c.x.c.",
"t.x.x.x.x.x.x.x.x.x.t.c.x.v.c.c.x.7.f.D.= / T .   .     . N O.V.c.t.c.n.x.x.v.x.c.c.c.c.c.c.x.x.x.x.",
"x.x.x.x.l.x.x.x.x.x.t.c.x.c.x.c.Y.#.'.F.OXM / ! . + p 7 u.f @.U.s.c.x.x.n.c.x.c.c.c.c.c.x.x.x.x.x.x.",
"x.x.x.x.t.t.x.x.x.x.x.x.x.c.x.c.b.3.-.G / 0 [ F.0.D.c 0.4X9X@X7.b.x.c.c.x.x.v.x.c.c.c.c.x.x.x.x.x.x.",
"x.x.x.x.l.x.x.x.x.x.x.x.c.x.x.x.b.r.A 8 D = -./.h.W.= =.=X7X'.3.b.n.x.x.c.c.x.c.c.c.c.c.c.x.x.x.x.x.",
"x.x.x.x.l.l.x.x.x.t.x.x.c.x.c.c.y.T.e.4./ . 0.h.h.G.k q oX'...N.c.x.x.x.x.c.c.x.c.c.c.c.c.x.x.x.x.x.",
"t.t.x.x.x.x.l.l.x.x.x.x.x.x.x.x.x.V.f.`.D.  | G.i.`.S = n J r.V.s.c.c.c.c.c.c.c.x.x.x.c.c.c.x.x.x.x.",
"t.t.l.s.x.x.x.l.x.x.x.x.x.x.x.x.x.b.F.j 6 . V (.(.g . < h.f.V.s.x.c.c.c.c.c.c.c.x.x.x.x.c.c.x.x.x.x.",
"t.l.s.s.x.x.l.l.x.x.x.x.x.x.x.x.c.b.-.. . . . ;.T     + 4.R.b.v.x.c.c.c.c.c.c.c.x.x.x.x.x.x.x.x.x.x.",
"l.l.s.s.x.x.l.t.x.x.x.x.x.x.x.x.t.b.a. .~ ! ! -.B G j | F.j.t.c.x.c.c.c.x.x.c.c.x.x.x.x.x.x.x.x.x.x.",
"l.x.x.x.x.x.x.t.x.x.x.x.x.x.x.x.z.z.N.V.b.U.Y.V.Y.T.Q.U.d.b.z.B.x.x.c.c.c.c.c.c.x.x.x.x.x.x.x.x.x.x.",
"t.x.x.x.x.x.x.x.x.x.x.x.x.c.c.c.l.z.s.s.d.s.y.v.z.x.r.N.s.s.B.l.c.x.x.c.c.x.x.c.x.x.x.x.x.x.x.x.x.x.",
"t.t.x.x.x.x.x.x.x.x.x.x.x.x.x.x.c.x.s.b.s.b.n.8.l.v.c.b.b.b.c.l.c.x.x.x.x.x.c.c.x.x.x.x.c.c.x.x.x.x.",
"t.t.x.x.x.x.x.x.x.x.x.x.x.x.x.x.m.b.b.b.m.m.x.v.M.w.b.s.I.m.b.C.c.x.x.x.c.x.c.c.c.x.x.c.c.c.x.x.x.x.",
"t.t.x.x.t.x.t.t.t.t.t.x.x.x.x.x.x.x.x.x.x.m.x.c.x.x.c.c.c.c.c.x.c.x.x.x.x.c.c.x.x.c.c.x.x.c.x.x.x.x.",
"t.t.x.x.t.x.t.t.t.t.t.x.x.x.x.x.x.x.x.x.x.x.c.c.c.c.x.c.c.c.c.x.x.c.x.x.x.c.c.x.x.c.c.x.x.c.c.x.x.x."
};
