/* XPM */
static char *_8ea276f242740508a84d596d23e17f5iSoSw9CgZIgD0NrP[] = {
/* columns rows colors chars-per-pixel */
"50 50 212 2 ",
"   c #040201",
".  c #0A0300",
"X  c #0C0A03",
"o  c #0A060B",
"O  c #0D0C0B",
"+  c #06090A",
"@  c #130600",
"#  c #140A03",
"$  c #1A0E07",
"%  c #110D0C",
"&  c #180F08",
"*  c #0F100B",
"=  c #131406",
"-  c #15110E",
";  c #1A120B",
":  c #1F1B0F",
">  c #0B0D11",
",  c #120F10",
"<  c #141313",
"1  c #1A1514",
"2  c #1B1A14",
"3  c #161619",
"4  c #1C1B1B",
"5  c #0E1618",
"6  c #22160C",
"7  c #241A15",
"8  c #221E1D",
"9  c #241B16",
"0  c #22211D",
"q  c #2C231D",
"w  c #2E2C1C",
"e  c #252412",
"r  c #32251C",
"t  c #1E1F24",
"y  c #211F21",
"u  c #1C2023",
"i  c #242223",
"p  c #292422",
"a  c #2B2A25",
"s  c #2C2D2A",
"d  c #25262B",
"f  c #312623",
"g  c #342D25",
"h  c #332C29",
"j  c #3C3426",
"k  c #3D342A",
"l  c #393B2D",
"z  c #35312A",
"x  c #2C2D31",
"c  c #333333",
"v  c #3C3533",
"b  c #3E3A35",
"n  c #3C3C3C",
"m  c #33373A",
"M  c #422F2B",
"N  c #45362E",
"B  c #473F2A",
"V  c #453C33",
"C  c #4B3F34",
"Z  c #433D3C",
"A  c #423731",
"S  c #3E403F",
"D  c #434236",
"F  c #4A4136",
"G  c #43413F",
"H  c #4B433E",
"J  c #4B4B3D",
"K  c #554B3D",
"L  c #5C4C3D",
"P  c #56443C",
"I  c #3D3E41",
"U  c #413F41",
"Y  c #3E4142",
"T  c #3F474A",
"R  c #434344",
"E  c #4B4543",
"W  c #474845",
"Q  c #4A4849",
"!  c #544A42",
"~  c #594B43",
"^  c #524B46",
"/  c #59554C",
"(  c #484E54",
")  c #4E5555",
"_  c #545552",
"`  c #53545C",
"'  c #545B5E",
"]  c #5A5D5E",
"[  c #655344",
"{  c #67594C",
"}  c #715F47",
"|  c #635B54",
" . c #685C53",
".. c #715E5A",
"X. c #63604D",
"o. c #6B635E",
"O. c #636358",
"+. c #726254",
"@. c #74655C",
"#. c #76695C",
"$. c #7B6B54",
"%. c #75725F",
"&. c #79725F",
"*. c #565F63",
"=. c #5D5E63",
"-. c #6C6C63",
";. c #6A6B6A",
":. c #666764",
">. c #706D6C",
",. c #726962",
"<. c #737364",
"1. c #7B7669",
"2. c #6E6C73",
"3. c #737173",
"4. c #7D7D72",
"5. c #7B7A7A",
"6. c #846F5C",
"7. c #85725D",
"8. c #826A60",
"9. c #82756C",
"0. c #8A796D",
"q. c #947E69",
"w. c #8D7E72",
"e. c #977F72",
"r. c #7D8077",
"t. c #8C816F",
"y. c #95806D",
"u. c #9E846F",
"i. c #9D886D",
"p. c #8D8376",
"a. c #86847D",
"s. c #898678",
"d. c #948474",
"f. c #9D8673",
"g. c #9E8975",
"h. c #9B867A",
"j. c #9D8A7B",
"k. c #93867B",
"l. c #A3856E",
"z. c #A38A6F",
"x. c #A98A6D",
"c. c #A9876B",
"v. c #A18671",
"b. c #A48974",
"n. c #A98C75",
"m. c #A28579",
"M. c #A38B7A",
"N. c #A98E7A",
"B. c #AA8573",
"V. c #B28D7A",
"C. c #A5917D",
"Z. c #AB917B",
"A. c #A89275",
"S. c #8E8D81",
"D. c #8B8786",
"F. c #958B82",
"G. c #9C8E83",
"H. c #958B86",
"J. c #9E9182",
"K. c #989688",
"L. c #9D9D94",
"P. c #989495",
"I. c #A28E81",
"U. c #AD8D80",
"Y. c #A39182",
"T. c #A59384",
"R. c #AB9584",
"E. c #AB9986",
"W. c #A4948A",
"Q. c #A99688",
"!. c #A29C8D",
"~. c #AA9A8C",
"^. c #AA9B91",
"/. c #A19C98",
"(. c #9FA081",
"). c #B3A38C",
"_. c #A5A39C",
"`. c #AAA798",
"'. c #B4AF97",
"]. c #AEADAD",
"[. c #A8A8A5",
"{. c #B2AEAD",
"}. c #B8B9A8",
"|. c #BAB9B8",
" X c #C3BDAD",
".X c #BEC0AA",
"XX c #C6C4B7",
"oX c #D3C8BA",
"OX c #C5C6A7",
"+X c #CECECD",
"@X c #DBDAC5",
"#X c #DAD7CB",
"$X c #D8D5C7",
"%X c #D6D5D3",
"&X c #E6DED3",
"*X c #E1E1CC",
"=X c #E8E9C7",
"-X c #E5E4D3",
";X c #EAE4D7",
":X c #EDEDD5",
">X c #F6F7D7",
",X c #FAFADA",
"<X c #EFF0E0",
"1X c #F5F4E3",
"2X c #FDFDE4",
"3X c #FDF7ED",
"4X c #FDFDEC",
"5X c #FBF6E4",
"6X c #F0EFF5",
"7X c #FFFDF2",
"8X c #FFFEFD",
"9X c #F5F4F2",
/* pixels */
"M.M.M.b.b.b.b.b.f.N.N.b.N.b.B.l.x.x.n.n.b.b.n.b.f.b.n.n.b.b.b.b.b.Z.l.n.n.b.m.M.M.M.M.M.b.b.l.l.b.b.",
"M.M.b.b.b.b.b.b.b.N.f.N.b.b.n.n.b.n.b.b.n.b.f.f.M.M.b.f.N.b.b.N.N.u.N.b.n.b.M.b.M.M.M.M.b.b.l.l.b.b.",
"M.M.b.b.b.b.b.b.N.f.N.b.b.N.b.b.b.b.b.M.M.T.R.Q.Q.j.Q.~.Y.M.j.M.g.N.b.b.b.Z.b.b.M.M.M.M.b.b.b.b.b.b.",
"M.b.b.b.b.b.b.b.b.N.b.N.M.b.b.M.j.j.T.Y.0. .~ C k N k ~ @.w.^.T.j.M.b.b.N.u.b.b.b.M.M.b.b.b.b.b.b.b.",
"b.b.b.b.b.b.b.b.N.b.b.b.f.R.M.j.W.k. .g q q p h h Z E v 8 7 A 9.~.j.T.M.b.b.b.b.b.b.b.b.b.b.b.b.b.b.",
"b.b.b.b.b.b.b.b.b.b.M.N.R.e.h.~.@.h 8 v Z R Q R W Q >.P.{.D.v 7 ! G.Y.C.f.b.Z.l.b.b.b.b.b.b.b.b.b.b.",
"b.b.b.b.b.b.b.b.b.b.M.M.j.j.^.N . a Z U W U n W n R m n _ [.%X3.2 V W.j.f.N.l.n.B.b.b.b.b.b.b.M.b.b.",
"b.b.b.b.b.b.b.b.b.b.N.M.I.T.N & h c n R I I R I R I R R n x ] +Xa.2 ! ~.j.b.b.B.B.B.b.b.M.b.b.b.b.b.",
"b.b.b.b.b.b.b.b.b.N.b.M.T.[ r Z Z R R S I R R Y Y Y Y Y R Y n n ].o.; 9.T.b.b.b.b.b.b.b.M.M.b.b.b.b.",
"b.b.b.b.b.b.b.b.b.Z.b.M.h.$ ; h n R R R Y S I n I n I R R R I n R 5.h V Y.g.b.n.b.b.b.b.b.M.b.b.b.b.",
"b.b.b.b.b.b.b.b.b.n.b.R.@.; v G Z n n n n G W W W R W R W W W W R R E f G.M.f.b.b.b.b.b.b.b.b.b.f.f.",
"b.b.b.b.b.b.b.b.b.n.n.C.#.# z W W R G G n c s s a a i 0 4 2 2 3 4 4 1 - +.T.M.b.b.b.b.b.b.b.b.b.f.f.",
"B.b.b.b.M.b.b.b.n.b.b.T.p.q c c i 4 < , O O O O O O % - < < < < 3 < - ; 6 [ C.b.b.b.b.b.b.b.b.b.f.f.",
"B.b.b.b.M.M.b.b.l.b.Z.M.!.H   > O < 1 4 4 4 8 i d i i i 0 i i i t i 8 h ; r Q.g.b.b.b.b.b.b.b.b.f.f.",
"b.b.b.b.M.M.b.b.Z.n.b.C.9.- i u i i i i y y i i p i i i i i i i d i i 1 @ { T.g.M.b.b.b.b.b.B.b.f.f.",
"b.b.b.M.M.M.b.b.b.b.b.R.N ; d i i i i i i i 4 < o o % < < , o + o   X q C j.M.g.M.b.b.b.b.b.B.b.f.f.",
"B.B.b.M.M.M.b.b.n.b.b.C.L . < < O       -   + I ` 2.R         ].+XO ; G.T.f.N.b.b.b.b.b.b.b.b.b.f.f.",
"l.b.b.b.M.M.b.b.b.n.n.C.d. .X   2 H a X     < 6X8X8X|.      i 8X8XD ; J.j.b.b.b.b.b.b.b.b.b.b.b.v.f.",
"b.b.b.b.M.M.b.b.b.l.n.b.I.^.k   _.4X:X@X.X<.2 %X8X8XL.      < 9X7XD F j.C.b.b.b.b.b.b.b.b.b.b.b.b.b.",
"b.b.b.b.M.M.b.b.n.b.N.N.d.^.o.  `.*X'.,X2X4X}.l XX[.=     X   -.4.| { h.d.N.b.b.b.b.b.b.b.b.b.b.b.b.",
"b.b.b.b.M.M.b.b.B.Z.b.b.M.T.k.. X.:X(.=X,X>X2X}./ <.`.S.1./ >._.S.;XK j.C.b.b.b.b.b.b.b.b.b.b.b.b.b.",
"b.b.b.b.M.b.b.b.n.n.b.u.M.j.~.j . @XXXOX,X>X2X2X4X4X7X4X1X_.}.7X4X&XK M.g.b.n.b.b.b.b.b.b.b.b.b.b.b.",
"b.b.b.b.b.b.b.b.n.b.Z.N.b.f.Q.@.  g $X1X2X2X2X@X@X-X-X1X1X-X$X#X7XoXL R.N.u.b.b.b.b.b.b.b.b.b.b.b.b.",
"b.b.b.b.b.b.b.b.b.B.l.b.N.M.M.k.#   # s.4X5X4Xs.w L.K.K.s.K.1.k.7XJ.{ T.b.b.b.b.b.b.b.b.b.b.b.b.b.b.",
"b.b.b.b.b.b.b.b.b.b.b.b.b.b.N.I.@.9 . w 7X5X1X1XD O.K.L.s.S.S.;X4XL y.M.M.b.u.n.b.b.b.b.b.b.b.b.b.b.",
"b.b.b.b.b.b.b.b.b.b.b.b.b.b.N.M.~.j.K 6 oX4X4X4X<X4.4.a.L.4.#X4Xd.[ E.g.u.n.Z.u.b.b.b.b.b.b.b.b.b.b.",
"b.b.b.b.b.b.b.b.b.b.b.b.b.b.b.N.g.j.E.t.j %.@X4X4X4XXX5._.3X7X<.L R.y.g.N.u.n.b.b.b.b.b.b.b.b.b.f.f.",
"b.b.b.b.b.b.b.b.b.b.b.b.b.b.b.n.b.b.C.T.&.X = l <.L.|.]._.1.j K M.g.N.n.u.b.b.b.b.b.b.b.b.b.b.b.f.f.",
"b.b.b.b.b.b.b.b.b.b.N.N.b.b.b.n.A.i.g.T.C K O.2 a 4 3 4 O . #.~.M.N.u.n.n.b.b.b.b.b.b.b.b.b.b.u.u.u.",
"b.b.b.b.b.b.b.b.b.b.N.N.b.b.b.b.l.n.R.w.q :._ s ;.:.=.2.v q +.T.y.N.l.n.z.n.b.b.b.b.b.b.b.b.u.u.u.u.",
"b.b.b.b.b.b.b.b.b.M.M.M.b.b.b.b.n.b.I...h >.c m ' ` ( 5.E 7 { C.n.b.Z.l.b.u.b.b.B.B.b.b.b.b.u.u.u.u.",
"b.b.b.b.b.b.b.b.b.b.M.b.b.b.b.b.b.b.R.P f Q > T *.' ` 3.Q # +.C.u.b.b.b.u.b.b.b.b.B.b.b.b.b.u.u.l.u.",
"b.b.b.b.b.b.b.b.b.b.b.b.b.b.b.b.n.b.C.[ F 0 5 ( *.' ' ;.^ V 0.Z.f.n.b.b.b.l.b.b.b.b.b.b.b.b.u.u.u.u.",
"b.b.b.b.b.b.b.b.b.b.b.b.b.b.b.n.b.A.i.$.;Xs > ) ] ) _ W 2 ,.j.M.b.b.b.b.b.b.b.b.b.b.b.b.b.b.u.u.u.u.",
"b.b.b.b.b.b.b.b.b.b.b.b.b.b.b.b.n.b.n.y.3Xa   + 1 - . . % q P f.b.b.b.b.b.b.b.u.b.b.b.b.b.u.u.u.u.u.",
"b.b.b.b.b.b.b.b.b.b.b.b.b.b.b.b.f.M.Z.+.k .       . . H | ; j.k.q.b.b.b.b.b.b.u.b.b.b.b.b.u.u.u.u.u.",
"b.b.b.b.b.b.b.b.b.b.b.b.b.b.b.M.R.d.T.#.k 4.2 p & @ ! / b XXS.`.6.Z.b.b.n.b.b.f.b.b.b.b.u.b.b.b.u.u.",
"b.b.b.b.b.b.b.b.b.b.b.b.b.b.b.b.e.T.d.oX7X3Xr.l F.9.G.| 0 / J %.6.Z.b.b.n.b.b.b.b.b.b.b.u.b.b.b.b.b.",
"b.b.b.b.b.b.b.b.b.b.b.b.b.b.b.b.M.M.7.).4X*X-.: T.J.Q.9.; J e B y.b.b.b.b.b.b.b.b.b.b.u.u.u.b.b.b.b.",
"b.b.b.b.b.b.b.b.b.b.b.b.b.b.b.b.n.b.Z.} '. Xw g K.k.G.1.. / 1.d.Z.u.b.b.b.b.b.b.b.b.b.u.u.u.l.b.b.b.",
"b.b.b.b.b.b.b.b.b.b.b.b.b.b.b.b.n.u.Z.y.P V - H _.k.H.o.  H.^.M.b.b.b.b.b.b.l.u.u.u.b.b.b.b.b.b.u.u.",
"b.b.b.b.b.b.b.b.b.b.b.b.b.b.b.b.b.g.n.M.j.F.4 . h /._.Z . 7 M h.M.b.b.b.b.b.b.l.u.u.b.l.b.b.b.b.u.u.",
"b.b.b.b.b.b.b.b.b.b.b.b.b.b.b.b.M.g.u.b.~.9.      G ;.    . . 8.M.b.b.b.b.b.b.b.u.u.u.u.u.u.b.u.u.u.",
"b.u.b.b.b.b.b.b.b.b.b.b.b.b.b.b.b.i.n.b.k.G.| b V V ,.! H ~ { f.b.b.b.b.b.b.b.u.u.u.u.u.u.u.u.u.u.u.",
"b.b.b.b.b.b.b.b.b.b.b.b.b.b.b.b.z.n.x.x.b.g.Y.~.E.R.T.T.T.T.R.b.b.b.b.b.b.b.b.u.u.u.u.u.u.u.u.u.u.u.",
"b.b.b.b.b.b.b.b.b.b.b.b.b.b.b.b.b.l.c.n.z.g.M.y.l.l.B.u.f.f.u.b.b.b.b.b.b.b.b.u.u.u.u.u.u.u.b.l.u.u.",
"b.b.b.b.b.b.b.b.b.b.b.b.b.b.b.b.m.U.B.l.n.N.g.b.n.c.B.N.M.f.j.f.b.b.b.b.b.b.b.b.u.u.b.u.b.b.b.b.u.u.",
"u.u.b.b.b.b.b.b.b.b.b.b.b.b.b.b.M.m.N.N.f.N.f.b.c.V.B.v.h.M.h.g.b.b.b.b.b.b.b.b.u.u.b.b.b.b.b.b.u.u.",
"b.b.b.b.b.b.b.b.b.b.b.b.b.b.b.b.b.b.b.b.b.b.b.b.b.B.b.b.b.b.b.b.b.b.b.b.b.u.u.u.u.u.u.u.b.b.b.b.u.u.",
"b.b.b.b.b.b.b.b.b.b.b.b.b.b.b.b.b.b.b.b.b.b.b.b.b.b.b.b.b.b.b.b.b.b.b.b.b.u.u.u.u.u.u.u.b.b.b.b.u.u."
};
