/* XPM */
static char *_d17c2aaa09945cdc59a7ec1e234c1b19YkqCVP9JZsKWkec[] = {
/* columns rows colors chars-per-pixel */
"50 50 239 2 ",
"   c #1B0500",
".  c #2E0C00",
"X  c #270D00",
"o  c #380F00",
"O  c #231303",
"+  c #2C1503",
"@  c #221309",
"#  c #2D1A0A",
"$  c #281705",
"%  c #3D1C01",
"&  c #331C0B",
"*  c #361A04",
"=  c #2B1B11",
"-  c #381F10",
";  c #3B230C",
":  c #39250B",
">  c #3B2313",
",  c #392719",
"<  c #342B1A",
"1  c #3C2A1D",
"2  c #332315",
"3  c #3B3419",
"4  c #2A220B",
"5  c #3D2D22",
"6  c #382F28",
"7  c #3C3A32",
"8  c #451901",
"9  c #441B00",
"0  c #4A2404",
"q  c #47280D",
"w  c #4E2B0D",
"e  c #452608",
"r  c #522D0D",
"t  c #552E05",
"y  c #57340D",
"u  c #432913",
"i  c #442B1B",
"p  c #4A2D1B",
"a  c #492B14",
"s  c #522C14",
"d  c #4C331D",
"f  c #4A3116",
"g  c #523414",
"h  c #53341A",
"j  c #5B3C1D",
"k  c #583718",
"l  c #623A09",
"z  c #65381B",
"x  c #443322",
"c  c #463928",
"v  c #4B3D2A",
"b  c #4B3725",
"n  c #543B23",
"m  c #553B28",
"M  c #4F3631",
"N  c #4F362E",
"B  c #67431D",
"V  c #74471D",
"C  c #59452B",
"Z  c #4B4234",
"A  c #5B4533",
"S  c #5C4B35",
"D  c #564638",
"F  c #585236",
"G  c #4E432D",
"H  c #64432A",
"J  c #664A2D",
"K  c #694828",
"L  c #744E2B",
"P  c #704525",
"I  c #6E502E",
"U  c #77532B",
"Y  c #654A32",
"T  c #694C38",
"R  c #754F31",
"E  c #6C523C",
"W  c #685235",
"Q  c #725133",
"!  c #7D5633",
"~  c #7E5C3C",
"^  c #785A3A",
"/  c #7E613F",
"(  c #534948",
")  c #624942",
"_  c #695748",
"`  c #7B5E42",
"'  c #775B47",
"]  c #725F51",
"[  c #625954",
"{  c #6B6449",
"}  c #7D654C",
"|  c #78674A",
" . c #7D6451",
".. c #786858",
"X. c #7B755D",
"o. c #776E64",
"O. c #88592A",
"+. c #955D27",
"@. c #825532",
"#. c #845A34",
"$. c #895B32",
"%. c #835F3D",
"&. c #8A5F3A",
"*. c #A05F25",
"=. c #8B613D",
"-. c #88663A",
";. c #956235",
":. c #97693A",
">. c #A36F36",
",. c #A66C39",
"<. c #A5723C",
"1. c #AA753B",
"2. c #AB783A",
"3. c #875E40",
"4. c #8C6441",
"5. c #846A4D",
"6. c #8D6C4A",
"7. c #876545",
"8. c #9B6C43",
"9. c #926C4B",
"0. c #926C42",
"q. c #95734D",
"w. c #9D744A",
"e. c #9A7546",
"r. c #846652",
"t. c #846B54",
"y. c #8A6C53",
"u. c #856C5C",
"i. c #8C6F5B",
"p. c #8D725B",
"a. c #8E7151",
"s. c #967353",
"d. c #987453",
"f. c #9B7C5C",
"g. c #9A7A58",
"h. c #A27343",
"j. c #A77946",
"k. c #AB7B43",
"l. c #A57A4D",
"z. c #AA7C4C",
"x. c #A4754B",
"c. c #B27C4A",
"v. c #B57E45",
"b. c #A37B54",
"n. c #AA7C54",
"m. c #A67C58",
"M. c #B07F54",
"N. c #A46941",
"B. c #857563",
"V. c #8B7364",
"C. c #8C7B6B",
"Z. c #997763",
"A. c #967B64",
"S. c #9B7E66",
"D. c #957D6C",
"F. c #9A7E69",
"G. c #97756C",
"H. c #9C7D73",
"J. c #997C79",
"K. c #A07F70",
"L. c #99865B",
"P. c #A7814E",
"I. c #B6834A",
"U. c #AB845C",
"Y. c #A98957",
"T. c #B88551",
"R. c #9D8365",
"E. c #95816E",
"W. c #9E846E",
"Q. c #9D886D",
"!. c #9C8961",
"~. c #9D8572",
"^. c #958874",
"/. c #9E8974",
"(. c #97877A",
"). c #9D857C",
"_. c #9D8B7B",
"`. c #948372",
"'. c #968A71",
"]. c #A28563",
"[. c #A2856E",
"{. c #A48A6D",
"}. c #A68B69",
"|. c #B28A66",
" X c #B69469",
".X c #A28672",
"XX c #A48A74",
"oX c #AA8B75",
"OX c #A2857B",
"+X c #A8867F",
"@X c #A48B7A",
"#X c #A98D7B",
"$X c #A88774",
"%X c #AC9275",
"&X c #A4927B",
"*X c #AC927C",
"=X c #A79071",
"-X c #B3937D",
";X c #BC9A72",
":X c #A69166",
">X c #C38C65",
",X c #978D85",
"<X c #9E9083",
"1X c #A58B82",
"2X c #AB8D83",
"3X c #A78A88",
"4X c #B08E84",
"5X c #A59283",
"6X c #AC9382",
"7X c #AF9C85",
"8X c #AB988B",
"9X c #B19482",
"0X c #B49984",
"qX c #B89886",
"wX c #BAA28D",
"eX c #B5AC94",
"rX c #BBB6A0",
"tX c #C6BFA4",
"yX c #D2C9B1",
"uX c #D4CFB0",
"iX c #E5D7B4",
"pX c #E7E5BE",
"aX c #D9D6CA",
"sX c #DDDDDF",
"dX c #CACDC4",
"fX c #DCE1DB",
"gX c #ECE8C9",
"hX c #F6EBC7",
"jX c #FDF2CE",
"kX c #F6F0CE",
"lX c #FFF9D4",
"zX c #FFFADD",
"xX c #F9F4D9",
"cX c #EEE9D4",
"vX c #E4E6EB",
"bX c #FFFFEC",
"nX c #FAF4E6",
"mX c #FCF8FA",
"MX c #F4E8F2",
/* pixels */
"XXXXXXXXXXXXXXXXXXXXXXXXXXXXXXXXXXXXXXXXXXXXXXXXXXXXXXXXXXXXXXXXoXoXXXXX@XXX_._._.@X@XXXXXXXXX.X.X.X",
"XXXXXXXXXXXXXXXXXXXXXXXXXXXXXXXXXXXXXXXXXXXXXXXXXXXXXXXXXXXXXXXXoXoXXXXXXXXX@X@X_.@X@XXXXX.X.X.X.X.X",
"XXXXXXXXXXXXXXXXXXXXXXXXXXXXXXXXXXXXXXXXXXXXXXXXXXXXXXXXXXXXXXXXXXXXXXXXXXXX@X@X@X@X@XXXXXXX.X.X.X.X",
"XXXXXXXXXXXXXXXXXXXXXXXXXXXXXXXXXXXXXXXXXXXXXXXXXXXXXXXXXXXXXXXXXXXXXXXXXXXXXXXXOXXXXXXX$X.X[..X.X.X",
"XXXXXXXXXXXXXXXXXXXXXXXXXXXXXXXXXXXXXXXXXXXXXXXXXXXXXXXXXXXXXXXXXXXXXXXXXXXXXXXXXXXX$X$X$X$X[..X.X.X",
"XXXXXXXXXXXXXXXXXXXXXXXXXXXXXXXXXXXXXXXXXXXXXXXXXXXXXXXXXXXXXXXXXXXXXXXXXXXXXXXXXXXXoX$X$X.X.X.X.X.X",
"XXXXXXXXXXXXXXXXXX#XXXXXXXXXXXXXXXXXXXXXXX#X#XXXXXXXXXXXXXXXXXXXXXXXXXXXXXXXXXXXXXoXoXoXXX.X.X.X.X.X",
"XXXXXXXXXXXXXXXXXXXXXXXXXXXXXXXXXXXXXXXX#X#X#X#XXXXXXXXXXXXXXX#X@X@X@X@X@XXXXXXXXXXXoXXXXXXXXXXX.X.X",
".X.XXXXXXXXXXXXXXXXXXXXXXXXXXXXXXXXXXXXXXXXXXXXXXX.X.XXX.XXXXX#X_._.5X@X~.&X~..X~.@X#X@X@X#X@X~..X.X",
".XXXXXXXXXXXXXXXXXXXXXXXXXXXXXXXXXXXXXXXXXXXXXXXXXXX*X.X9XXX.X#X8X5X(.5X5X@X@X*X*X@X.X@X~.~.~.#X~..X",
"XXXXXXXXXXXXXXXXXXXXXXXXXXXXXXXXXXXXXXXXXXXXXXXXXX.X.X*XW..X#XE._ _ <XB...@XD.~.~..XXX@X#X5X1X@X~..X",
"XXXX.XXXXXXXXXXXXXXXXXXXXXXXXXXXXXXXXXXXXXXXXXXX#XXX*XF.XX0X' i @ = 5 $   _ wX.XXXXX#X~.E.`.).@X~..X",
"XXXXXXXXXXXXXXXXXXXXXXXXXXXXXXXXXXXXXXXXXXXXXXXX.X*XW.9X9Xu u A = < # 2 + d XXoXoX].W.XX6X*X#X@X.X.X",
"XXXXXXXXXXXXXXXXXXXXXXXXXXXXXXXXXXXXXXXXXXXXXXXX-XA.W.*X; d .X> , 5 $ 1 f u h ^ ].oXoXW.W..X@X~..X.X",
"XXXXXXXXXXXXXXXXXXXXXXXXXXXXXXXXXXXXXXXXXXXXXXXXXX.XwXE & t.E ; 1 G # V.*XA.y.I e I f.oXoX.X.XXX.X.X",
"XXXXXXXXXXXXXXXXXX@X@X@XXXXXXXXXXXXXoXoX@X@X@XXX[.*XA.X  .} _ + x & q f.s.].}.=X|.P r 6.-XXXS.oX.X.X",
"XXXXXXXXoXoXXXXX#X#X#X#XXXXXXXXXoXoXoX#X#X#X#XoX[.*XW d } t.A # : e :.T.j.P.I e @.>X;.8 i.2XW.%X.X.X",
"XXXXXXXXoXoXXXXXXX#X#X#X#XXXXXXX{.oXoX#X#X#X#XoXXX%Xj C | } S & : 6.+.*.2.l ; E =.N.c.8.p _.%XR..X.X",
"OXXXXXXXXXXXXXXXXXXX#XXXXXoXXX{.{.oXoX#X1X1X@X@X*XA.* Q 5.} C   h g.,.v.h.~ E.~.|.n.x.m.i ] *XW..X.X",
"OX@X@XXXXXXXXXXXXXXXXXXXoXoX{.{.XXXXXX#X1X1X1X@X*X' + ^ 5.} H . a.q.c.<.b.Y < 5 j U.b.6.b C..XXX.X.X",
"XXXXXXXXXXXXXXXX#X#XXXXXXXXXXXXXXXXX@X#X1X1X@X@X6XY f ~ ~ ~ ~ Q q.U.<.T.w ..aXaXE k ].J S 8XOX~..X.X",
"XXXXXXXXXXXXXXXX#XXXXXXXXXXX@XXXXXXX@X@X1X1X@X@X6Xn J ` ~ %.=.0.w.z.c.$.p nXmXnXgX: Q.n B.`.2XH..X.X",
"}.{.{.{.XXXXXXXXXXXXXX@X#X#X#XOX@XXX@X@X@X@X@X@X*Xd I %.! &.#.$.j.>.T.V V.mXvXfXxXF 7XW E._.2XOX.X.X",
"}.}.{.{.XXXXXXXXXXXX#X*X9X9X2X#X@XXX@X@X@X@X@X@XXXn Q %.L @.$.;.<.c.k.U ) MXvXmXaX3 eXv &X&XH.+X.X.X",
"{.=XXXXX#XXXF.#X[.%X%X5.H T r.K.-X.XXXXX*X*X#X0XS.q 7.9.@.$.;.O.1.2.I.#.M mXsXdXF { yXv &X&XG.2X.X.X",
"#XF.#X@X~.0X#X.XoX].g k 6.~ k n r.qX*X{.y.5.5.7.` s ~ R &.#.$.;.>.+.<.d.D ( 7 7 3 { X.G _./.4XH..X.X",
"@X1X).3X1XJ.6X.X-XI B  XY.g.;X~ e 7.H w j B k L % k 9.4.=.@.$.:.1.I.z.f.C.( Z < G { { 4 3 A H.OX.X.X",
"OX).8XJ.3X3XOX[.}.r P.Y.-.e.0. XR . ~ ;X XU. XU.b.0 0 ! ! #.4.$.c.<.U.J x D X.tXkXzXzXD $ # i #X.X.X",
"2XOXJ.3XJ.M H.-X].y Y.P.e.e.0.b.3.9.|.e.z.P.h.h.b.b.B 9 4.7.U =.:.n.j n yXxXxXzXlXkXzXrX< = m @X~.~.",
"{.*X@XH.2X& - [.6.t Y.:.U #.%.L P |.x.z.:.:.>.I.j.l.=.0 9.~ / =.@.L d bXzXgXjXjXjXkXzXxX,X@ `./.~..X",
"L.!.{.*XXXp T a r q.b.0.%.r s 8 z U.e.T.+.2.T.<.h.M.8.8 k H ^ / 9.q C.xXgXuXhXlXgXbXzXbX..[ 8XE.~..X",
":X].R.{.*Xp } ].}.f.q.6.w H qX` y w.h.z.>.2.1.1.c.h.n.9.H g e f Q n _ cXgXpXhXiXS ^.iXX.6 ,X^.~.~..X",
"oX{.%XW.0Xr.+ r.A.r.p.J a [.0XZ.o y b.h.j.j.k.<.j.P.l.b.b.g.7.+ n + 2 ..eXtXyXyX{ O O c (._.E.&XW.W.",
"XXE.*X.XW.*X' ; b Y p ; i.0XA.qX0 ! b.n.:.l h.z.z.:.#.U.d.0 h m 7XE.] D v c Z D < O G 8XE.6XD.~.W.W.",
"XXW.XX*X.X.X#XA.T C E p.#X*XXXS.s s.s.m.U t w.e.0.y ! d.S.h   ' .X*X6X_.`.C.B.X.] v D.5X~.D.6X.XW.W.",
"W.*XW.W.*X.XXX*X*XW.#X9XXXE.*Xp.- y.S.g.r 0 y % w . j ].p.p >  .6X#X.X@X#X#X@X@X5XD.~.~..X.X.X.X.X.X",
"XXXX.X.XXX#X.XF.*X#XXX.XXXW.*Xi.i u.6X .+ % ^ g.R.p.p u.5XS # ) #X.X.XXX@X~.~.@X~.5X~.#X.X-XZ..X.X.X",
"*XA.XX#XXXW..X0XW.A..X*XXXXX*Xu.O x T > > A 0X#X~.0Xi A _ = = N #XoXXX.X.XXX@XXX~.~.#XW..XS.$X.X.X.X",
"XXXXXXW.XX#XW.F.XX9XXXXXXX.XW.#Xi 1 c O # m &X/./.5X] $ 5 5 @ D .X$XXXXX#X*XXXF.XXW.XX#X.X[..XS..X.X",
"XXXXXXXX.X.X#XXXW.XX.XXXW.#X.X#XV.x , m _ E.@X/.@X@X@XS 1 5 o.).XX.X.XXX.XW..XXX.X.XF..X.X.X.X.X.X.X",
".X.X.X.XXXXXXX.XXXXXXX.X.X.X.XXX&X@X@X@X@X#XXX/.XX/././._._._.@XXXXXXXXXXXXXXX[.W.W.Q.[.[.[.[.[..X.X",
".X.X.X.XXXXXXX.XXXXXXXXX.X.XXXXXXXXXXXXXXXXXXXQ.XX/./././.XXXXXXXXXXXXXXXXXXXX[.W.W.W.W.Q.Q.[.[..X.X",
".X.X.X.XXXXX.X.XXXXXXXXXXXXXXXXXXXXXXXXXXXXX{.{.XXXXXXXXXXXXXXXXXXXXXXXXXXXXQ.Q.W.Q.W.W.~.~.~.~.W.W.",
".X.X.X.XXXXXXX.XXXXXXXXXXXXXXXXXXXXXXXXXXXXXXXXXXXXXXX{.{.{.XXXXXXXXXXXXXX/.{.[.W.Q.W.W.~.~././.W.W.",
".X.X.X.XXXXXXX.X.XXXXXXXXXXXXXXXXXXXXXXXXXXXXXXXXXXXXXXXXXXXXXXXXXXXXXXX.X.X[.[.[.W.W.W.~.~.~.~..X.X",
".X.X.X.XXXXXXX.XXXXXXXXXXXXX.X.XXXXXXXXXXXXXXXXXXXXXXXXXXXXX.X.XXX.XXX.X.X.X[.[.[.[.[.W..X~.~.~.W.W.",
".X.X.X.XXXXXXX.X.X.XXXXXXXXX.X.XXXXXXXXX@X@XXX.X@X@X@XXXXXXX.X.XXXXXXX.X.X.X[.[.[.[.[.[..X.X.X.XW.W.",
".X.X.X.XXXXXXX.X.X.XXXXXXXXX.XXX#XXXXX@X@X#X@X.X@X@XXXXXXXXX.X.XXXXXXX.X.X.X.X[.[.[.[..X.X.X.X.XW.W.",
".X.X.XXXXX.X.XXX.XXXXXXXXXXX.X.XXXXXXXXXXXXXXXXX.XXXXXXX.X.X.X.X.X.XXX.X.X.X.X[.[.W.W..X.X.X.X.XW.W.",
".X.X.XXXXX.X.XXX.XXXXXXXXXXX.X.XXXXXXXXXXXXXXXXX.X.XXXXX.X.X.X.X.X.X.X.X.X.X.X.XW.W.W..X.X.X.X.XW.W."
};
