/* XPM */
static char *_320d989f58f43cee089c058b7a170f05Mxo5zyQlpUppvGT[] = {
/* columns rows colors chars-per-pixel */
"50 50 24 1 ",
"  c #9D826D",
". c #9E836E",
"X c #9F846F",
"o c #9F8471",
"O c #A08570",
"+ c #A18671",
"@ c #A08572",
"# c #A18673",
"$ c #A28772",
"% c #A28774",
"& c #A38873",
"* c #A48A73",
"= c #A38875",
"- c #A48974",
"; c #A58B74",
": c #A58A75",
"> c #A48976",
", c #A58A77",
"< c #A68B76",
"1 c #A68C75",
"2 c #A78D76",
"3 c #A78C77",
"4 c #A68B78",
"5 c #A88D78",
/* pixels */
",,,,,,,==,,,,,,,,,,,,,-,$-,,,&-,,,,,,,,,,,,,=%$$$$",
",,,,,,,=,,,,,,,,,,,,,,-,&-,,-&-,,,,,,,,,,,,,=%%$$$",
",,,,,,--,,,,,,,,,,,,,,,,-,,,--,,,,,,,,,=,,,,=%%$$$",
",,,,,,--,,,,,,,,-,,,,,,,,,,---,1,,,,,,,,,,,,==%%$$",
"--,,,,--,,,,,,,,,,,,,,,,,,,--,,1,,,,--,,,,=,==%%$$",
"&-,,,,--,,,,,,,,,,,,,1,,,,,,,,,,,,,,,-,,,,,=,==%$$",
"&,-,&&-,,,,,,,,-,,,,1511,,,,,,,,,,,,,,,,,,,,,===$$",
"&&--&&-,,,,1,,,-,,,,5551--,,,,,,1,,,,,,,,,,,,===$$",
"&&&-----,,,,,--,,,,,,,,,--,,,,,,11,,----,,,=,,,%$$",
"&&&-----,,,,,-,,,,,,,1,,--,,,,,,,,,,,---,,,=,,,%$$",
"&&&,,--,,,,,,,,,,,,,1111,,,,,,,,,,,,,,&&,,,&=,,%$$",
"&&,,,,,,,,,,,,,,,,,,5111,,,,,,,,,,,,,,,,,,,&=,,%$$",
"&&,,,-,,,,,,,,,,,,,,111,,,,,,,,,111,,,,,-,-&&,,$$$",
"&,,,-,,,,,,,,,,,,,,,,,,,,,,,,,,,111,,,,,---&&-&$oo",
"--------1111,,,1-,,,,,,,,,,,,,,,----,,,,---&&,&$oo",
"--------1111,,,1--,,,,,,,,,,,,,,----,-,&,--&&-&$oo",
"&&-,,,,,,,,,--,,,,,151,&,,,,,,,,11,,,----&&&&,,=$o",
"&&-,,,,,,,,,--,,,,,151,,,,,,,,,,1-,,,----&&&,,==$o",
"&--,,,,,,,,,--,,,,151,,,,,,,,,,,--,,,,--,,,&,&=%$$",
"---,,,,,,,,,,-,,-,151,,,,,,,,,,,,,,,,,,-,,,,,&%$$$",
"---,,,,,,,,,,-,,-,11,,,,,,,,,,,,--,,,,,,,,-&&&%$$$",
"--,,,,,,,,,,,,,,,,,,,,,,,,,,,,,,--,,,,,,,&&&&&%$$$",
"&,,,-----,,,,,,,,,,,1,,,,,,,,,,,1-,,,-,,$$$&&&%$$$",
"&&,,-----,,,,,,,,,,,11,,,,,,,,,,11,,,-,,$$$$&&%$$$",
",-,,,,,---,,,,,,,,1,,,,,,,,,,,,,-,,,,--,$$$&&$$$$$",
"--,,,,---,,,,,,,,,,,,,,,,,,,,,,,,,-,----$$&&&&%$$$",
"&--------,,,,,,,,,,,,,,,,,,,,,,,--,-----$&&,,&%$$$",
"&&------,,,,,,,,,,,,,,,,,,,,,,,---,-----&&,,&&%$$$",
"&&--,,,,,,,,,,,,,,,,,,,,,,,,,-------,,,,&&&&&$$$$$",
"$&--,,,,,,,,,,,,,,1,,,,,,,,,------,-,,&&&&&$$$$$$$",
"$&--,,,,,,,,-,,,,,11,,,,,,,,------,,,&&$&&&$$$oo$o",
"$&-,,,,--,,,--,,,,,,,,,,,,,,-------,&$$$,&&$$$oooo",
"&&,,,,----,,,-,,,,,,,,,,,----,,--,--,,&$$$$$$$$O  ",
"&&,,------,,--,,,,,,,,,,,----,,-,,--,,&$$$$$$$OO X",
"&&,,--,,-,,,--,,,,,,,,,,,----,--,---,&$$$$$$$$O$XX",
"&&&,,,,--,------,,,,,,,,,-&&---,,---,&$$$$$$$$$$XX",
"&&&&,,,,--,,----,,,,,,,,,,&&--,,,----&$$$$$$OO$$XX",
"-&&&&&,,---,--&&-,,,,,,,,,&&--,,,-&&&&$$$$$$OOX$$$",
"--&&&&&,--,,,,&&--,,,,,,,,&&-,,,,&&&&&$$$$$$$$XX$$",
"--&&&&&,--,,,,&&--,,,,--,,&&--,,,&&&&&$$$$$$$XXX$$",
"&&$$&&&$$&,,,--,,,--,,&&&&$$&,&$,&&&&$$XXX$$$XXX$$",
"$$$$&,&&$&,,,--,,,----&$&&$&&,&$,&&&&$$XXX$$$XXXXX",
"$$$$&,,&$&,,---,,&&---&$&&&&&&&$,&&&&$$X$$$$$$XXXX",
"$$$$&,&&$&,,----,&&-,,-&&&&&&&&&&&&&&$$$$$$$$XXXXX",
"$$$$&&&$&&,,-&-----,,,-&&&&&&$$&&&&&$$$$$$XX$$$$XX",
"$$$&&&&$&&,,&&&----,,,-&&&,&&$$&&&&&$$$X$$$X$$$$$$",
"$$$&,,-&&&,,&&&&--,,,,,$&,,&$$$&&&$&$$$$$$XXXX$$XX",
"$$$&-,--&&,,&&&&-,,,,,&$&,,&$$$&&&$&&$$$$$XXXX$$  ",
"&$$&,&$,&&,--&$$&&&,,,,&&&,&$$$$$$$$$$$$$XXXXX$$X ",
"&$$&,$$&&&-,,&$$&&&-,,,&&&-&$$$$$$$$$$$$$XXXXX$XX "
};
