/* XPM */
static char *_5946fea99934698ab93adb958640008U0PmZwBAuaQohCWF[] = {
/* columns rows colors chars-per-pixel */
"50 50 131 2 ",
"   c #241F0C",
".  c #27220E",
"X  c #2A2512",
"o  c #2E2916",
"O  c #302B17",
"+  c #322D1A",
"@  c #36311E",
"#  c #38331F",
"$  c #373121",
"%  c #3A3522",
"&  c #3E3926",
"*  c #3E3828",
"=  c #403B27",
"-  c #423D2A",
";  c #46412E",
":  c #48432F",
">  c #464030",
",  c #4A4532",
"<  c #4E4935",
"1  c #4E4838",
"2  c #504B37",
"3  c #524D3A",
"4  c #56513D",
"5  c #59543F",
"6  c #5A5541",
"7  c #5E5945",
"8  c #605B47",
"9  c #625D4A",
"0  c #66614D",
"q  c #68634F",
"w  c #6A6552",
"e  c #6E6956",
"r  c #6F6959",
"t  c #706B57",
"y  c #736E5A",
"u  c #76715E",
"i  c #79745F",
"p  c #777161",
"a  c #7A7562",
"s  c #7E7965",
"d  c #807B66",
"f  c #827D6A",
"g  c #848067",
"h  c #86816D",
"j  c #89846E",
"k  c #8C886F",
"l  c #878171",
"z  c #8A8572",
"x  c #8E8975",
"c  c #908B76",
"v  c #918C76",
"b  c #928D77",
"n  c #908B77",
"m  c #908B78",
"M  c #918C78",
"N  c #918C79",
"B  c #928D79",
"V  c #938E78",
"C  c #928D7A",
"Z  c #938E7A",
"A  c #938E7B",
"S  c #948F79",
"D  c #948F7B",
"F  c #948F7C",
"G  c #928D7A",
"H  c #95907A",
"J  c #96917B",
"K  c #95907C",
"L  c #95907D",
"P  c #96917D",
"I  c #96917E",
"U  c #97927E",
"Y  c #97927F",
"T  c #96917D",
"R  c #98937D",
"E  c #98937F",
"W  c #99947E",
"Q  c #9A957F",
"!  c #98937F",
"~  c #969080",
"^  c #989380",
"/  c #999480",
"(  c #999481",
")  c #9A9581",
"_  c #9A9582",
"`  c #9B9682",
"'  c #9B9683",
"]  c #9C9783",
"[  c #9C9784",
"{  c #9A9582",
"}  c #9D9882",
"|  c #9D9885",
" . c #9E9985",
".. c #9E9986",
"X. c #9F9A86",
"o. c #9F9A87",
"O. c #9E9985",
"+. c #A19C86",
"@. c #A29D87",
"#. c #A19C86",
"$. c #A09B88",
"%. c #A19C88",
"&. c #A19C89",
"*. c #A29D89",
"=. c #A39E8B",
"-. c #A49F8B",
";. c #A29D8A",
":. c #A5A08D",
">. c #A6A18D",
",. c #A6A18E",
"<. c #A7A28E",
"1. c #A7A28F",
"2. c #A6A18D",
"3. c #A8A38F",
"4. c #A9A48F",
"5. c #A8A390",
"6. c #AAA591",
"7. c #AAA592",
"8. c #ABA692",
"9. c #ABA693",
"0. c #ACA793",
"q. c #AAA591",
"w. c #ADA894",
"e. c #AEA996",
"r. c #AFAA96",
"t. c #AEA996",
"y. c #B0AB97",
"u. c #B1AC99",
"i. c #B3AE9B",
"p. c #B2AD99",
"a. c #B6B19E",
/* pixels */
"d s f a a f < s D z c D ] x a f f g 5 0 i t y h h f p d d u s 3 p F x x F ..B u f h h 3 q d t u j h ",
"d g s y a s 6 f U U ..e.:.*.3.U j b < g s t a h h f h f u y h 8 l / F *.6.....6.[ h x 5 h d w i f f ",
"8 6 6 2 < < ; < 6 6 6 3 6 7 7 8 7 8 = 7 4 4 7 6 6 3 6 < < - 2 & ; 4 7 w a e e 9 7 4 4 % 3 6 5 8 8 7 ",
"j h h h d f d a w - a a 3 0 x a a s J z x x j f f f p < u 9 8 w w t u u s f h 3 w ..h f z x x b z j ",
"z / U D / / h x h 9 B U u y :.c B D J J D z D / z f B 7 f s x z x z x x z z / w f *.U / / B +.b E J ",
"z B B x x B a h a 4 h h y e B h z c x W ] z B U d f z < f u a x h z z x z s z 0 u m h d c z b W B c ",
"j f z x j z j z a < x B w 8 y a a a h f z h z h f s s - e s x / U / B B F x U w 7 u a s a f f d j g ",
"f s s s f a s f y $ 7 h 0 6 y u y a f z d h z d p a d = < u l y e w w a a s z < 8 s y a f a s a d s ",
"7 2 3 < , 6 0 6 6 , < , & + 6 2 3 4 + X ; < < ; > 2 ; - & % X & e 4 ; ; ; 7 3 6 0 8 w 3 , 8 7 3 2 5 ",
"*.D / / # h h f h z x f u f s s s z - 6 h z m x l B x x x l @ 4 0...B U [ z s $.U z :.a a 6.U / W +.",
"z B B B . z y w w w y p y w 9 w 0 f < m ^ x x z h l a x h / 4 > / d h h z f l a t s x y f *.h E  .B ",
"z f U w , D 8 t e y a u w 7 3 6 w u - m B x x x m z z B h F < y U d z j m x x u ; s l w e *.D U j j ",
"x f B w 0 s e a y u a u e e 6 w 0 u - f U U U ../ U [ U l ..6 z z d x z x x l s a y h y 8 i.b f z B ",
"U z U a w f e s s u u s p w u w 0 w ; a / B z w u s z x h p + h B j c z h h l f h z / t < ..J U f z ",
"e y 8 6 , 4 4 $ - - ; ; ; - % O - & + % % @ & X @ & .   & % & < 7 5 , , < @ $ O @ < < 2 < 8 7 0 6 w ",
"*.-.e.6.6.e.i.7 :.:.....U $.@ f :.-.:.x x B x [ U :.m 0 a.5.:.e.6.W x D U / ..& U / z z U x B B / / ",
"c ] ..+.....y.7 3.U U U U i.2 ..-.+.4.4. .D x x z U U 0 e.h z z /  .b U U B y.3 E b B c b j D x z x ",
"d y j h c x z : x U z B / -.< x J x k x g g d s x h s , :.x s f x J U D B ....- j d g z j g j s f f ",
"f b b x U c / = h *.z a j z - z h j j j d g h h B x f - / B m z x z h f s z f & c h g j s f g g h g ",
"j J b b x z f & x x z z z j - z x j j f d z z c x x y % ..z B x z g h B z x h % h z z x g f g g g g ",
"E U B x h s e % a f a f U ..< h J D ..b c D B / F x 8 ; ..f h -.*...../ ^ ..^ , h U c U B z x z x B ",
"w 6 9 7 8 7 6 % , 4 ; 3 8 9 + < 3 < , ; , , , 3 4 3 - o < 6 4 3 w 8 q 4 3 8 0 & 4 9 6 7 4 6 5 4 4 6 ",
"w 8 x u < - 8 x [ u 0 a 8 6 y p u q % , 3 6 8 8 8 8 0 6 7 u 0 O < 7 7 4 2 < - $ + & , 6 - 0 8 8 9 q ",
"s s u u 6 q ..:.[ / ^ / B h B s h z 2 t 0 8 y u a a t w u 8 0 < x i./ U *.5.:...B z m x , a y u f h ",
"a y 0 w 5 y B x z x h x B s u a a f : 0 7 e y e y y y e 8 6 7 & x *.l x x x ^ 5.../ x x < y e y y a ",
"f a i s 8 y B z x U / B B x s f f j 4 4 w u w d s s f f s a y ; F *.f z z U m x B B B U 8 9 a e y a ",
"f a i s 0 u c x / U B ..U ..*.x x z ; a w 9 y y u y y y e e y 3 B m z l z z x x z z h h - s j e y a ",
"3 , - : & , 6 5 7 6 8 0 7 4 8 9 6 8 & ; - + O ; 3 , ; - % + & % & @ % - @ @ @ @ $ @ @ & % 3 7 6 4 6 ",
"h d t i f h a y e - a i e y a f f z / U ..a = U f s f z z h h h s h u s & 0 w a z , D s h s d z j j ",
"j /  .W U x z U D 8 x f x B x U U ..] / U z 0 6.x B D E U U x z / U f / 7 m z z / w -.x c D J / E B ",
"j z j j x c j z z 4 f f f f U B B h x x *.s 6 B d j j x z c z b z d a x 4 a x z F 2 x h f j x x B x ",
"h g z j h j z h h , a f f h s s h x F 6.e.f 6 u a a s j z j s h j h d x , u l a z 7 e a a i d j z g ",
"s h a a f f a y p & 4 y y f s y s a f f ~ y 1 a w e e e y d a u i u a a ; 2 q a f < y t a a s s f s ",
"6 , > -   ; > , 3 % % @ + @ o + $ + X - 2 > - * , 3 & & - + w 8 , ; : 3 - - = & 6 , 2 8 @ - 4 3 < 4 ",
"*.B *.z & e.U s p s a e y u e a x ~ 2 -.[ ' / m 6.../ *./ + z m f h h j x B h a B x h U 3 U 6.x / -.",
"z B m B 0 -.s a s f f f f s u e r x 9 $.A F B *.m x h x [ $ f s y u y u a s a u 8 6 y d 7 / m x U B ",
"z f / w 2 U s s f f f d u e w 4 w s 2 ../ x B z f h s U 9 ; / w a e w a a a u y 6 , u f , d ..m B z ",
"l x B w 6 x e y u s s u y y y y y a , F $.B d h B h z B t u f y s u y s a f a e e e e s 2 y *.a z c ",
"/ z x a < z e w 0 8 8 8 8 8 0 e w s 2 e *.B B s j D f x a q B a f f f d s f f a u a a x < < ^ F f x ",
"t w 8 < o ; 3 < - X X & = & - ; & ; + & - = ; = , - @ , & @ < : ; % & & - + % ; - , , 6 3 < 8 0 7 q ",
"..../ U z c *.*.i.< z e.[ B U m z x U U *.0 , ] d h f x U x x x x F , m :.y p $.; D 0.6.e.0.6.:.>.$.",
"c D z B ] c x / 6.6 U ..x x U ..../ D U *.f 6 6.z $.$./ / ....U U e.7 z :./ *.i.0 B i.../ x B B x x ",
"f f d d f f z B B 4 p *.h d z F x z B x :.f 8 U y z F B m m A m z d 3 w 5./ / i.6 f c z h z h f g g ",
"g f j j s h B x ..2 9 :.B m B z z f l f B 8 6 B w u f x x l h h p u 3 7 :.x h F - h f f h z z f g h ",
"b x x x c c x B c % u ' x B F h h x l x B 0 < ..e e y p a u r w e z ; w $.f l B = f x d z s z h h h ",
"B J ] / ] ] D c s & y B f x $./ / ..^ B ..p < o.z f l l d s a d p p @ 8 U s x :.4 a / c B c c B z x ",
"e w 9 4 5 8 7 0 7 - - 7 6 0 y e 8 9 8 8 w < + , 3 1 3 1 , 3 1 > , - O & 6 3 6 0 ; < 7 6 0 w 7 0 w q ",
"e i w w j t - 4 0 f B a y e 0 0 8 8 , 0 6 q a w q w w 6 w f t - 3 w s U s e w w q w 0 , t 0 e a u y ",
"f d s a y a 3 a U D ....c f z s f j 6 a t i s f f h s a d y p 6 u U U ../ x d x s s h 4 a e u s f h ",
"a a u t 9 e , u B x D E c s d a a f 3 u w u s s f s i y y 9 w , a B z B / U s a a a f 3 u w y a d f "
};
